<?xml version="1.0" encoding="utf-8" standalone="no"?>
<!DOCTYPE svg PUBLIC "-//W3C//DTD SVG 1.1//EN"
  "http://www.w3.org/Graphics/SVG/1.1/DTD/svg11.dtd">
<svg xmlns:xlink="http://www.w3.org/1999/xlink" width="619.164pt" height="823.218419pt" viewBox="0 0 619.164 823.218419" xmlns="http://www.w3.org/2000/svg" version="1.1">
 <metadata>
  <rdf:RDF xmlns:dc="http://purl.org/dc/elements/1.1/" xmlns:cc="http://creativecommons.org/ns#" xmlns:rdf="http://www.w3.org/1999/02/22-rdf-syntax-ns#">
   <cc:Work>
    <dc:type rdf:resource="http://purl.org/dc/dcmitype/StillImage"/>
    <dc:date>2026-09-25T05:36:37.906763</dc:date>
    <dc:format>image/svg+xml</dc:format>
    <dc:creator>
     <cc:Agent>
      <dc:title>Matplotlib v3.11.2, https://matplotlib.org/</dc:title>
     </cc:Agent>
    </dc:creator>
   </cc:Work>
  </rdf:RDF>
 </metadata>
 <defs>
  <style type="text/css">*{stroke-linejoin: round; stroke-linecap: butt}</style>
 </defs>
 <g id="figure_1">
  <g id="patch_1">
   <path d="M 0 823.218419 
L 619.164 823.218419 
L 619.164 -0 
L 0 -0 
z
" style="fill: #fffdf7"/>
  </g>
  <g id="axes_1">
   <g id="patch_2">
    <path d="M 80.336386 310.729663 
L 80.336386 45.906506 
L 573.257494 45.906506 
L 573.257494 725.667094 
L 313.311904 725.667094 
L 313.311904 310.729663 
z
" clip-path="url(#p398668e2a3)" style="fill: #c6ded0; stroke: #ffffff; stroke-width: 0.6; stroke-linejoin: miter"/>
   </g>
   <g id="patch_3">
    <path d="M 80.336386 673.677976 
L 80.336386 378.556525 
L 306.425928 378.556525 
L 306.425928 673.677976 
z
" clip-path="url(#p398668e2a3)" style="fill: #c6ded0; stroke: #ffffff; stroke-width: 0.6; stroke-linejoin: miter"/>
   </g>
   <g id="patch_4">
    <path d="M 305.278265 364.669807 
L 305.278265 310.729663 
L 359.21841 310.729663 
L 359.21841 364.669807 
z
" clip-path="url(#p398668e2a3)" style="fill: #c6ded0; stroke: #ffffff; stroke-width: 0.6; stroke-linejoin: miter"/>
   </g>
   <g id="line2d_1">
    <path clip-path="url(#p398668e2a3)" style="fill: none; stroke: #203e3a; stroke-width: 2; stroke-linecap: square"/>
   </g>
   <g id="line2d_2">
    <path d="M 80.336386 797.39601 
L 367.252048 797.39601 
" clip-path="url(#p398668e2a3)" style="fill: none; stroke: #203e3a; stroke-width: 2; stroke-linecap: square"/>
   </g>
   <g id="patch_5">
    <path d="M 244.944 364.669807 
L 244.944 310.729663 
L 174.444723 310.729663 
L 174.444723 364.669807 
z
" clip-path="url(#p398668e2a3)" style="fill: #b7a58c; opacity: 0.65; stroke: #8b7f6a; stroke-width: 0.25; stroke-linejoin: miter"/>
   </g>
   <g id="patch_6">
    <path d="M 142.597084 565.051706 
L 142.597084 510.53773 
L 91.526096 510.53773 
L 91.526096 565.051706 
z
" clip-path="url(#p398668e2a3)" style="fill: #b7a58c; opacity: 0.65; stroke: #8b7f6a; stroke-width: 0.25; stroke-linejoin: miter"/>
   </g>
   <g id="patch_7">
    <path d="M 201.12788 565.051706 
L 201.12788 510.53773 
L 150.056892 510.53773 
L 150.056892 565.051706 
z
" clip-path="url(#p398668e2a3)" style="fill: #b7a58c; opacity: 0.65; stroke: #8b7f6a; stroke-width: 0.25; stroke-linejoin: miter"/>
   </g>
   <g id="patch_8">
    <path d="M 259.658675 565.051706 
L 259.658675 510.53773 
L 208.587687 510.53773 
L 208.587687 565.051706 
z
" clip-path="url(#p398668e2a3)" style="fill: #b7a58c; opacity: 0.65; stroke: #8b7f6a; stroke-width: 0.25; stroke-linejoin: miter"/>
   </g>
   <g id="patch_9">
    <path d="M 142.597084 473.238694 
L 142.597084 418.724718 
L 91.526096 418.724718 
L 91.526096 473.238694 
z
" clip-path="url(#p398668e2a3)" style="fill: #b7a58c; opacity: 0.65; stroke: #8b7f6a; stroke-width: 0.25; stroke-linejoin: miter"/>
   </g>
   <g id="patch_10">
    <path d="M 201.12788 473.238694 
L 201.12788 418.724718 
L 150.056892 418.724718 
L 150.056892 473.238694 
z
" clip-path="url(#p398668e2a3)" style="fill: #b7a58c; opacity: 0.65; stroke: #8b7f6a; stroke-width: 0.25; stroke-linejoin: miter"/>
   </g>
   <g id="patch_11">
    <path d="M 259.658675 473.238694 
L 259.658675 418.724718 
L 208.587687 418.724718 
L 208.587687 473.238694 
z
" clip-path="url(#p398668e2a3)" style="fill: #b7a58c; opacity: 0.65; stroke: #8b7f6a; stroke-width: 0.25; stroke-linejoin: miter"/>
   </g>
   <g id="patch_12">
    <path d="M 477.140747 249.329711 
L 477.140747 131.694289 
L 411.150145 131.694289 
L 411.150145 249.329711 
z
" clip-path="url(#p398668e2a3)" style="fill: #b7a58c; opacity: 0.65; stroke: #8b7f6a; stroke-width: 0.25; stroke-linejoin: miter"/>
   </g>
   <g id="patch_13">
    <path d="M 246.173639 245.025976 
L 246.173639 107.306458 
L 194.528819 107.306458 
L 194.528819 245.025976 
z
" clip-path="url(#p398668e2a3)" style="fill: #b7a58c; opacity: 0.65; stroke: #8b7f6a; stroke-width: 0.25; stroke-linejoin: miter"/>
   </g>
   <g id="patch_14">
    <path d="M 104.437301 236.418506 
L 104.437301 115.913928 
L 80.336386 115.913928 
L 80.336386 236.418506 
z
" clip-path="url(#p398668e2a3)" style="fill: #b7a58c; opacity: 0.65; stroke: #8b7f6a; stroke-width: 0.25; stroke-linejoin: miter"/>
   </g>
   <g id="patch_15">
    <path d="M 347.167976 665.644322 
L 347.167976 513.005198 
L 321.345577 513.005198 
L 321.345577 665.644322 
z
" clip-path="url(#p398668e2a3)" style="fill: #b7a58c; opacity: 0.65; stroke: #8b7f6a; stroke-width: 0.25; stroke-linejoin: miter"/>
   </g>
   <g id="patch_16">
    <path d="M 540.549071 717.633448 
L 540.549071 691.811049 
L 346.020287 691.811049 
L 346.020287 717.633448 
z
" clip-path="url(#p398668e2a3)" style="fill: #b7a58c; opacity: 0.65; stroke: #8b7f6a; stroke-width: 0.25; stroke-linejoin: miter"/>
   </g>
   <g id="patch_17">
    <path d="M 565.223836 702.943391 
L 565.223836 521.612701 
L 539.401437 521.612701 
L 539.401437 702.943391 
z
" clip-path="url(#p398668e2a3)" style="fill: #b7a58c; opacity: 0.65; stroke: #8b7f6a; stroke-width: 0.25; stroke-linejoin: miter"/>
   </g>
   <g id="patch_18">
    <path d="M 421.192193 597.932241 
L 421.192193 574.978988 
L 398.23894 574.978988 
L 398.23894 597.932241 
z
" clip-path="url(#p398668e2a3)" style="fill: #b7a58c; opacity: 0.65; stroke: #8b7f6a; stroke-width: 0.25; stroke-linejoin: miter"/>
   </g>
   <g id="patch_19">
    <path d="M 458.491229 597.932241 
L 458.491229 574.978988 
L 435.537976 574.978988 
L 435.537976 597.932241 
z
" clip-path="url(#p398668e2a3)" style="fill: #b7a58c; opacity: 0.65; stroke: #8b7f6a; stroke-width: 0.25; stroke-linejoin: miter"/>
   </g>
   <g id="patch_20">
    <path d="M 495.790265 597.932241 
L 495.790265 574.978988 
L 472.837012 574.978988 
L 472.837012 597.932241 
z
" clip-path="url(#p398668e2a3)" style="fill: #b7a58c; opacity: 0.65; stroke: #8b7f6a; stroke-width: 0.25; stroke-linejoin: miter"/>
   </g>
   <g id="patch_21">
    <path d="M 507.266892 641.543422 
L 507.266892 600.227566 
L 386.762313 600.227566 
L 386.762313 641.543422 
z
" clip-path="url(#p398668e2a3)" style="fill: #b7a58c; opacity: 0.65; stroke: #8b7f6a; stroke-width: 0.25; stroke-linejoin: miter"/>
   </g>
   <g id="patch_22">
    <path d="M 504.397735 691.179831 
L 504.397735 659.619108 
L 389.63147 659.619108 
L 389.63147 691.179831 
z
" clip-path="url(#p398668e2a3)" style="fill: #b7a58c; opacity: 0.65; stroke: #8b7f6a; stroke-width: 0.25; stroke-linejoin: miter"/>
   </g>
   <g id="patch_23">
    <path d="M 571.260568 768.704443 
Q 326.79664 768.704443 82.332713 768.704443 
" style="fill: none; stroke: #8b9188; stroke-width: 0.6; stroke-linecap: round"/>
    <path d="M 571.260568 776.704443 
L 571.260568 776.704443 
L 571.260568 760.704443 
L 571.260568 760.704443 
" style="fill: none; stroke: #8b9188; stroke-width: 0.6; stroke-linecap: round"/>
    <path d="M 82.332713 760.704443 
L 82.332713 760.704443 
L 82.332713 776.704443 
L 82.332713 776.704443 
" style="fill: none; stroke: #8b9188; stroke-width: 0.6; stroke-linecap: round"/>
   </g>
   <g id="text_1">
    <!-- 8.59 m internal plan span -->
    <g style="fill: #637870" transform="translate(284.968424 788.78854) scale(0.065 -0.065)">
     <defs>
      <path id="DejaVuSans-1b" d="M 2034 2216 
Q 1584 2216 1326 1975 
Q 1069 1734 1069 1313 
Q 1069 891 1326 650 
Q 1584 409 2034 409 
Q 2484 409 2743 651 
Q 3003 894 3003 1313 
Q 3003 1734 2745 1975 
Q 2488 2216 2034 2216 
z
M 1403 2484 
Q 997 2584 770 2862 
Q 544 3141 544 3541 
Q 544 4100 942 4425 
Q 1341 4750 2034 4750 
Q 2731 4750 3128 4425 
Q 3525 4100 3525 3541 
Q 3525 3141 3298 2862 
Q 3072 2584 2669 2484 
Q 3125 2378 3379 2068 
Q 3634 1759 3634 1313 
Q 3634 634 3220 271 
Q 2806 -91 2034 -91 
Q 1263 -91 848 271 
Q 434 634 434 1313 
Q 434 1759 690 2068 
Q 947 2378 1403 2484 
z
M 1172 3481 
Q 1172 3119 1398 2916 
Q 1625 2713 2034 2713 
Q 2441 2713 2670 2916 
Q 2900 3119 2900 3481 
Q 2900 3844 2670 4047 
Q 2441 4250 2034 4250 
Q 1625 4250 1398 4047 
Q 1172 3844 1172 3481 
z
" transform="scale(0.015625)"/>
      <path id="DejaVuSans-11" d="M 684 794 
L 1344 794 
L 1344 0 
L 684 0 
L 684 794 
z
" transform="scale(0.015625)"/>
      <path id="DejaVuSans-18" d="M 691 4666 
L 3169 4666 
L 3169 4134 
L 1269 4134 
L 1269 2991 
Q 1406 3038 1543 3061 
Q 1681 3084 1819 3084 
Q 2600 3084 3056 2656 
Q 3513 2228 3513 1497 
Q 3513 744 3044 326 
Q 2575 -91 1722 -91 
Q 1428 -91 1123 -41 
Q 819 9 494 109 
L 494 744 
Q 775 591 1075 516 
Q 1375 441 1709 441 
Q 2250 441 2565 725 
Q 2881 1009 2881 1497 
Q 2881 1984 2565 2268 
Q 2250 2553 1709 2553 
Q 1456 2553 1204 2497 
Q 953 2441 691 2322 
L 691 4666 
z
" transform="scale(0.015625)"/>
      <path id="DejaVuSans-1c" d="M 703 97 
L 703 672 
Q 941 559 1184 500 
Q 1428 441 1663 441 
Q 2288 441 2617 861 
Q 2947 1281 2994 2138 
Q 2813 1869 2534 1725 
Q 2256 1581 1919 1581 
Q 1219 1581 811 2004 
Q 403 2428 403 3163 
Q 403 3881 828 4315 
Q 1253 4750 1959 4750 
Q 2769 4750 3195 4129 
Q 3622 3509 3622 2328 
Q 3622 1225 3098 567 
Q 2575 -91 1691 -91 
Q 1453 -91 1209 -44 
Q 966 3 703 97 
z
M 1959 2075 
Q 2384 2075 2632 2365 
Q 2881 2656 2881 3163 
Q 2881 3666 2632 3958 
Q 2384 4250 1959 4250 
Q 1534 4250 1286 3958 
Q 1038 3666 1038 3163 
Q 1038 2656 1286 2365 
Q 1534 2075 1959 2075 
z
" transform="scale(0.015625)"/>
      <path id="DejaVuSans-3" transform="scale(0.015625)"/>
      <path id="DejaVuSans-50" d="M 3328 2828 
Q 3544 3216 3844 3400 
Q 4144 3584 4550 3584 
Q 5097 3584 5394 3201 
Q 5691 2819 5691 2113 
L 5691 0 
L 5113 0 
L 5113 2094 
Q 5113 2597 4934 2840 
Q 4756 3084 4391 3084 
Q 3944 3084 3684 2787 
Q 3425 2491 3425 1978 
L 3425 0 
L 2847 0 
L 2847 2094 
Q 2847 2600 2669 2842 
Q 2491 3084 2119 3084 
Q 1678 3084 1418 2786 
Q 1159 2488 1159 1978 
L 1159 0 
L 581 0 
L 581 3500 
L 1159 3500 
L 1159 2956 
Q 1356 3278 1631 3431 
Q 1906 3584 2284 3584 
Q 2666 3584 2933 3390 
Q 3200 3197 3328 2828 
z
" transform="scale(0.015625)"/>
      <path id="DejaVuSans-4c" d="M 603 3500 
L 1178 3500 
L 1178 0 
L 603 0 
L 603 3500 
z
M 603 4863 
L 1178 4863 
L 1178 4134 
L 603 4134 
L 603 4863 
z
" transform="scale(0.015625)"/>
      <path id="DejaVuSans-51" d="M 3513 2113 
L 3513 0 
L 2938 0 
L 2938 2094 
Q 2938 2591 2744 2837 
Q 2550 3084 2163 3084 
Q 1697 3084 1428 2787 
Q 1159 2491 1159 1978 
L 1159 0 
L 581 0 
L 581 3500 
L 1159 3500 
L 1159 2956 
Q 1366 3272 1645 3428 
Q 1925 3584 2291 3584 
Q 2894 3584 3203 3211 
Q 3513 2838 3513 2113 
z
" transform="scale(0.015625)"/>
      <path id="DejaVuSans-57" d="M 1172 4494 
L 1172 3500 
L 2356 3500 
L 2356 3053 
L 1172 3053 
L 1172 1153 
Q 1172 725 1289 603 
Q 1406 481 1766 481 
L 2356 481 
L 2356 0 
L 1766 0 
Q 1100 0 847 248 
Q 594 497 594 1153 
L 594 3053 
L 172 3053 
L 172 3500 
L 594 3500 
L 594 4494 
L 1172 4494 
z
" transform="scale(0.015625)"/>
      <path id="DejaVuSans-48" d="M 3597 1894 
L 3597 1613 
L 953 1613 
Q 991 1019 1311 708 
Q 1631 397 2203 397 
Q 2534 397 2845 478 
Q 3156 559 3463 722 
L 3463 178 
Q 3153 47 2828 -22 
Q 2503 -91 2169 -91 
Q 1331 -91 842 396 
Q 353 884 353 1716 
Q 353 2575 817 3079 
Q 1281 3584 2069 3584 
Q 2775 3584 3186 3129 
Q 3597 2675 3597 1894 
z
M 3022 2063 
Q 3016 2534 2758 2815 
Q 2500 3097 2075 3097 
Q 1594 3097 1305 2825 
Q 1016 2553 972 2059 
L 3022 2063 
z
" transform="scale(0.015625)"/>
      <path id="DejaVuSans-55" d="M 2631 2963 
Q 2534 3019 2420 3045 
Q 2306 3072 2169 3072 
Q 1681 3072 1420 2755 
Q 1159 2438 1159 1844 
L 1159 0 
L 581 0 
L 581 3500 
L 1159 3500 
L 1159 2956 
Q 1341 3275 1631 3429 
Q 1922 3584 2338 3584 
Q 2397 3584 2469 3576 
Q 2541 3569 2628 3553 
L 2631 2963 
z
" transform="scale(0.015625)"/>
      <path id="DejaVuSans-44" d="M 2194 1759 
Q 1497 1759 1228 1600 
Q 959 1441 959 1056 
Q 959 750 1161 570 
Q 1363 391 1709 391 
Q 2188 391 2477 730 
Q 2766 1069 2766 1631 
L 2766 1759 
L 2194 1759 
z
M 3341 1997 
L 3341 0 
L 2766 0 
L 2766 531 
Q 2569 213 2275 61 
Q 1981 -91 1556 -91 
Q 1019 -91 701 211 
Q 384 513 384 1019 
Q 384 1609 779 1909 
Q 1175 2209 1959 2209 
L 2766 2209 
L 2766 2266 
Q 2766 2663 2505 2880 
Q 2244 3097 1772 3097 
Q 1472 3097 1187 3025 
Q 903 2953 641 2809 
L 641 3341 
Q 956 3463 1253 3523 
Q 1550 3584 1831 3584 
Q 2591 3584 2966 3190 
Q 3341 2797 3341 1997 
z
" transform="scale(0.015625)"/>
      <path id="DejaVuSans-4f" d="M 603 4863 
L 1178 4863 
L 1178 0 
L 603 0 
L 603 4863 
z
" transform="scale(0.015625)"/>
      <path id="DejaVuSans-53" d="M 1159 525 
L 1159 -1331 
L 581 -1331 
L 581 3500 
L 1159 3500 
L 1159 2969 
Q 1341 3281 1617 3432 
Q 1894 3584 2278 3584 
Q 2916 3584 3314 3078 
Q 3713 2572 3713 1747 
Q 3713 922 3314 415 
Q 2916 -91 2278 -91 
Q 1894 -91 1617 61 
Q 1341 213 1159 525 
z
M 3116 1747 
Q 3116 2381 2855 2742 
Q 2594 3103 2138 3103 
Q 1681 3103 1420 2742 
Q 1159 2381 1159 1747 
Q 1159 1113 1420 752 
Q 1681 391 2138 391 
Q 2594 391 2855 752 
Q 3116 1113 3116 1747 
z
" transform="scale(0.015625)"/>
      <path id="DejaVuSans-56" d="M 2834 3397 
L 2834 2853 
Q 2591 2978 2328 3040 
Q 2066 3103 1784 3103 
Q 1356 3103 1142 2972 
Q 928 2841 928 2578 
Q 928 2378 1081 2264 
Q 1234 2150 1697 2047 
L 1894 2003 
Q 2506 1872 2764 1633 
Q 3022 1394 3022 966 
Q 3022 478 2636 193 
Q 2250 -91 1575 -91 
Q 1294 -91 989 -36 
Q 684 19 347 128 
L 347 722 
Q 666 556 975 473 
Q 1284 391 1588 391 
Q 1994 391 2212 530 
Q 2431 669 2431 922 
Q 2431 1156 2273 1281 
Q 2116 1406 1581 1522 
L 1381 1569 
Q 847 1681 609 1914 
Q 372 2147 372 2553 
Q 372 3047 722 3315 
Q 1072 3584 1716 3584 
Q 2034 3584 2315 3537 
Q 2597 3491 2834 3397 
z
" transform="scale(0.015625)"/>
     </defs>
     <use xlink:href="#DejaVuSans-1b"/>
     <use xlink:href="#DejaVuSans-11" transform="translate(63.625 0)"/>
     <use xlink:href="#DejaVuSans-18" transform="translate(95.40625 0)"/>
     <use xlink:href="#DejaVuSans-1c" transform="translate(159.03125 0)"/>
     <use xlink:href="#DejaVuSans-3" transform="translate(222.65625 0)"/>
     <use xlink:href="#DejaVuSans-50" transform="translate(254.4375 0)"/>
     <use xlink:href="#DejaVuSans-3" transform="translate(351.84375 0)"/>
     <use xlink:href="#DejaVuSans-4c" transform="translate(383.625 0)"/>
     <use xlink:href="#DejaVuSans-51" transform="translate(411.40625 0)"/>
     <use xlink:href="#DejaVuSans-57" transform="translate(474.78125 0)"/>
     <use xlink:href="#DejaVuSans-48" transform="translate(513.984375 0)"/>
     <use xlink:href="#DejaVuSans-55" transform="translate(575.515625 0)"/>
     <use xlink:href="#DejaVuSans-51" transform="translate(614.875 0)"/>
     <use xlink:href="#DejaVuSans-44" transform="translate(678.25 0)"/>
     <use xlink:href="#DejaVuSans-4f" transform="translate(739.53125 0)"/>
     <use xlink:href="#DejaVuSans-3" transform="translate(767.3125 0)"/>
     <use xlink:href="#DejaVuSans-53" transform="translate(799.09375 0)"/>
     <use xlink:href="#DejaVuSans-4f" transform="translate(862.578125 0)"/>
     <use xlink:href="#DejaVuSans-44" transform="translate(890.359375 0)"/>
     <use xlink:href="#DejaVuSans-51" transform="translate(951.640625 0)"/>
     <use xlink:href="#DejaVuSans-3" transform="translate(1015.015625 0)"/>
     <use xlink:href="#DejaVuSans-56" transform="translate(1046.796875 0)"/>
     <use xlink:href="#DejaVuSans-53" transform="translate(1098.890625 0)"/>
     <use xlink:href="#DejaVuSans-44" transform="translate(1162.375 0)"/>
     <use xlink:href="#DejaVuSans-51" transform="translate(1223.65625 0)"/>
    </g>
   </g>
   <g id="patch_24">
    <path d="M 37.299036 47.905771 
Q 37.299036 385.787155 37.299036 723.668538 
" style="fill: none; stroke: #8b9188; stroke-width: 0.6; stroke-linecap: round"/>
    <path d="M 45.299036 47.905771 
L 45.299036 47.905771 
L 29.299036 47.905771 
L 29.299036 47.905771 
" style="fill: none; stroke: #8b9188; stroke-width: 0.6; stroke-linecap: round"/>
    <path d="M 29.299036 723.668538 
L 29.299036 723.668538 
L 45.299036 723.668538 
L 45.299036 723.668538 
" style="fill: none; stroke: #8b9188; stroke-width: 0.6; stroke-linecap: round"/>
   </g>
   <g id="text_2">
    <!-- 11.85 m -->
    <g style="fill: #637870" transform="translate(24.260886 399.289534) rotate(-90) scale(0.065 -0.065)">
     <defs>
      <path id="DejaVuSans-14" d="M 794 531 
L 1825 531 
L 1825 4091 
L 703 3866 
L 703 4441 
L 1819 4666 
L 2450 4666 
L 2450 531 
L 3481 531 
L 3481 0 
L 794 0 
L 794 531 
z
" transform="scale(0.015625)"/>
     </defs>
     <use xlink:href="#DejaVuSans-14"/>
     <use xlink:href="#DejaVuSans-14" transform="translate(63.625 0)"/>
     <use xlink:href="#DejaVuSans-11" transform="translate(127.25 0)"/>
     <use xlink:href="#DejaVuSans-1b" transform="translate(159.03125 0)"/>
     <use xlink:href="#DejaVuSans-18" transform="translate(222.65625 0)"/>
     <use xlink:href="#DejaVuSans-3" transform="translate(286.28125 0)"/>
     <use xlink:href="#DejaVuSans-50" transform="translate(318.0625 0)"/>
    </g>
   </g>
   <g id="text_3">
    <!-- 5 m -->
    <g style="fill: #203e3a" transform="translate(216.081717 817.480106) scale(0.08 -0.08)">
     <use xlink:href="#DejaVuSans-18"/>
     <use xlink:href="#DejaVuSans-3" transform="translate(63.625 0)"/>
     <use xlink:href="#DejaVuSans-50" transform="translate(95.40625 0)"/>
    </g>
   </g>
   <g id="patch_25">
    <path d="M 67.138265 39.307446 
L 80.336386 39.307446 
L 80.336386 732.266154 
L 67.138265 732.266154 
z
" clip-path="url(#p398668e2a3)" style="fill: #2d4741"/>
   </g>
   <g id="patch_26">
    <path d="M 573.257494 39.307446 
L 586.455614 39.307446 
L 586.455614 732.266154 
L 573.257494 732.266154 
z
" clip-path="url(#p398668e2a3)" style="fill: #2d4741"/>
   </g>
   <g id="patch_27">
    <path d="M 579.856554 725.667094 
L 579.856554 738.865214 
L 73.737325 738.865214 
L 73.737325 725.667094 
z
" clip-path="url(#p398668e2a3)" style="fill: #2d4741"/>
   </g>
   <g id="patch_28">
    <path d="M 579.856554 32.708386 
L 579.856554 45.906506 
L 73.737325 45.906506 
L 73.737325 32.708386 
z
" clip-path="url(#p398668e2a3)" style="fill: #2d4741"/>
   </g>
   <g id="patch_29">
    <path d="M 313.311904 371.670549 
L 313.311904 378.556525 
L 80.336386 378.556525 
L 80.336386 371.670549 
z
" clip-path="url(#p398668e2a3)" style="fill: #2d4741"/>
   </g>
   <g id="patch_30">
    <path d="M 309.868916 673.677976 
L 309.868916 680.563952 
L 80.336386 680.563952 
L 80.336386 673.677976 
z
" clip-path="url(#p398668e2a3)" style="fill: #2d4741"/>
   </g>
   <g id="patch_31">
    <path d="M 306.425928 718.436819 
L 313.311904 718.436819 
L 313.311904 725.667094 
L 306.425928 725.667094 
z
" clip-path="url(#p398668e2a3)" style="fill: #2d4741"/>
   </g>
   <g id="patch_32">
    <path d="M 306.425928 425.782843 
L 313.311904 425.782843 
L 313.311904 684.00694 
L 306.425928 684.00694 
z
" clip-path="url(#p398668e2a3)" style="fill: #2d4741"/>
   </g>
   <g id="patch_33">
    <path d="M 306.425928 375.113537 
L 313.311904 375.113537 
L 313.311904 377.007181 
L 306.425928 377.007181 
z
" clip-path="url(#p398668e2a3)" style="fill: #2d4741"/>
   </g>
   <g id="patch_34">
    <path d="M 250.190458 364.526349 
L 250.190458 366.534759 
L 236.418506 366.534759 
L 236.418506 364.526349 
z
" clip-path="url(#p398668e2a3)" style="fill: #2d4741"/>
   </g>
   <g id="patch_35">
    <path d="M 250.190458 308.864711 
L 250.190458 310.87312 
L 236.418506 310.87312 
L 236.418506 308.864711 
z
" clip-path="url(#p398668e2a3)" style="fill: #2d4741"/>
   </g>
   <g id="patch_36">
    <path d="M 263.96241 364.526349 
L 263.96241 366.534759 
L 250.190458 366.534759 
L 250.190458 364.526349 
z
" clip-path="url(#p398668e2a3)" style="fill: #2d4741"/>
   </g>
   <g id="patch_37">
    <path d="M 263.96241 308.864711 
L 263.96241 310.87312 
L 250.190458 310.87312 
L 250.190458 308.864711 
z
" clip-path="url(#p398668e2a3)" style="fill: #2d4741"/>
   </g>
   <g id="patch_38">
    <path d="M 277.734361 364.526349 
L 277.734361 366.534759 
L 263.96241 366.534759 
L 263.96241 364.526349 
z
" clip-path="url(#p398668e2a3)" style="fill: #2d4741"/>
   </g>
   <g id="patch_39">
    <path d="M 277.734361 308.864711 
L 277.734361 310.87312 
L 263.96241 310.87312 
L 263.96241 308.864711 
z
" clip-path="url(#p398668e2a3)" style="fill: #2d4741"/>
   </g>
   <g id="patch_40">
    <path d="M 291.506313 364.526349 
L 291.506313 366.534759 
L 277.734361 366.534759 
L 277.734361 364.526349 
z
" clip-path="url(#p398668e2a3)" style="fill: #2d4741"/>
   </g>
   <g id="patch_41">
    <path d="M 291.506313 308.864711 
L 291.506313 310.87312 
L 277.734361 310.87312 
L 277.734361 308.864711 
z
" clip-path="url(#p398668e2a3)" style="fill: #2d4741"/>
   </g>
   <g id="patch_42">
    <path d="M 305.278265 364.526349 
L 305.278265 366.534759 
L 291.506313 366.534759 
L 291.506313 364.526349 
z
" clip-path="url(#p398668e2a3)" style="fill: #2d4741"/>
   </g>
   <g id="patch_43">
    <path d="M 305.278265 308.864711 
L 305.278265 310.87312 
L 291.506313 310.87312 
L 291.506313 308.864711 
z
" clip-path="url(#p398668e2a3)" style="fill: #2d4741"/>
   </g>
   <g id="line2d_3">
    <path d="M 309.868916 718.436819 
L 275.439036 718.436819 
" clip-path="url(#p398668e2a3)" style="fill: none; stroke: #6d9fab; stroke-width: 0.5; stroke-linecap: square"/>
   </g>
   <g id="patch_44">
    <path d="M 309.868916 684.00694 
C 300.741046 684.00694 291.977693 687.636839 285.523314 694.091218 
C 279.068936 700.545597 275.439036 709.30895 275.439036 718.436819 
" clip-path="url(#p398668e2a3)" style="fill: none; stroke: #6d9fab; stroke-width: 0.35; stroke-linejoin: miter"/>
   </g>
   <g id="line2d_4">
    <path d="M 309.868916 377.007181 
L 261.093253 377.007181 
" clip-path="url(#p398668e2a3)" style="fill: none; stroke: #6d9fab; stroke-width: 0.5; stroke-linecap: square"/>
   </g>
   <g id="patch_45">
    <path d="M 261.093253 377.007181 
C 261.093253 389.938329 266.235611 402.35308 275.379314 411.496783 
C 284.523017 420.640486 296.937767 425.782843 309.868916 425.782843 
" clip-path="url(#p398668e2a3)" style="fill: none; stroke: #6d9fab; stroke-width: 0.35; stroke-linejoin: miter"/>
   </g>
   <g id="patch_46">
    <path d="M 140.014832 364.669798 
L 140.014832 310.729678 
L 153.786798 310.729678 
L 153.786798 364.669798 
z
" clip-path="url(#p398668e2a3)" style="fill: #f2ead8; stroke: #9c8357; stroke-width: 0.4; stroke-linejoin: miter"/>
   </g>
   <g id="patch_47">
    <path d="M 153.786798 364.669798 
L 153.786798 310.729678 
L 167.558737 310.729678 
L 167.558737 364.669798 
z
" clip-path="url(#p398668e2a3)" style="fill: #f2ead8; stroke: #9c8357; stroke-width: 0.4; stroke-linejoin: miter"/>
   </g>
   <g id="patch_48">
    <path d="M 167.558737 364.669798 
L 167.558737 310.729678 
L 181.330703 310.729678 
L 181.330703 364.669798 
z
" clip-path="url(#p398668e2a3)" style="fill: #f2ead8; stroke: #9c8357; stroke-width: 0.4; stroke-linejoin: miter"/>
   </g>
   <g id="patch_49">
    <path d="M 181.330703 364.669798 
L 181.330703 310.729678 
L 195.102642 310.729678 
L 195.102642 364.669798 
z
" clip-path="url(#p398668e2a3)" style="fill: #f2ead8; stroke: #9c8357; stroke-width: 0.4; stroke-linejoin: miter"/>
   </g>
   <g id="patch_50">
    <path d="M 195.102642 364.669798 
L 195.102642 310.729678 
L 208.874608 310.729678 
L 208.874608 364.669798 
z
" clip-path="url(#p398668e2a3)" style="fill: #f2ead8; stroke: #9c8357; stroke-width: 0.4; stroke-linejoin: miter"/>
   </g>
   <g id="patch_51">
    <path d="M 208.874608 364.669798 
L 208.874608 310.729678 
L 222.646547 310.729678 
L 222.646547 364.669798 
z
" clip-path="url(#p398668e2a3)" style="fill: #f2ead8; stroke: #9c8357; stroke-width: 0.4; stroke-linejoin: miter"/>
   </g>
   <g id="patch_52">
    <path d="M 222.646547 364.669798 
L 222.646547 310.729678 
L 236.418513 310.729678 
L 236.418513 364.669798 
z
" clip-path="url(#p398668e2a3)" style="fill: #f2ead8; stroke: #9c8357; stroke-width: 0.4; stroke-linejoin: miter"/>
   </g>
   <g id="patch_53">
    <path d="M 236.418513 364.669798 
L 236.418513 310.729678 
L 250.190451 310.729678 
L 250.190451 364.669798 
z
" clip-path="url(#p398668e2a3)" style="fill: #f2ead8; stroke: #9c8357; stroke-width: 0.4; stroke-linejoin: miter"/>
   </g>
   <g id="patch_54">
    <path d="M 250.190451 364.669798 
L 250.190451 310.729678 
L 263.96239 310.729678 
L 263.96239 364.669798 
z
" clip-path="url(#p398668e2a3)" style="fill: #f2ead8; stroke: #9c8357; stroke-width: 0.4; stroke-linejoin: miter"/>
   </g>
   <g id="patch_55">
    <path d="M 263.96239 364.669798 
L 263.96239 310.729678 
L 277.734383 310.729678 
L 277.734383 364.669798 
z
" clip-path="url(#p398668e2a3)" style="fill: #f2ead8; stroke: #9c8357; stroke-width: 0.4; stroke-linejoin: miter"/>
   </g>
   <g id="patch_56">
    <path d="M 277.734383 364.669798 
L 277.734383 310.729678 
L 291.506322 310.729678 
L 291.506322 364.669798 
z
" clip-path="url(#p398668e2a3)" style="fill: #f2ead8; stroke: #9c8357; stroke-width: 0.4; stroke-linejoin: miter"/>
   </g>
   <g id="patch_57">
    <path d="M 291.506322 364.669798 
L 291.506322 310.729678 
L 305.278261 310.729678 
L 305.278261 364.669798 
z
" clip-path="url(#p398668e2a3)" style="fill: #f2ead8; stroke: #9c8357; stroke-width: 0.4; stroke-linejoin: miter"/>
   </g>
   <g id="patch_58">
    <path d="M 142.014567 337.699735 
Q 222.647442 337.699735 302.38589 337.699735 
" style="fill: none; stroke: #9c8357; stroke-width: 0.8; stroke-linecap: round"/>
    <path d="M 299.18589 336.099735 
L 302.38589 337.699735 
L 299.18589 339.299735 
" style="fill: none; stroke: #9c8357; stroke-width: 0.8; stroke-linecap: round"/>
   </g>
   <g id="text_4">
    <g id="patch_59">
     <path d="M 409.663371 559.100775 
L 476.906027 559.100775 
L 476.906027 531.236126 
L 409.663371 531.236126 
z
" style="fill: #fffdf7; opacity: 0.88"/>
    </g>
    <!-- 1 -->
    <g style="fill: #203e3a" transform="translate(441.057824 538.585169) scale(0.07 -0.07)">
     <use xlink:href="#DejaVuSans-14"/>
    </g>
    <!-- Basement bar and -->
    <g style="fill: #203e3a" transform="translate(410.993371 546.987083) scale(0.07 -0.07)">
     <defs>
      <path id="DejaVuSans-25" d="M 1259 2228 
L 1259 519 
L 2272 519 
Q 2781 519 3026 730 
Q 3272 941 3272 1375 
Q 3272 1813 3026 2020 
Q 2781 2228 2272 2228 
L 1259 2228 
z
M 1259 4147 
L 1259 2741 
L 2194 2741 
Q 2656 2741 2882 2914 
Q 3109 3088 3109 3444 
Q 3109 3797 2882 3972 
Q 2656 4147 2194 4147 
L 1259 4147 
z
M 628 4666 
L 2241 4666 
Q 2963 4666 3353 4366 
Q 3744 4066 3744 3513 
Q 3744 3084 3544 2831 
Q 3344 2578 2956 2516 
Q 3422 2416 3680 2098 
Q 3938 1781 3938 1306 
Q 3938 681 3513 340 
Q 3088 0 2303 0 
L 628 0 
L 628 4666 
z
" transform="scale(0.015625)"/>
      <path id="DejaVuSans-45" d="M 3116 1747 
Q 3116 2381 2855 2742 
Q 2594 3103 2138 3103 
Q 1681 3103 1420 2742 
Q 1159 2381 1159 1747 
Q 1159 1113 1420 752 
Q 1681 391 2138 391 
Q 2594 391 2855 752 
Q 3116 1113 3116 1747 
z
M 1159 2969 
Q 1341 3281 1617 3432 
Q 1894 3584 2278 3584 
Q 2916 3584 3314 3078 
Q 3713 2572 3713 1747 
Q 3713 922 3314 415 
Q 2916 -91 2278 -91 
Q 1894 -91 1617 61 
Q 1341 213 1159 525 
L 1159 0 
L 581 0 
L 581 4863 
L 1159 4863 
L 1159 2969 
z
" transform="scale(0.015625)"/>
      <path id="DejaVuSans-47" d="M 2906 2969 
L 2906 4863 
L 3481 4863 
L 3481 0 
L 2906 0 
L 2906 525 
Q 2725 213 2448 61 
Q 2172 -91 1784 -91 
Q 1150 -91 751 415 
Q 353 922 353 1747 
Q 353 2572 751 3078 
Q 1150 3584 1784 3584 
Q 2172 3584 2448 3432 
Q 2725 3281 2906 2969 
z
M 947 1747 
Q 947 1113 1208 752 
Q 1469 391 1925 391 
Q 2381 391 2643 752 
Q 2906 1113 2906 1747 
Q 2906 2381 2643 2742 
Q 2381 3103 1925 3103 
Q 1469 3103 1208 2742 
Q 947 2381 947 1747 
z
" transform="scale(0.015625)"/>
     </defs>
     <use xlink:href="#DejaVuSans-25"/>
     <use xlink:href="#DejaVuSans-44" transform="translate(68.609375 0)"/>
     <use xlink:href="#DejaVuSans-56" transform="translate(129.890625 0)"/>
     <use xlink:href="#DejaVuSans-48" transform="translate(181.984375 0)"/>
     <use xlink:href="#DejaVuSans-50" transform="translate(243.515625 0)"/>
     <use xlink:href="#DejaVuSans-48" transform="translate(340.921875 0)"/>
     <use xlink:href="#DejaVuSans-51" transform="translate(402.453125 0)"/>
     <use xlink:href="#DejaVuSans-57" transform="translate(465.828125 0)"/>
     <use xlink:href="#DejaVuSans-3" transform="translate(505.03125 0)"/>
     <use xlink:href="#DejaVuSans-45" transform="translate(536.8125 0)"/>
     <use xlink:href="#DejaVuSans-44" transform="translate(600.296875 0)"/>
     <use xlink:href="#DejaVuSans-55" transform="translate(661.578125 0)"/>
     <use xlink:href="#DejaVuSans-3" transform="translate(702.6875 0)"/>
     <use xlink:href="#DejaVuSans-44" transform="translate(734.46875 0)"/>
     <use xlink:href="#DejaVuSans-51" transform="translate(795.75 0)"/>
     <use xlink:href="#DejaVuSans-47" transform="translate(859.125 0)"/>
    </g>
    <!-- games room -->
    <g style="fill: #203e3a" transform="translate(421.365402 555.388451) scale(0.07 -0.07)">
     <defs>
      <path id="DejaVuSans-4a" d="M 2906 1791 
Q 2906 2416 2648 2759 
Q 2391 3103 1925 3103 
Q 1463 3103 1205 2759 
Q 947 2416 947 1791 
Q 947 1169 1205 825 
Q 1463 481 1925 481 
Q 2391 481 2648 825 
Q 2906 1169 2906 1791 
z
M 3481 434 
Q 3481 -459 3084 -895 
Q 2688 -1331 1869 -1331 
Q 1566 -1331 1297 -1286 
Q 1028 -1241 775 -1147 
L 775 -588 
Q 1028 -725 1275 -790 
Q 1522 -856 1778 -856 
Q 2344 -856 2625 -561 
Q 2906 -266 2906 331 
L 2906 616 
Q 2728 306 2450 153 
Q 2172 0 1784 0 
Q 1141 0 747 490 
Q 353 981 353 1791 
Q 353 2603 747 3093 
Q 1141 3584 1784 3584 
Q 2172 3584 2450 3431 
Q 2728 3278 2906 2969 
L 2906 3500 
L 3481 3500 
L 3481 434 
z
" transform="scale(0.015625)"/>
      <path id="DejaVuSans-52" d="M 1959 3097 
Q 1497 3097 1228 2736 
Q 959 2375 959 1747 
Q 959 1119 1226 758 
Q 1494 397 1959 397 
Q 2419 397 2687 759 
Q 2956 1122 2956 1747 
Q 2956 2369 2687 2733 
Q 2419 3097 1959 3097 
z
M 1959 3584 
Q 2709 3584 3137 3096 
Q 3566 2609 3566 1747 
Q 3566 888 3137 398 
Q 2709 -91 1959 -91 
Q 1206 -91 779 398 
Q 353 888 353 1747 
Q 353 2609 779 3096 
Q 1206 3584 1959 3584 
z
" transform="scale(0.015625)"/>
     </defs>
     <use xlink:href="#DejaVuSans-4a"/>
     <use xlink:href="#DejaVuSans-44" transform="translate(63.484375 0)"/>
     <use xlink:href="#DejaVuSans-50" transform="translate(124.765625 0)"/>
     <use xlink:href="#DejaVuSans-48" transform="translate(222.171875 0)"/>
     <use xlink:href="#DejaVuSans-56" transform="translate(283.703125 0)"/>
     <use xlink:href="#DejaVuSans-3" transform="translate(335.796875 0)"/>
     <use xlink:href="#DejaVuSans-55" transform="translate(367.578125 0)"/>
     <use xlink:href="#DejaVuSans-52" transform="translate(406.484375 0)"/>
     <use xlink:href="#DejaVuSans-52" transform="translate(467.671875 0)"/>
     <use xlink:href="#DejaVuSans-50" transform="translate(528.859375 0)"/>
    </g>
   </g>
   <g id="text_5">
    <g id="patch_60">
     <path d="M 160.440141 535.848891 
L 226.322172 535.848891 
L 226.322172 516.38561 
L 160.440141 516.38561 
z
" style="fill: #fffdf7; opacity: 0.88"/>
    </g>
    <!-- 2 -->
    <g style="fill: #203e3a" transform="translate(191.154282 523.734653) scale(0.07 -0.07)">
     <defs>
      <path id="DejaVuSans-15" d="M 1228 531 
L 3431 531 
L 3431 0 
L 469 0 
L 469 531 
Q 828 903 1448 1529 
Q 2069 2156 2228 2338 
Q 2531 2678 2651 2914 
Q 2772 3150 2772 3378 
Q 2772 3750 2511 3984 
Q 2250 4219 1831 4219 
Q 1534 4219 1204 4116 
Q 875 4013 500 3803 
L 500 4441 
Q 881 4594 1212 4672 
Q 1544 4750 1819 4750 
Q 2544 4750 2975 4387 
Q 3406 4025 3406 3419 
Q 3406 3131 3298 2873 
Q 3191 2616 2906 2266 
Q 2828 2175 2409 1742 
Q 1991 1309 1228 531 
z
" transform="scale(0.015625)"/>
     </defs>
     <use xlink:href="#DejaVuSans-15"/>
    </g>
    <!-- Basement cinema -->
    <g style="fill: #203e3a" transform="translate(161.770141 532.136567) scale(0.07 -0.07)">
     <defs>
      <path id="DejaVuSans-46" d="M 3122 3366 
L 3122 2828 
Q 2878 2963 2633 3030 
Q 2388 3097 2138 3097 
Q 1578 3097 1268 2742 
Q 959 2388 959 1747 
Q 959 1106 1268 751 
Q 1578 397 2138 397 
Q 2388 397 2633 464 
Q 2878 531 3122 666 
L 3122 134 
Q 2881 22 2623 -34 
Q 2366 -91 2075 -91 
Q 1284 -91 818 406 
Q 353 903 353 1747 
Q 353 2603 823 3093 
Q 1294 3584 2113 3584 
Q 2378 3584 2631 3529 
Q 2884 3475 3122 3366 
z
" transform="scale(0.015625)"/>
     </defs>
     <use xlink:href="#DejaVuSans-25"/>
     <use xlink:href="#DejaVuSans-44" transform="translate(68.609375 0)"/>
     <use xlink:href="#DejaVuSans-56" transform="translate(129.890625 0)"/>
     <use xlink:href="#DejaVuSans-48" transform="translate(181.984375 0)"/>
     <use xlink:href="#DejaVuSans-50" transform="translate(243.515625 0)"/>
     <use xlink:href="#DejaVuSans-48" transform="translate(340.921875 0)"/>
     <use xlink:href="#DejaVuSans-51" transform="translate(402.453125 0)"/>
     <use xlink:href="#DejaVuSans-57" transform="translate(465.828125 0)"/>
     <use xlink:href="#DejaVuSans-3" transform="translate(505.03125 0)"/>
     <use xlink:href="#DejaVuSans-46" transform="translate(536.8125 0)"/>
     <use xlink:href="#DejaVuSans-4c" transform="translate(591.796875 0)"/>
     <use xlink:href="#DejaVuSans-51" transform="translate(619.578125 0)"/>
     <use xlink:href="#DejaVuSans-48" transform="translate(682.953125 0)"/>
     <use xlink:href="#DejaVuSans-50" transform="translate(744.484375 0)"/>
     <use xlink:href="#DejaVuSans-44" transform="translate(841.890625 0)"/>
    </g>
   </g>
   <g id="text_6">
    <g id="patch_61">
     <path d="M 328.932337 342.179735 
L 335.564337 342.179735 
L 335.564337 333.219735 
L 328.932337 333.219735 
z
" style="fill: #fffdf7; opacity: 0.88"/>
    </g>
    <!-- 3 -->
    <g style="fill: #203e3a" transform="translate(330.212337 339.362235) scale(0.064 -0.064)">
     <defs>
      <path id="DejaVuSans-16" d="M 2597 2516 
Q 3050 2419 3304 2112 
Q 3559 1806 3559 1356 
Q 3559 666 3084 287 
Q 2609 -91 1734 -91 
Q 1441 -91 1130 -33 
Q 819 25 488 141 
L 488 750 
Q 750 597 1062 519 
Q 1375 441 1716 441 
Q 2309 441 2620 675 
Q 2931 909 2931 1356 
Q 2931 1769 2642 2001 
Q 2353 2234 1838 2234 
L 1294 2234 
L 1294 2753 
L 1863 2753 
Q 2328 2753 2575 2939 
Q 2822 3125 2822 3475 
Q 2822 3834 2567 4026 
Q 2313 4219 1838 4219 
Q 1578 4219 1281 4162 
Q 984 4106 628 3988 
L 628 4550 
Q 988 4650 1302 4700 
Q 1616 4750 1894 4750 
Q 2613 4750 3031 4423 
Q 3450 4097 3450 3541 
Q 3450 3153 3228 2886 
Q 3006 2619 2597 2516 
z
" transform="scale(0.015625)"/>
     </defs>
     <use xlink:href="#DejaVuSans-16"/>
    </g>
   </g>
  </g>
  <g id="text_7">
   <!-- I3  /  Garden principal -->
   <g style="fill: #203e3a" transform="translate(12.636 -84.38079) scale(0.24 -0.24)">
    <defs>
     <path id="DejaVuSans-Bold-2c" d="M 588 4666 
L 1791 4666 
L 1791 0 
L 588 0 
L 588 4666 
z
" transform="scale(0.015625)"/>
     <path id="DejaVuSans-Bold-16" d="M 2981 2516 
Q 3453 2394 3698 2092 
Q 3944 1791 3944 1325 
Q 3944 631 3412 270 
Q 2881 -91 1863 -91 
Q 1503 -91 1142 -33 
Q 781 25 428 141 
L 428 1069 
Q 766 900 1098 814 
Q 1431 728 1753 728 
Q 2231 728 2486 893 
Q 2741 1059 2741 1369 
Q 2741 1688 2480 1852 
Q 2219 2016 1709 2016 
L 1228 2016 
L 1228 2791 
L 1734 2791 
Q 2188 2791 2409 2933 
Q 2631 3075 2631 3366 
Q 2631 3634 2415 3781 
Q 2200 3928 1806 3928 
Q 1516 3928 1219 3862 
Q 922 3797 628 3669 
L 628 4550 
Q 984 4650 1334 4700 
Q 1684 4750 2022 4750 
Q 2931 4750 3382 4451 
Q 3834 4153 3834 3553 
Q 3834 3144 3618 2883 
Q 3403 2622 2981 2516 
z
" transform="scale(0.015625)"/>
     <path id="DejaVuSans-Bold-3" transform="scale(0.015625)"/>
     <path id="DejaVuSans-Bold-12" d="M 1644 4666 
L 2338 4666 
L 691 -594 
L 0 -594 
L 1644 4666 
z
" transform="scale(0.015625)"/>
     <path id="DejaVuSans-Bold-2a" d="M 4781 347 
Q 4331 128 3847 18 
Q 3363 -91 2847 -91 
Q 1681 -91 1000 561 
Q 319 1213 319 2328 
Q 319 3456 1012 4103 
Q 1706 4750 2913 4750 
Q 3378 4750 3804 4662 
Q 4231 4575 4609 4403 
L 4609 3438 
Q 4219 3659 3833 3768 
Q 3447 3878 3059 3878 
Q 2341 3878 1952 3476 
Q 1563 3075 1563 2328 
Q 1563 1588 1938 1184 
Q 2313 781 3003 781 
Q 3191 781 3352 804 
Q 3513 828 3641 878 
L 3641 1784 
L 2906 1784 
L 2906 2591 
L 4781 2591 
L 4781 347 
z
" transform="scale(0.015625)"/>
     <path id="DejaVuSans-Bold-44" d="M 2106 1575 
Q 1756 1575 1579 1456 
Q 1403 1338 1403 1106 
Q 1403 894 1545 773 
Q 1688 653 1941 653 
Q 2256 653 2472 879 
Q 2688 1106 2688 1447 
L 2688 1575 
L 2106 1575 
z
M 3816 1997 
L 3816 0 
L 2688 0 
L 2688 519 
Q 2463 200 2181 54 
Q 1900 -91 1497 -91 
Q 953 -91 614 226 
Q 275 544 275 1050 
Q 275 1666 698 1953 
Q 1122 2241 2028 2241 
L 2688 2241 
L 2688 2328 
Q 2688 2594 2478 2717 
Q 2269 2841 1825 2841 
Q 1466 2841 1156 2769 
Q 847 2697 581 2553 
L 581 3406 
Q 941 3494 1303 3539 
Q 1666 3584 2028 3584 
Q 2975 3584 3395 3211 
Q 3816 2838 3816 1997 
z
" transform="scale(0.015625)"/>
     <path id="DejaVuSans-Bold-55" d="M 3138 2547 
Q 2991 2616 2845 2648 
Q 2700 2681 2553 2681 
Q 2122 2681 1889 2404 
Q 1656 2128 1656 1613 
L 1656 0 
L 538 0 
L 538 3500 
L 1656 3500 
L 1656 2925 
Q 1872 3269 2151 3426 
Q 2431 3584 2822 3584 
Q 2878 3584 2943 3579 
Q 3009 3575 3134 3559 
L 3138 2547 
z
" transform="scale(0.015625)"/>
     <path id="DejaVuSans-Bold-47" d="M 2919 2988 
L 2919 4863 
L 4044 4863 
L 4044 0 
L 2919 0 
L 2919 506 
Q 2688 197 2409 53 
Q 2131 -91 1766 -91 
Q 1119 -91 703 423 
Q 288 938 288 1747 
Q 288 2556 703 3070 
Q 1119 3584 1766 3584 
Q 2128 3584 2408 3439 
Q 2688 3294 2919 2988 
z
M 2181 722 
Q 2541 722 2730 984 
Q 2919 1247 2919 1747 
Q 2919 2247 2730 2509 
Q 2541 2772 2181 2772 
Q 1825 2772 1636 2509 
Q 1447 2247 1447 1747 
Q 1447 1247 1636 984 
Q 1825 722 2181 722 
z
" transform="scale(0.015625)"/>
     <path id="DejaVuSans-Bold-48" d="M 4031 1759 
L 4031 1441 
L 1416 1441 
Q 1456 1047 1700 850 
Q 1944 653 2381 653 
Q 2734 653 3104 758 
Q 3475 863 3866 1075 
L 3866 213 
Q 3469 63 3072 -14 
Q 2675 -91 2278 -91 
Q 1328 -91 801 392 
Q 275 875 275 1747 
Q 275 2603 792 3093 
Q 1309 3584 2216 3584 
Q 3041 3584 3536 3087 
Q 4031 2591 4031 1759 
z
M 2881 2131 
Q 2881 2450 2695 2645 
Q 2509 2841 2209 2841 
Q 1884 2841 1681 2658 
Q 1478 2475 1428 2131 
L 2881 2131 
z
" transform="scale(0.015625)"/>
     <path id="DejaVuSans-Bold-51" d="M 4056 2131 
L 4056 0 
L 2931 0 
L 2931 347 
L 2931 1631 
Q 2931 2084 2911 2256 
Q 2891 2428 2841 2509 
Q 2775 2619 2662 2680 
Q 2550 2741 2406 2741 
Q 2056 2741 1856 2470 
Q 1656 2200 1656 1722 
L 1656 0 
L 538 0 
L 538 3500 
L 1656 3500 
L 1656 2988 
Q 1909 3294 2193 3439 
Q 2478 3584 2822 3584 
Q 3428 3584 3742 3212 
Q 4056 2841 4056 2131 
z
" transform="scale(0.015625)"/>
     <path id="DejaVuSans-Bold-53" d="M 1656 506 
L 1656 -1331 
L 538 -1331 
L 538 3500 
L 1656 3500 
L 1656 2988 
Q 1888 3294 2169 3439 
Q 2450 3584 2816 3584 
Q 3463 3584 3878 3070 
Q 4294 2556 4294 1747 
Q 4294 938 3878 423 
Q 3463 -91 2816 -91 
Q 2450 -91 2169 54 
Q 1888 200 1656 506 
z
M 2400 2772 
Q 2041 2772 1848 2508 
Q 1656 2244 1656 1747 
Q 1656 1250 1848 986 
Q 2041 722 2400 722 
Q 2759 722 2948 984 
Q 3138 1247 3138 1747 
Q 3138 2247 2948 2509 
Q 2759 2772 2400 2772 
z
" transform="scale(0.015625)"/>
     <path id="DejaVuSans-Bold-4c" d="M 538 3500 
L 1656 3500 
L 1656 0 
L 538 0 
L 538 3500 
z
M 538 4863 
L 1656 4863 
L 1656 3950 
L 538 3950 
L 538 4863 
z
" transform="scale(0.015625)"/>
     <path id="DejaVuSans-Bold-46" d="M 3366 3391 
L 3366 2478 
Q 3138 2634 2908 2709 
Q 2678 2784 2431 2784 
Q 1963 2784 1702 2511 
Q 1441 2238 1441 1747 
Q 1441 1256 1702 982 
Q 1963 709 2431 709 
Q 2694 709 2930 787 
Q 3166 866 3366 1019 
L 3366 103 
Q 3103 6 2833 -42 
Q 2563 -91 2291 -91 
Q 1344 -91 809 395 
Q 275 881 275 1747 
Q 275 2613 809 3098 
Q 1344 3584 2291 3584 
Q 2566 3584 2833 3536 
Q 3100 3488 3366 3391 
z
" transform="scale(0.015625)"/>
     <path id="DejaVuSans-Bold-4f" d="M 538 4863 
L 1656 4863 
L 1656 0 
L 538 0 
L 538 4863 
z
" transform="scale(0.015625)"/>
    </defs>
    <use xlink:href="#DejaVuSans-Bold-2c"/>
    <use xlink:href="#DejaVuSans-Bold-16" transform="translate(37.203125 0)"/>
    <use xlink:href="#DejaVuSans-Bold-3" transform="translate(106.78125 0)"/>
    <use xlink:href="#DejaVuSans-Bold-3" transform="translate(141.59375 0)"/>
    <use xlink:href="#DejaVuSans-Bold-12" transform="translate(176.40625 0)"/>
    <use xlink:href="#DejaVuSans-Bold-3" transform="translate(212.9375 0)"/>
    <use xlink:href="#DejaVuSans-Bold-3" transform="translate(247.75 0)"/>
    <use xlink:href="#DejaVuSans-Bold-2a" transform="translate(282.5625 0)"/>
    <use xlink:href="#DejaVuSans-Bold-44" transform="translate(364.640625 0)"/>
    <use xlink:href="#DejaVuSans-Bold-55" transform="translate(432.125 0)"/>
    <use xlink:href="#DejaVuSans-Bold-47" transform="translate(481.4375 0)"/>
    <use xlink:href="#DejaVuSans-Bold-48" transform="translate(553.015625 0)"/>
    <use xlink:href="#DejaVuSans-Bold-51" transform="translate(620.84375 0)"/>
    <use xlink:href="#DejaVuSans-Bold-3" transform="translate(692.03125 0)"/>
    <use xlink:href="#DejaVuSans-Bold-53" transform="translate(726.84375 0)"/>
    <use xlink:href="#DejaVuSans-Bold-55" transform="translate(798.421875 0)"/>
    <use xlink:href="#DejaVuSans-Bold-4c" transform="translate(847.734375 0)"/>
    <use xlink:href="#DejaVuSans-Bold-51" transform="translate(882.015625 0)"/>
    <use xlink:href="#DejaVuSans-Bold-46" transform="translate(953.203125 0)"/>
    <use xlink:href="#DejaVuSans-Bold-4c" transform="translate(1012.484375 0)"/>
    <use xlink:href="#DejaVuSans-Bold-53" transform="translate(1046.765625 0)"/>
    <use xlink:href="#DejaVuSans-Bold-44" transform="translate(1118.34375 0)"/>
    <use xlink:href="#DejaVuSans-Bold-4f" transform="translate(1185.828125 0)"/>
   </g>
  </g>
  <g id="text_8">
   <!-- Cellar · Internal layout · Concept design -->
   <g style="fill: #637870" transform="translate(12.636 -45.17679) scale(0.12 -0.12)">
    <defs>
     <path id="DejaVuSans-26" d="M 4122 4306 
L 4122 3641 
Q 3803 3938 3442 4084 
Q 3081 4231 2675 4231 
Q 1875 4231 1450 3742 
Q 1025 3253 1025 2328 
Q 1025 1406 1450 917 
Q 1875 428 2675 428 
Q 3081 428 3442 575 
Q 3803 722 4122 1019 
L 4122 359 
Q 3791 134 3420 21 
Q 3050 -91 2638 -91 
Q 1578 -91 968 557 
Q 359 1206 359 2328 
Q 359 3453 968 4101 
Q 1578 4750 2638 4750 
Q 3056 4750 3426 4639 
Q 3797 4528 4122 4306 
z
" transform="scale(0.015625)"/>
     <path id="DejaVuSans-79" d="M 684 2619 
L 1344 2619 
L 1344 1825 
L 684 1825 
L 684 2619 
z
" transform="scale(0.015625)"/>
     <path id="DejaVuSans-2c" d="M 628 4666 
L 1259 4666 
L 1259 0 
L 628 0 
L 628 4666 
z
" transform="scale(0.015625)"/>
     <path id="DejaVuSans-5c" d="M 2059 -325 
Q 1816 -950 1584 -1140 
Q 1353 -1331 966 -1331 
L 506 -1331 
L 506 -850 
L 844 -850 
Q 1081 -850 1212 -737 
Q 1344 -625 1503 -206 
L 1606 56 
L 191 3500 
L 800 3500 
L 1894 763 
L 2988 3500 
L 3597 3500 
L 2059 -325 
z
" transform="scale(0.015625)"/>
     <path id="DejaVuSans-58" d="M 544 1381 
L 544 3500 
L 1119 3500 
L 1119 1403 
Q 1119 906 1312 657 
Q 1506 409 1894 409 
Q 2359 409 2629 706 
Q 2900 1003 2900 1516 
L 2900 3500 
L 3475 3500 
L 3475 0 
L 2900 0 
L 2900 538 
Q 2691 219 2414 64 
Q 2138 -91 1772 -91 
Q 1169 -91 856 284 
Q 544 659 544 1381 
z
M 1991 3584 
L 1991 3584 
z
" transform="scale(0.015625)"/>
    </defs>
    <use xlink:href="#DejaVuSans-26"/>
    <use xlink:href="#DejaVuSans-48" transform="translate(69.828125 0)"/>
    <use xlink:href="#DejaVuSans-4f" transform="translate(131.359375 0)"/>
    <use xlink:href="#DejaVuSans-4f" transform="translate(159.140625 0)"/>
    <use xlink:href="#DejaVuSans-44" transform="translate(186.921875 0)"/>
    <use xlink:href="#DejaVuSans-55" transform="translate(248.203125 0)"/>
    <use xlink:href="#DejaVuSans-3" transform="translate(289.3125 0)"/>
    <use xlink:href="#DejaVuSans-79" transform="translate(321.09375 0)"/>
    <use xlink:href="#DejaVuSans-3" transform="translate(352.875 0)"/>
    <use xlink:href="#DejaVuSans-2c" transform="translate(384.65625 0)"/>
    <use xlink:href="#DejaVuSans-51" transform="translate(414.15625 0)"/>
    <use xlink:href="#DejaVuSans-57" transform="translate(477.53125 0)"/>
    <use xlink:href="#DejaVuSans-48" transform="translate(516.734375 0)"/>
    <use xlink:href="#DejaVuSans-55" transform="translate(578.265625 0)"/>
    <use xlink:href="#DejaVuSans-51" transform="translate(617.625 0)"/>
    <use xlink:href="#DejaVuSans-44" transform="translate(681 0)"/>
    <use xlink:href="#DejaVuSans-4f" transform="translate(742.28125 0)"/>
    <use xlink:href="#DejaVuSans-3" transform="translate(770.0625 0)"/>
    <use xlink:href="#DejaVuSans-4f" transform="translate(801.84375 0)"/>
    <use xlink:href="#DejaVuSans-44" transform="translate(829.625 0)"/>
    <use xlink:href="#DejaVuSans-5c" transform="translate(890.90625 0)"/>
    <use xlink:href="#DejaVuSans-52" transform="translate(950.09375 0)"/>
    <use xlink:href="#DejaVuSans-58" transform="translate(1011.28125 0)"/>
    <use xlink:href="#DejaVuSans-57" transform="translate(1074.65625 0)"/>
    <use xlink:href="#DejaVuSans-3" transform="translate(1113.859375 0)"/>
    <use xlink:href="#DejaVuSans-79" transform="translate(1145.640625 0)"/>
    <use xlink:href="#DejaVuSans-3" transform="translate(1177.421875 0)"/>
    <use xlink:href="#DejaVuSans-26" transform="translate(1209.203125 0)"/>
    <use xlink:href="#DejaVuSans-52" transform="translate(1279.03125 0)"/>
    <use xlink:href="#DejaVuSans-51" transform="translate(1340.21875 0)"/>
    <use xlink:href="#DejaVuSans-46" transform="translate(1403.59375 0)"/>
    <use xlink:href="#DejaVuSans-48" transform="translate(1458.578125 0)"/>
    <use xlink:href="#DejaVuSans-53" transform="translate(1520.109375 0)"/>
    <use xlink:href="#DejaVuSans-57" transform="translate(1583.59375 0)"/>
    <use xlink:href="#DejaVuSans-3" transform="translate(1622.796875 0)"/>
    <use xlink:href="#DejaVuSans-47" transform="translate(1654.578125 0)"/>
    <use xlink:href="#DejaVuSans-48" transform="translate(1718.0625 0)"/>
    <use xlink:href="#DejaVuSans-56" transform="translate(1779.59375 0)"/>
    <use xlink:href="#DejaVuSans-4c" transform="translate(1831.6875 0)"/>
    <use xlink:href="#DejaVuSans-4a" transform="translate(1859.46875 0)"/>
    <use xlink:href="#DejaVuSans-51" transform="translate(1922.953125 0)"/>
   </g>
  </g>
  <g id="text_9">
   <!-- ROOMS -->
   <g style="fill: #203e3a" transform="translate(636.012 16.59921) scale(0.1 -0.1)">
    <defs>
     <path id="DejaVuSans-Bold-35" d="M 2297 2597 
Q 2675 2597 2839 2737 
Q 3003 2878 3003 3200 
Q 3003 3519 2839 3656 
Q 2675 3794 2297 3794 
L 1791 3794 
L 1791 2597 
L 2297 2597 
z
M 1791 1766 
L 1791 0 
L 588 0 
L 588 4666 
L 2425 4666 
Q 3347 4666 3776 4356 
Q 4206 4047 4206 3378 
Q 4206 2916 3982 2619 
Q 3759 2322 3309 2181 
Q 3556 2125 3751 1926 
Q 3947 1728 4147 1325 
L 4800 0 
L 3519 0 
L 2950 1159 
Q 2778 1509 2601 1637 
Q 2425 1766 2131 1766 
L 1791 1766 
z
" transform="scale(0.015625)"/>
     <path id="DejaVuSans-Bold-32" d="M 2719 3878 
Q 2169 3878 1866 3472 
Q 1563 3066 1563 2328 
Q 1563 1594 1866 1187 
Q 2169 781 2719 781 
Q 3272 781 3575 1187 
Q 3878 1594 3878 2328 
Q 3878 3066 3575 3472 
Q 3272 3878 2719 3878 
z
M 2719 4750 
Q 3844 4750 4481 4106 
Q 5119 3463 5119 2328 
Q 5119 1197 4481 553 
Q 3844 -91 2719 -91 
Q 1597 -91 958 553 
Q 319 1197 319 2328 
Q 319 3463 958 4106 
Q 1597 4750 2719 4750 
z
" transform="scale(0.015625)"/>
     <path id="DejaVuSans-Bold-30" d="M 588 4666 
L 2119 4666 
L 3181 2169 
L 4250 4666 
L 5778 4666 
L 5778 0 
L 4641 0 
L 4641 3413 
L 3566 897 
L 2803 897 
L 1728 3413 
L 1728 0 
L 588 0 
L 588 4666 
z
" transform="scale(0.015625)"/>
     <path id="DejaVuSans-Bold-36" d="M 3834 4519 
L 3834 3531 
Q 3450 3703 3084 3790 
Q 2719 3878 2394 3878 
Q 1963 3878 1756 3759 
Q 1550 3641 1550 3391 
Q 1550 3203 1689 3098 
Q 1828 2994 2194 2919 
L 2706 2816 
Q 3484 2659 3812 2340 
Q 4141 2022 4141 1434 
Q 4141 663 3683 286 
Q 3225 -91 2284 -91 
Q 1841 -91 1394 -6 
Q 947 78 500 244 
L 500 1259 
Q 947 1022 1364 901 
Q 1781 781 2169 781 
Q 2563 781 2772 912 
Q 2981 1044 2981 1288 
Q 2981 1506 2839 1625 
Q 2697 1744 2272 1838 
L 1806 1941 
Q 1106 2091 782 2419 
Q 459 2747 459 3303 
Q 459 4000 909 4375 
Q 1359 4750 2203 4750 
Q 2588 4750 2994 4692 
Q 3400 4634 3834 4519 
z
" transform="scale(0.015625)"/>
    </defs>
    <use xlink:href="#DejaVuSans-Bold-35"/>
    <use xlink:href="#DejaVuSans-Bold-32" transform="translate(77 0)"/>
    <use xlink:href="#DejaVuSans-Bold-32" transform="translate(162.015625 0)"/>
    <use xlink:href="#DejaVuSans-Bold-30" transform="translate(247.03125 0)"/>
    <use xlink:href="#DejaVuSans-Bold-36" transform="translate(346.546875 0)"/>
   </g>
  </g>
  <g id="text_10">
   <!-- 01  Basement bar and -->
   <g style="fill: #203e3a" transform="translate(636.012 55.759678) scale(0.071 -0.071)">
    <defs>
     <path id="DejaVuSans-13" d="M 2034 4250 
Q 1547 4250 1301 3770 
Q 1056 3291 1056 2328 
Q 1056 1369 1301 889 
Q 1547 409 2034 409 
Q 2525 409 2770 889 
Q 3016 1369 3016 2328 
Q 3016 3291 2770 3770 
Q 2525 4250 2034 4250 
z
M 2034 4750 
Q 2819 4750 3233 4129 
Q 3647 3509 3647 2328 
Q 3647 1150 3233 529 
Q 2819 -91 2034 -91 
Q 1250 -91 836 529 
Q 422 1150 422 2328 
Q 422 3509 836 4129 
Q 1250 4750 2034 4750 
z
" transform="scale(0.015625)"/>
    </defs>
    <use xlink:href="#DejaVuSans-13"/>
    <use xlink:href="#DejaVuSans-14" transform="translate(63.625 0)"/>
    <use xlink:href="#DejaVuSans-3" transform="translate(127.25 0)"/>
    <use xlink:href="#DejaVuSans-3" transform="translate(159.03125 0)"/>
    <use xlink:href="#DejaVuSans-25" transform="translate(190.8125 0)"/>
    <use xlink:href="#DejaVuSans-44" transform="translate(259.421875 0)"/>
    <use xlink:href="#DejaVuSans-56" transform="translate(320.703125 0)"/>
    <use xlink:href="#DejaVuSans-48" transform="translate(372.796875 0)"/>
    <use xlink:href="#DejaVuSans-50" transform="translate(434.328125 0)"/>
    <use xlink:href="#DejaVuSans-48" transform="translate(531.734375 0)"/>
    <use xlink:href="#DejaVuSans-51" transform="translate(593.265625 0)"/>
    <use xlink:href="#DejaVuSans-57" transform="translate(656.640625 0)"/>
    <use xlink:href="#DejaVuSans-3" transform="translate(695.84375 0)"/>
    <use xlink:href="#DejaVuSans-45" transform="translate(727.625 0)"/>
    <use xlink:href="#DejaVuSans-44" transform="translate(791.109375 0)"/>
    <use xlink:href="#DejaVuSans-55" transform="translate(852.390625 0)"/>
    <use xlink:href="#DejaVuSans-3" transform="translate(893.5 0)"/>
    <use xlink:href="#DejaVuSans-44" transform="translate(925.28125 0)"/>
    <use xlink:href="#DejaVuSans-51" transform="translate(986.5625 0)"/>
    <use xlink:href="#DejaVuSans-47" transform="translate(1049.9375 0)"/>
   </g>
   <!--      games room -->
   <g style="fill: #203e3a" transform="translate(636.012 63.237421) scale(0.071 -0.071)">
    <use xlink:href="#DejaVuSans-3"/>
    <use xlink:href="#DejaVuSans-3" transform="translate(31.78125 0)"/>
    <use xlink:href="#DejaVuSans-3" transform="translate(63.5625 0)"/>
    <use xlink:href="#DejaVuSans-3" transform="translate(95.34375 0)"/>
    <use xlink:href="#DejaVuSans-3" transform="translate(127.125 0)"/>
    <use xlink:href="#DejaVuSans-4a" transform="translate(158.90625 0)"/>
    <use xlink:href="#DejaVuSans-44" transform="translate(222.390625 0)"/>
    <use xlink:href="#DejaVuSans-50" transform="translate(283.671875 0)"/>
    <use xlink:href="#DejaVuSans-48" transform="translate(381.078125 0)"/>
    <use xlink:href="#DejaVuSans-56" transform="translate(442.609375 0)"/>
    <use xlink:href="#DejaVuSans-3" transform="translate(494.703125 0)"/>
    <use xlink:href="#DejaVuSans-55" transform="translate(526.484375 0)"/>
    <use xlink:href="#DejaVuSans-52" transform="translate(565.390625 0)"/>
    <use xlink:href="#DejaVuSans-52" transform="translate(626.578125 0)"/>
    <use xlink:href="#DejaVuSans-50" transform="translate(687.765625 0)"/>
   </g>
   <!--      71.6 m² -->
   <g style="fill: #203e3a" transform="translate(636.012 73.446999) scale(0.071 -0.071)">
    <defs>
     <path id="DejaVuSans-1a" d="M 525 4666 
L 3525 4666 
L 3525 4397 
L 1831 0 
L 1172 0 
L 2766 4134 
L 525 4134 
L 525 4666 
z
" transform="scale(0.015625)"/>
     <path id="DejaVuSans-19" d="M 2113 2584 
Q 1688 2584 1439 2293 
Q 1191 2003 1191 1497 
Q 1191 994 1439 701 
Q 1688 409 2113 409 
Q 2538 409 2786 701 
Q 3034 994 3034 1497 
Q 3034 2003 2786 2293 
Q 2538 2584 2113 2584 
z
M 3366 4563 
L 3366 3988 
Q 3128 4100 2886 4159 
Q 2644 4219 2406 4219 
Q 1781 4219 1451 3797 
Q 1122 3375 1075 2522 
Q 1259 2794 1537 2939 
Q 1816 3084 2150 3084 
Q 2853 3084 3261 2657 
Q 3669 2231 3669 1497 
Q 3669 778 3244 343 
Q 2819 -91 2113 -91 
Q 1303 -91 875 529 
Q 447 1150 447 2328 
Q 447 3434 972 4092 
Q 1497 4750 2381 4750 
Q 2619 4750 2861 4703 
Q 3103 4656 3366 4563 
z
" transform="scale(0.015625)"/>
     <path id="DejaVuSans-74" d="M 838 2444 
L 2163 2444 
L 2163 2088 
L 294 2088 
L 294 2431 
Q 400 2528 597 2703 
Q 1672 3656 1672 3950 
Q 1672 4156 1509 4282 
Q 1347 4409 1081 4409 
Q 919 4409 728 4354 
Q 538 4300 313 4191 
L 313 4575 
Q 553 4663 761 4706 
Q 969 4750 1147 4750 
Q 1600 4750 1872 4544 
Q 2144 4338 2144 4000 
Q 2144 3566 1109 2678 
Q 934 2528 838 2444 
z
" transform="scale(0.015625)"/>
    </defs>
    <use xlink:href="#DejaVuSans-3"/>
    <use xlink:href="#DejaVuSans-3" transform="translate(31.78125 0)"/>
    <use xlink:href="#DejaVuSans-3" transform="translate(63.5625 0)"/>
    <use xlink:href="#DejaVuSans-3" transform="translate(95.34375 0)"/>
    <use xlink:href="#DejaVuSans-3" transform="translate(127.125 0)"/>
    <use xlink:href="#DejaVuSans-1a" transform="translate(158.90625 0)"/>
    <use xlink:href="#DejaVuSans-14" transform="translate(222.53125 0)"/>
    <use xlink:href="#DejaVuSans-11" transform="translate(286.15625 0)"/>
    <use xlink:href="#DejaVuSans-19" transform="translate(317.9375 0)"/>
    <use xlink:href="#DejaVuSans-3" transform="translate(381.5625 0)"/>
    <use xlink:href="#DejaVuSans-50" transform="translate(413.34375 0)"/>
    <use xlink:href="#DejaVuSans-74" transform="translate(510.75 0)"/>
   </g>
  </g>
  <g id="text_11">
   <!-- 02  Basement cinema -->
   <g style="fill: #203e3a" transform="translate(636.012 108.031678) scale(0.071 -0.071)">
    <use xlink:href="#DejaVuSans-13"/>
    <use xlink:href="#DejaVuSans-15" transform="translate(63.625 0)"/>
    <use xlink:href="#DejaVuSans-3" transform="translate(127.25 0)"/>
    <use xlink:href="#DejaVuSans-3" transform="translate(159.03125 0)"/>
    <use xlink:href="#DejaVuSans-25" transform="translate(190.8125 0)"/>
    <use xlink:href="#DejaVuSans-44" transform="translate(259.421875 0)"/>
    <use xlink:href="#DejaVuSans-56" transform="translate(320.703125 0)"/>
    <use xlink:href="#DejaVuSans-48" transform="translate(372.796875 0)"/>
    <use xlink:href="#DejaVuSans-50" transform="translate(434.328125 0)"/>
    <use xlink:href="#DejaVuSans-48" transform="translate(531.734375 0)"/>
    <use xlink:href="#DejaVuSans-51" transform="translate(593.265625 0)"/>
    <use xlink:href="#DejaVuSans-57" transform="translate(656.640625 0)"/>
    <use xlink:href="#DejaVuSans-3" transform="translate(695.84375 0)"/>
    <use xlink:href="#DejaVuSans-46" transform="translate(727.625 0)"/>
    <use xlink:href="#DejaVuSans-4c" transform="translate(782.609375 0)"/>
    <use xlink:href="#DejaVuSans-51" transform="translate(810.390625 0)"/>
    <use xlink:href="#DejaVuSans-48" transform="translate(873.765625 0)"/>
    <use xlink:href="#DejaVuSans-50" transform="translate(935.296875 0)"/>
    <use xlink:href="#DejaVuSans-44" transform="translate(1032.703125 0)"/>
   </g>
   <!--      20.3 m² -->
   <g style="fill: #203e3a" transform="translate(636.012 116.843999) scale(0.071 -0.071)">
    <use xlink:href="#DejaVuSans-3"/>
    <use xlink:href="#DejaVuSans-3" transform="translate(31.78125 0)"/>
    <use xlink:href="#DejaVuSans-3" transform="translate(63.5625 0)"/>
    <use xlink:href="#DejaVuSans-3" transform="translate(95.34375 0)"/>
    <use xlink:href="#DejaVuSans-3" transform="translate(127.125 0)"/>
    <use xlink:href="#DejaVuSans-15" transform="translate(158.90625 0)"/>
    <use xlink:href="#DejaVuSans-13" transform="translate(222.53125 0)"/>
    <use xlink:href="#DejaVuSans-11" transform="translate(286.15625 0)"/>
    <use xlink:href="#DejaVuSans-16" transform="translate(317.9375 0)"/>
    <use xlink:href="#DejaVuSans-3" transform="translate(381.5625 0)"/>
    <use xlink:href="#DejaVuSans-50" transform="translate(413.34375 0)"/>
    <use xlink:href="#DejaVuSans-74" transform="translate(510.75 0)"/>
   </g>
  </g>
  <g id="text_12">
   <!-- 03  Basement stair -->
   <g style="fill: #203e3a" transform="translate(636.012 147.235678) scale(0.071 -0.071)">
    <use xlink:href="#DejaVuSans-13"/>
    <use xlink:href="#DejaVuSans-16" transform="translate(63.625 0)"/>
    <use xlink:href="#DejaVuSans-3" transform="translate(127.25 0)"/>
    <use xlink:href="#DejaVuSans-3" transform="translate(159.03125 0)"/>
    <use xlink:href="#DejaVuSans-25" transform="translate(190.8125 0)"/>
    <use xlink:href="#DejaVuSans-44" transform="translate(259.421875 0)"/>
    <use xlink:href="#DejaVuSans-56" transform="translate(320.703125 0)"/>
    <use xlink:href="#DejaVuSans-48" transform="translate(372.796875 0)"/>
    <use xlink:href="#DejaVuSans-50" transform="translate(434.328125 0)"/>
    <use xlink:href="#DejaVuSans-48" transform="translate(531.734375 0)"/>
    <use xlink:href="#DejaVuSans-51" transform="translate(593.265625 0)"/>
    <use xlink:href="#DejaVuSans-57" transform="translate(656.640625 0)"/>
    <use xlink:href="#DejaVuSans-3" transform="translate(695.84375 0)"/>
    <use xlink:href="#DejaVuSans-56" transform="translate(727.625 0)"/>
    <use xlink:href="#DejaVuSans-57" transform="translate(779.71875 0)"/>
    <use xlink:href="#DejaVuSans-44" transform="translate(818.921875 0)"/>
    <use xlink:href="#DejaVuSans-4c" transform="translate(880.203125 0)"/>
    <use xlink:href="#DejaVuSans-55" transform="translate(907.984375 0)"/>
   </g>
   <!--      landing -->
   <g style="fill: #203e3a" transform="translate(636.012 155.422866) scale(0.071 -0.071)">
    <use xlink:href="#DejaVuSans-3"/>
    <use xlink:href="#DejaVuSans-3" transform="translate(31.78125 0)"/>
    <use xlink:href="#DejaVuSans-3" transform="translate(63.5625 0)"/>
    <use xlink:href="#DejaVuSans-3" transform="translate(95.34375 0)"/>
    <use xlink:href="#DejaVuSans-3" transform="translate(127.125 0)"/>
    <use xlink:href="#DejaVuSans-4f" transform="translate(158.90625 0)"/>
    <use xlink:href="#DejaVuSans-44" transform="translate(186.6875 0)"/>
    <use xlink:href="#DejaVuSans-51" transform="translate(247.96875 0)"/>
    <use xlink:href="#DejaVuSans-47" transform="translate(311.34375 0)"/>
    <use xlink:href="#DejaVuSans-4c" transform="translate(374.828125 0)"/>
    <use xlink:href="#DejaVuSans-51" transform="translate(402.609375 0)"/>
    <use xlink:href="#DejaVuSans-4a" transform="translate(465.984375 0)"/>
   </g>
   <!--      0.9 m² -->
   <g style="fill: #203e3a" transform="translate(636.012 164.922999) scale(0.071 -0.071)">
    <use xlink:href="#DejaVuSans-3"/>
    <use xlink:href="#DejaVuSans-3" transform="translate(31.78125 0)"/>
    <use xlink:href="#DejaVuSans-3" transform="translate(63.5625 0)"/>
    <use xlink:href="#DejaVuSans-3" transform="translate(95.34375 0)"/>
    <use xlink:href="#DejaVuSans-3" transform="translate(127.125 0)"/>
    <use xlink:href="#DejaVuSans-13" transform="translate(158.90625 0)"/>
    <use xlink:href="#DejaVuSans-11" transform="translate(222.53125 0)"/>
    <use xlink:href="#DejaVuSans-1c" transform="translate(254.3125 0)"/>
    <use xlink:href="#DejaVuSans-3" transform="translate(317.9375 0)"/>
    <use xlink:href="#DejaVuSans-50" transform="translate(349.71875 0)"/>
    <use xlink:href="#DejaVuSans-74" transform="translate(447.125 0)"/>
   </g>
  </g>
  <g id="text_13">
   <!-- Grey  Retained   |   Green  Current proposal   |   Sand  This option -->
   <g style="fill: #203e3a" transform="translate(12.636 925.41921) scale(0.09 -0.09)">
    <defs>
     <path id="DejaVuSans-2a" d="M 3809 666 
L 3809 1919 
L 2778 1919 
L 2778 2438 
L 4434 2438 
L 4434 434 
Q 4069 175 3628 42 
Q 3188 -91 2688 -91 
Q 1594 -91 976 548 
Q 359 1188 359 2328 
Q 359 3472 976 4111 
Q 1594 4750 2688 4750 
Q 3144 4750 3555 4637 
Q 3966 4525 4313 4306 
L 4313 3634 
Q 3963 3931 3569 4081 
Q 3175 4231 2741 4231 
Q 1884 4231 1454 3753 
Q 1025 3275 1025 2328 
Q 1025 1384 1454 906 
Q 1884 428 2741 428 
Q 3075 428 3337 486 
Q 3600 544 3809 666 
z
" transform="scale(0.015625)"/>
     <path id="DejaVuSans-35" d="M 2841 2188 
Q 3044 2119 3236 1894 
Q 3428 1669 3622 1275 
L 4263 0 
L 3584 0 
L 2988 1197 
Q 2756 1666 2539 1819 
Q 2322 1972 1947 1972 
L 1259 1972 
L 1259 0 
L 628 0 
L 628 4666 
L 2053 4666 
Q 2853 4666 3247 4331 
Q 3641 3997 3641 3322 
Q 3641 2881 3436 2590 
Q 3231 2300 2841 2188 
z
M 1259 4147 
L 1259 2491 
L 2053 2491 
Q 2509 2491 2742 2702 
Q 2975 2913 2975 3322 
Q 2975 3731 2742 3939 
Q 2509 4147 2053 4147 
L 1259 4147 
z
" transform="scale(0.015625)"/>
     <path id="DejaVuSans-5f" d="M 1344 4891 
L 1344 -1509 
L 813 -1509 
L 813 4891 
L 1344 4891 
z
" transform="scale(0.015625)"/>
     <path id="DejaVuSans-36" d="M 3425 4513 
L 3425 3897 
Q 3066 4069 2747 4153 
Q 2428 4238 2131 4238 
Q 1616 4238 1336 4038 
Q 1056 3838 1056 3469 
Q 1056 3159 1242 3001 
Q 1428 2844 1947 2747 
L 2328 2669 
Q 3034 2534 3370 2195 
Q 3706 1856 3706 1288 
Q 3706 609 3251 259 
Q 2797 -91 1919 -91 
Q 1588 -91 1214 -16 
Q 841 59 441 206 
L 441 856 
Q 825 641 1194 531 
Q 1563 422 1919 422 
Q 2459 422 2753 634 
Q 3047 847 3047 1241 
Q 3047 1584 2836 1778 
Q 2625 1972 2144 2069 
L 1759 2144 
Q 1053 2284 737 2584 
Q 422 2884 422 3419 
Q 422 4038 858 4394 
Q 1294 4750 2059 4750 
Q 2388 4750 2728 4690 
Q 3069 4631 3425 4513 
z
" transform="scale(0.015625)"/>
     <path id="DejaVuSans-37" d="M -19 4666 
L 3928 4666 
L 3928 4134 
L 2272 4134 
L 2272 0 
L 1638 0 
L 1638 4134 
L -19 4134 
L -19 4666 
z
" transform="scale(0.015625)"/>
     <path id="DejaVuSans-4b" d="M 3513 2113 
L 3513 0 
L 2938 0 
L 2938 2094 
Q 2938 2591 2744 2837 
Q 2550 3084 2163 3084 
Q 1697 3084 1428 2787 
Q 1159 2491 1159 1978 
L 1159 0 
L 581 0 
L 581 4863 
L 1159 4863 
L 1159 2956 
Q 1366 3272 1645 3428 
Q 1925 3584 2291 3584 
Q 2894 3584 3203 3211 
Q 3513 2838 3513 2113 
z
" transform="scale(0.015625)"/>
    </defs>
    <use xlink:href="#DejaVuSans-2a"/>
    <use xlink:href="#DejaVuSans-55" transform="translate(77.484375 0)"/>
    <use xlink:href="#DejaVuSans-48" transform="translate(116.390625 0)"/>
    <use xlink:href="#DejaVuSans-5c" transform="translate(177.921875 0)"/>
    <use xlink:href="#DejaVuSans-3" transform="translate(237.109375 0)"/>
    <use xlink:href="#DejaVuSans-3" transform="translate(268.890625 0)"/>
    <use xlink:href="#DejaVuSans-35" transform="translate(300.671875 0)"/>
    <use xlink:href="#DejaVuSans-48" transform="translate(365.671875 0)"/>
    <use xlink:href="#DejaVuSans-57" transform="translate(427.203125 0)"/>
    <use xlink:href="#DejaVuSans-44" transform="translate(466.40625 0)"/>
    <use xlink:href="#DejaVuSans-4c" transform="translate(527.6875 0)"/>
    <use xlink:href="#DejaVuSans-51" transform="translate(555.46875 0)"/>
    <use xlink:href="#DejaVuSans-48" transform="translate(618.84375 0)"/>
    <use xlink:href="#DejaVuSans-47" transform="translate(680.375 0)"/>
    <use xlink:href="#DejaVuSans-3" transform="translate(743.859375 0)"/>
    <use xlink:href="#DejaVuSans-3" transform="translate(775.640625 0)"/>
    <use xlink:href="#DejaVuSans-3" transform="translate(807.421875 0)"/>
    <use xlink:href="#DejaVuSans-5f" transform="translate(839.203125 0)"/>
    <use xlink:href="#DejaVuSans-3" transform="translate(872.890625 0)"/>
    <use xlink:href="#DejaVuSans-3" transform="translate(904.671875 0)"/>
    <use xlink:href="#DejaVuSans-3" transform="translate(936.453125 0)"/>
    <use xlink:href="#DejaVuSans-2a" transform="translate(968.234375 0)"/>
    <use xlink:href="#DejaVuSans-55" transform="translate(1045.71875 0)"/>
    <use xlink:href="#DejaVuSans-48" transform="translate(1084.625 0)"/>
    <use xlink:href="#DejaVuSans-48" transform="translate(1146.15625 0)"/>
    <use xlink:href="#DejaVuSans-51" transform="translate(1207.6875 0)"/>
    <use xlink:href="#DejaVuSans-3" transform="translate(1271.0625 0)"/>
    <use xlink:href="#DejaVuSans-3" transform="translate(1302.84375 0)"/>
    <use xlink:href="#DejaVuSans-26" transform="translate(1334.625 0)"/>
    <use xlink:href="#DejaVuSans-58" transform="translate(1404.453125 0)"/>
    <use xlink:href="#DejaVuSans-55" transform="translate(1467.828125 0)"/>
    <use xlink:href="#DejaVuSans-55" transform="translate(1507.1875 0)"/>
    <use xlink:href="#DejaVuSans-48" transform="translate(1546.09375 0)"/>
    <use xlink:href="#DejaVuSans-51" transform="translate(1607.625 0)"/>
    <use xlink:href="#DejaVuSans-57" transform="translate(1671 0)"/>
    <use xlink:href="#DejaVuSans-3" transform="translate(1710.203125 0)"/>
    <use xlink:href="#DejaVuSans-53" transform="translate(1741.984375 0)"/>
    <use xlink:href="#DejaVuSans-55" transform="translate(1805.46875 0)"/>
    <use xlink:href="#DejaVuSans-52" transform="translate(1844.375 0)"/>
    <use xlink:href="#DejaVuSans-53" transform="translate(1905.5625 0)"/>
    <use xlink:href="#DejaVuSans-52" transform="translate(1969.046875 0)"/>
    <use xlink:href="#DejaVuSans-56" transform="translate(2030.234375 0)"/>
    <use xlink:href="#DejaVuSans-44" transform="translate(2082.328125 0)"/>
    <use xlink:href="#DejaVuSans-4f" transform="translate(2143.609375 0)"/>
    <use xlink:href="#DejaVuSans-3" transform="translate(2171.390625 0)"/>
    <use xlink:href="#DejaVuSans-3" transform="translate(2203.171875 0)"/>
    <use xlink:href="#DejaVuSans-3" transform="translate(2234.953125 0)"/>
    <use xlink:href="#DejaVuSans-5f" transform="translate(2266.734375 0)"/>
    <use xlink:href="#DejaVuSans-3" transform="translate(2300.421875 0)"/>
    <use xlink:href="#DejaVuSans-3" transform="translate(2332.203125 0)"/>
    <use xlink:href="#DejaVuSans-3" transform="translate(2363.984375 0)"/>
    <use xlink:href="#DejaVuSans-36" transform="translate(2395.765625 0)"/>
    <use xlink:href="#DejaVuSans-44" transform="translate(2459.25 0)"/>
    <use xlink:href="#DejaVuSans-51" transform="translate(2520.53125 0)"/>
    <use xlink:href="#DejaVuSans-47" transform="translate(2583.90625 0)"/>
    <use xlink:href="#DejaVuSans-3" transform="translate(2647.390625 0)"/>
    <use xlink:href="#DejaVuSans-3" transform="translate(2679.171875 0)"/>
    <use xlink:href="#DejaVuSans-37" transform="translate(2710.953125 0)"/>
    <use xlink:href="#DejaVuSans-4b" transform="translate(2772.03125 0)"/>
    <use xlink:href="#DejaVuSans-4c" transform="translate(2835.40625 0)"/>
    <use xlink:href="#DejaVuSans-56" transform="translate(2863.1875 0)"/>
    <use xlink:href="#DejaVuSans-3" transform="translate(2915.28125 0)"/>
    <use xlink:href="#DejaVuSans-52" transform="translate(2947.0625 0)"/>
    <use xlink:href="#DejaVuSans-53" transform="translate(3008.25 0)"/>
    <use xlink:href="#DejaVuSans-57" transform="translate(3071.734375 0)"/>
    <use xlink:href="#DejaVuSans-4c" transform="translate(3110.9375 0)"/>
    <use xlink:href="#DejaVuSans-52" transform="translate(3138.71875 0)"/>
    <use xlink:href="#DejaVuSans-51" transform="translate(3199.90625 0)"/>
   </g>
  </g>
  <g id="text_14">
   <!-- Room areas follow the model polygons, with nested room overlaps removed for this schedule. They are -->
   <g style="fill: #637870" transform="translate(12.636 936.28321) scale(0.08 -0.08)">
    <defs>
     <path id="DejaVuSans-49" d="M 2375 4863 
L 2375 4384 
L 1825 4384 
Q 1516 4384 1395 4259 
Q 1275 4134 1275 3809 
L 1275 3500 
L 2222 3500 
L 2222 3053 
L 1275 3053 
L 1275 0 
L 697 0 
L 697 3053 
L 147 3053 
L 147 3500 
L 697 3500 
L 697 3744 
Q 697 4328 969 4595 
Q 1241 4863 1831 4863 
L 2375 4863 
z
" transform="scale(0.015625)"/>
     <path id="DejaVuSans-5a" d="M 269 3500 
L 844 3500 
L 1563 769 
L 2278 3500 
L 2956 3500 
L 3675 769 
L 4391 3500 
L 4966 3500 
L 4050 0 
L 3372 0 
L 2619 2869 
L 1863 0 
L 1184 0 
L 269 3500 
z
" transform="scale(0.015625)"/>
     <path id="DejaVuSans-f" d="M 750 794 
L 1409 794 
L 1409 256 
L 897 -744 
L 494 -744 
L 750 256 
L 750 794 
z
" transform="scale(0.015625)"/>
     <path id="DejaVuSans-59" d="M 191 3500 
L 800 3500 
L 1894 563 
L 2988 3500 
L 3597 3500 
L 2284 0 
L 1503 0 
L 191 3500 
z
" transform="scale(0.015625)"/>
    </defs>
    <use xlink:href="#DejaVuSans-35"/>
    <use xlink:href="#DejaVuSans-52" transform="translate(65 0)"/>
    <use xlink:href="#DejaVuSans-52" transform="translate(126.1875 0)"/>
    <use xlink:href="#DejaVuSans-50" transform="translate(187.375 0)"/>
    <use xlink:href="#DejaVuSans-3" transform="translate(284.78125 0)"/>
    <use xlink:href="#DejaVuSans-44" transform="translate(316.5625 0)"/>
    <use xlink:href="#DejaVuSans-55" transform="translate(377.84375 0)"/>
    <use xlink:href="#DejaVuSans-48" transform="translate(416.75 0)"/>
    <use xlink:href="#DejaVuSans-44" transform="translate(478.28125 0)"/>
    <use xlink:href="#DejaVuSans-56" transform="translate(539.5625 0)"/>
    <use xlink:href="#DejaVuSans-3" transform="translate(591.65625 0)"/>
    <use xlink:href="#DejaVuSans-49" transform="translate(623.4375 0)"/>
    <use xlink:href="#DejaVuSans-52" transform="translate(658.640625 0)"/>
    <use xlink:href="#DejaVuSans-4f" transform="translate(719.828125 0)"/>
    <use xlink:href="#DejaVuSans-4f" transform="translate(747.609375 0)"/>
    <use xlink:href="#DejaVuSans-52" transform="translate(775.390625 0)"/>
    <use xlink:href="#DejaVuSans-5a" transform="translate(836.578125 0)"/>
    <use xlink:href="#DejaVuSans-3" transform="translate(918.359375 0)"/>
    <use xlink:href="#DejaVuSans-57" transform="translate(950.140625 0)"/>
    <use xlink:href="#DejaVuSans-4b" transform="translate(989.34375 0)"/>
    <use xlink:href="#DejaVuSans-48" transform="translate(1052.71875 0)"/>
    <use xlink:href="#DejaVuSans-3" transform="translate(1114.25 0)"/>
    <use xlink:href="#DejaVuSans-50" transform="translate(1146.03125 0)"/>
    <use xlink:href="#DejaVuSans-52" transform="translate(1243.4375 0)"/>
    <use xlink:href="#DejaVuSans-47" transform="translate(1304.625 0)"/>
    <use xlink:href="#DejaVuSans-48" transform="translate(1368.109375 0)"/>
    <use xlink:href="#DejaVuSans-4f" transform="translate(1429.640625 0)"/>
    <use xlink:href="#DejaVuSans-3" transform="translate(1457.421875 0)"/>
    <use xlink:href="#DejaVuSans-53" transform="translate(1489.203125 0)"/>
    <use xlink:href="#DejaVuSans-52" transform="translate(1552.6875 0)"/>
    <use xlink:href="#DejaVuSans-4f" transform="translate(1613.875 0)"/>
    <use xlink:href="#DejaVuSans-5c" transform="translate(1641.65625 0)"/>
    <use xlink:href="#DejaVuSans-4a" transform="translate(1700.84375 0)"/>
    <use xlink:href="#DejaVuSans-52" transform="translate(1764.328125 0)"/>
    <use xlink:href="#DejaVuSans-51" transform="translate(1825.515625 0)"/>
    <use xlink:href="#DejaVuSans-56" transform="translate(1888.890625 0)"/>
    <use xlink:href="#DejaVuSans-f" transform="translate(1940.984375 0)"/>
    <use xlink:href="#DejaVuSans-3" transform="translate(1972.765625 0)"/>
    <use xlink:href="#DejaVuSans-5a" transform="translate(2004.546875 0)"/>
    <use xlink:href="#DejaVuSans-4c" transform="translate(2086.328125 0)"/>
    <use xlink:href="#DejaVuSans-57" transform="translate(2114.109375 0)"/>
    <use xlink:href="#DejaVuSans-4b" transform="translate(2153.3125 0)"/>
    <use xlink:href="#DejaVuSans-3" transform="translate(2216.6875 0)"/>
    <use xlink:href="#DejaVuSans-51" transform="translate(2248.46875 0)"/>
    <use xlink:href="#DejaVuSans-48" transform="translate(2311.84375 0)"/>
    <use xlink:href="#DejaVuSans-56" transform="translate(2373.375 0)"/>
    <use xlink:href="#DejaVuSans-57" transform="translate(2425.46875 0)"/>
    <use xlink:href="#DejaVuSans-48" transform="translate(2464.671875 0)"/>
    <use xlink:href="#DejaVuSans-47" transform="translate(2526.203125 0)"/>
    <use xlink:href="#DejaVuSans-3" transform="translate(2589.6875 0)"/>
    <use xlink:href="#DejaVuSans-55" transform="translate(2621.46875 0)"/>
    <use xlink:href="#DejaVuSans-52" transform="translate(2660.375 0)"/>
    <use xlink:href="#DejaVuSans-52" transform="translate(2721.5625 0)"/>
    <use xlink:href="#DejaVuSans-50" transform="translate(2782.75 0)"/>
    <use xlink:href="#DejaVuSans-3" transform="translate(2880.15625 0)"/>
    <use xlink:href="#DejaVuSans-52" transform="translate(2911.9375 0)"/>
    <use xlink:href="#DejaVuSans-59" transform="translate(2973.125 0)"/>
    <use xlink:href="#DejaVuSans-48" transform="translate(3032.3125 0)"/>
    <use xlink:href="#DejaVuSans-55" transform="translate(3093.84375 0)"/>
    <use xlink:href="#DejaVuSans-4f" transform="translate(3134.953125 0)"/>
    <use xlink:href="#DejaVuSans-44" transform="translate(3162.734375 0)"/>
    <use xlink:href="#DejaVuSans-53" transform="translate(3224.015625 0)"/>
    <use xlink:href="#DejaVuSans-56" transform="translate(3287.5 0)"/>
    <use xlink:href="#DejaVuSans-3" transform="translate(3339.59375 0)"/>
    <use xlink:href="#DejaVuSans-55" transform="translate(3371.375 0)"/>
    <use xlink:href="#DejaVuSans-48" transform="translate(3410.28125 0)"/>
    <use xlink:href="#DejaVuSans-50" transform="translate(3471.8125 0)"/>
    <use xlink:href="#DejaVuSans-52" transform="translate(3569.21875 0)"/>
    <use xlink:href="#DejaVuSans-59" transform="translate(3630.40625 0)"/>
    <use xlink:href="#DejaVuSans-48" transform="translate(3689.59375 0)"/>
    <use xlink:href="#DejaVuSans-47" transform="translate(3751.125 0)"/>
    <use xlink:href="#DejaVuSans-3" transform="translate(3814.609375 0)"/>
    <use xlink:href="#DejaVuSans-49" transform="translate(3846.390625 0)"/>
    <use xlink:href="#DejaVuSans-52" transform="translate(3881.59375 0)"/>
    <use xlink:href="#DejaVuSans-55" transform="translate(3942.78125 0)"/>
    <use xlink:href="#DejaVuSans-3" transform="translate(3983.890625 0)"/>
    <use xlink:href="#DejaVuSans-57" transform="translate(4015.671875 0)"/>
    <use xlink:href="#DejaVuSans-4b" transform="translate(4054.875 0)"/>
    <use xlink:href="#DejaVuSans-4c" transform="translate(4118.25 0)"/>
    <use xlink:href="#DejaVuSans-56" transform="translate(4146.03125 0)"/>
    <use xlink:href="#DejaVuSans-3" transform="translate(4198.125 0)"/>
    <use xlink:href="#DejaVuSans-56" transform="translate(4229.90625 0)"/>
    <use xlink:href="#DejaVuSans-46" transform="translate(4282 0)"/>
    <use xlink:href="#DejaVuSans-4b" transform="translate(4336.984375 0)"/>
    <use xlink:href="#DejaVuSans-48" transform="translate(4400.359375 0)"/>
    <use xlink:href="#DejaVuSans-47" transform="translate(4461.890625 0)"/>
    <use xlink:href="#DejaVuSans-58" transform="translate(4525.375 0)"/>
    <use xlink:href="#DejaVuSans-4f" transform="translate(4588.75 0)"/>
    <use xlink:href="#DejaVuSans-48" transform="translate(4616.53125 0)"/>
    <use xlink:href="#DejaVuSans-11" transform="translate(4678.0625 0)"/>
    <use xlink:href="#DejaVuSans-3" transform="translate(4709.84375 0)"/>
    <use xlink:href="#DejaVuSans-37" transform="translate(4741.625 0)"/>
    <use xlink:href="#DejaVuSans-4b" transform="translate(4802.703125 0)"/>
    <use xlink:href="#DejaVuSans-48" transform="translate(4866.078125 0)"/>
    <use xlink:href="#DejaVuSans-5c" transform="translate(4927.609375 0)"/>
    <use xlink:href="#DejaVuSans-3" transform="translate(4986.796875 0)"/>
    <use xlink:href="#DejaVuSans-44" transform="translate(5018.578125 0)"/>
    <use xlink:href="#DejaVuSans-55" transform="translate(5079.859375 0)"/>
    <use xlink:href="#DejaVuSans-48" transform="translate(5118.765625 0)"/>
   </g>
   <!-- approximate, not surveyed GIA. Furniture blocks and door swings show concept fit; structure, fire strategy -->
   <g style="fill: #637870" transform="translate(12.636 947.48321) scale(0.08 -0.08)">
    <defs>
     <path id="DejaVuSans-5b" d="M 3513 3500 
L 2247 1797 
L 3578 0 
L 2900 0 
L 1881 1375 
L 863 0 
L 184 0 
L 1544 1831 
L 300 3500 
L 978 3500 
L 1906 2253 
L 2834 3500 
L 3513 3500 
z
" transform="scale(0.015625)"/>
     <path id="DejaVuSans-24" d="M 2188 4044 
L 1331 1722 
L 3047 1722 
L 2188 4044 
z
M 1831 4666 
L 2547 4666 
L 4325 0 
L 3669 0 
L 3244 1197 
L 1141 1197 
L 716 0 
L 50 0 
L 1831 4666 
z
" transform="scale(0.015625)"/>
     <path id="DejaVuSans-29" d="M 628 4666 
L 3309 4666 
L 3309 4134 
L 1259 4134 
L 1259 2759 
L 3109 2759 
L 3109 2228 
L 1259 2228 
L 1259 0 
L 628 0 
L 628 4666 
z
" transform="scale(0.015625)"/>
     <path id="DejaVuSans-4e" d="M 581 4863 
L 1159 4863 
L 1159 1991 
L 2875 3500 
L 3609 3500 
L 1753 1863 
L 3688 0 
L 2938 0 
L 1159 1709 
L 1159 0 
L 581 0 
L 581 4863 
z
" transform="scale(0.015625)"/>
     <path id="DejaVuSans-13af" d="M 3431 3500 
L 3431 0 
L 2853 0 
L 2853 3053 
L 1275 3053 
L 1275 0 
L 697 0 
L 697 3053 
L 147 3053 
L 147 3500 
L 697 3500 
L 697 3744 
Q 697 4316 967 4589 
Q 1238 4863 1797 4863 
L 2375 4863 
L 2375 4384 
L 1825 4384 
Q 1516 4384 1395 4259 
Q 1275 4134 1275 3809 
L 1275 3500 
L 3431 3500 
z
M 2853 4856 
L 3431 4856 
L 3431 4128 
L 2853 4128 
L 2853 4856 
z
" transform="scale(0.015625)"/>
     <path id="DejaVuSans-1e" d="M 750 3309 
L 1409 3309 
L 1409 2516 
L 750 2516 
L 750 3309 
z
M 750 794 
L 1409 794 
L 1409 256 
L 897 -744 
L 494 -744 
L 750 256 
L 750 794 
z
" transform="scale(0.015625)"/>
    </defs>
    <use xlink:href="#DejaVuSans-44"/>
    <use xlink:href="#DejaVuSans-53" transform="translate(61.28125 0)"/>
    <use xlink:href="#DejaVuSans-53" transform="translate(124.765625 0)"/>
    <use xlink:href="#DejaVuSans-55" transform="translate(188.25 0)"/>
    <use xlink:href="#DejaVuSans-52" transform="translate(227.15625 0)"/>
    <use xlink:href="#DejaVuSans-5b" transform="translate(285.265625 0)"/>
    <use xlink:href="#DejaVuSans-4c" transform="translate(344.453125 0)"/>
    <use xlink:href="#DejaVuSans-50" transform="translate(372.234375 0)"/>
    <use xlink:href="#DejaVuSans-44" transform="translate(469.640625 0)"/>
    <use xlink:href="#DejaVuSans-57" transform="translate(530.921875 0)"/>
    <use xlink:href="#DejaVuSans-48" transform="translate(570.125 0)"/>
    <use xlink:href="#DejaVuSans-f" transform="translate(631.65625 0)"/>
    <use xlink:href="#DejaVuSans-3" transform="translate(663.4375 0)"/>
    <use xlink:href="#DejaVuSans-51" transform="translate(695.21875 0)"/>
    <use xlink:href="#DejaVuSans-52" transform="translate(758.59375 0)"/>
    <use xlink:href="#DejaVuSans-57" transform="translate(819.78125 0)"/>
    <use xlink:href="#DejaVuSans-3" transform="translate(858.984375 0)"/>
    <use xlink:href="#DejaVuSans-56" transform="translate(890.765625 0)"/>
    <use xlink:href="#DejaVuSans-58" transform="translate(942.859375 0)"/>
    <use xlink:href="#DejaVuSans-55" transform="translate(1006.234375 0)"/>
    <use xlink:href="#DejaVuSans-59" transform="translate(1047.34375 0)"/>
    <use xlink:href="#DejaVuSans-48" transform="translate(1106.53125 0)"/>
    <use xlink:href="#DejaVuSans-5c" transform="translate(1168.0625 0)"/>
    <use xlink:href="#DejaVuSans-48" transform="translate(1227.25 0)"/>
    <use xlink:href="#DejaVuSans-47" transform="translate(1288.78125 0)"/>
    <use xlink:href="#DejaVuSans-3" transform="translate(1352.265625 0)"/>
    <use xlink:href="#DejaVuSans-2a" transform="translate(1384.046875 0)"/>
    <use xlink:href="#DejaVuSans-2c" transform="translate(1461.53125 0)"/>
    <use xlink:href="#DejaVuSans-24" transform="translate(1491.03125 0)"/>
    <use xlink:href="#DejaVuSans-11" transform="translate(1557.6875 0)"/>
    <use xlink:href="#DejaVuSans-3" transform="translate(1589.46875 0)"/>
    <use xlink:href="#DejaVuSans-29" transform="translate(1621.25 0)"/>
    <use xlink:href="#DejaVuSans-58" transform="translate(1673.296875 0)"/>
    <use xlink:href="#DejaVuSans-55" transform="translate(1736.671875 0)"/>
    <use xlink:href="#DejaVuSans-51" transform="translate(1776.03125 0)"/>
    <use xlink:href="#DejaVuSans-4c" transform="translate(1839.40625 0)"/>
    <use xlink:href="#DejaVuSans-57" transform="translate(1867.1875 0)"/>
    <use xlink:href="#DejaVuSans-58" transform="translate(1906.390625 0)"/>
    <use xlink:href="#DejaVuSans-55" transform="translate(1969.765625 0)"/>
    <use xlink:href="#DejaVuSans-48" transform="translate(2008.671875 0)"/>
    <use xlink:href="#DejaVuSans-3" transform="translate(2070.203125 0)"/>
    <use xlink:href="#DejaVuSans-45" transform="translate(2101.984375 0)"/>
    <use xlink:href="#DejaVuSans-4f" transform="translate(2165.46875 0)"/>
    <use xlink:href="#DejaVuSans-52" transform="translate(2193.25 0)"/>
    <use xlink:href="#DejaVuSans-46" transform="translate(2254.4375 0)"/>
    <use xlink:href="#DejaVuSans-4e" transform="translate(2309.421875 0)"/>
    <use xlink:href="#DejaVuSans-56" transform="translate(2367.328125 0)"/>
    <use xlink:href="#DejaVuSans-3" transform="translate(2419.421875 0)"/>
    <use xlink:href="#DejaVuSans-44" transform="translate(2451.203125 0)"/>
    <use xlink:href="#DejaVuSans-51" transform="translate(2512.484375 0)"/>
    <use xlink:href="#DejaVuSans-47" transform="translate(2575.859375 0)"/>
    <use xlink:href="#DejaVuSans-3" transform="translate(2639.34375 0)"/>
    <use xlink:href="#DejaVuSans-47" transform="translate(2671.125 0)"/>
    <use xlink:href="#DejaVuSans-52" transform="translate(2734.609375 0)"/>
    <use xlink:href="#DejaVuSans-52" transform="translate(2795.796875 0)"/>
    <use xlink:href="#DejaVuSans-55" transform="translate(2856.984375 0)"/>
    <use xlink:href="#DejaVuSans-3" transform="translate(2898.09375 0)"/>
    <use xlink:href="#DejaVuSans-56" transform="translate(2929.875 0)"/>
    <use xlink:href="#DejaVuSans-5a" transform="translate(2981.96875 0)"/>
    <use xlink:href="#DejaVuSans-4c" transform="translate(3063.75 0)"/>
    <use xlink:href="#DejaVuSans-51" transform="translate(3091.53125 0)"/>
    <use xlink:href="#DejaVuSans-4a" transform="translate(3154.90625 0)"/>
    <use xlink:href="#DejaVuSans-56" transform="translate(3218.390625 0)"/>
    <use xlink:href="#DejaVuSans-3" transform="translate(3270.484375 0)"/>
    <use xlink:href="#DejaVuSans-56" transform="translate(3302.265625 0)"/>
    <use xlink:href="#DejaVuSans-4b" transform="translate(3354.359375 0)"/>
    <use xlink:href="#DejaVuSans-52" transform="translate(3417.734375 0)"/>
    <use xlink:href="#DejaVuSans-5a" transform="translate(3478.921875 0)"/>
    <use xlink:href="#DejaVuSans-3" transform="translate(3560.703125 0)"/>
    <use xlink:href="#DejaVuSans-46" transform="translate(3592.484375 0)"/>
    <use xlink:href="#DejaVuSans-52" transform="translate(3647.46875 0)"/>
    <use xlink:href="#DejaVuSans-51" transform="translate(3708.65625 0)"/>
    <use xlink:href="#DejaVuSans-46" transform="translate(3772.03125 0)"/>
    <use xlink:href="#DejaVuSans-48" transform="translate(3827.015625 0)"/>
    <use xlink:href="#DejaVuSans-53" transform="translate(3888.546875 0)"/>
    <use xlink:href="#DejaVuSans-57" transform="translate(3952.03125 0)"/>
    <use xlink:href="#DejaVuSans-3" transform="translate(3991.234375 0)"/>
    <use xlink:href="#DejaVuSans-13af" transform="translate(4023.015625 0)"/>
    <use xlink:href="#DejaVuSans-57" transform="translate(4086 0)"/>
    <use xlink:href="#DejaVuSans-1e" transform="translate(4125.203125 0)"/>
    <use xlink:href="#DejaVuSans-3" transform="translate(4158.890625 0)"/>
    <use xlink:href="#DejaVuSans-56" transform="translate(4190.671875 0)"/>
    <use xlink:href="#DejaVuSans-57" transform="translate(4242.765625 0)"/>
    <use xlink:href="#DejaVuSans-55" transform="translate(4281.96875 0)"/>
    <use xlink:href="#DejaVuSans-58" transform="translate(4323.078125 0)"/>
    <use xlink:href="#DejaVuSans-46" transform="translate(4386.453125 0)"/>
    <use xlink:href="#DejaVuSans-57" transform="translate(4441.4375 0)"/>
    <use xlink:href="#DejaVuSans-58" transform="translate(4480.640625 0)"/>
    <use xlink:href="#DejaVuSans-55" transform="translate(4544.015625 0)"/>
    <use xlink:href="#DejaVuSans-48" transform="translate(4582.921875 0)"/>
    <use xlink:href="#DejaVuSans-f" transform="translate(4644.453125 0)"/>
    <use xlink:href="#DejaVuSans-3" transform="translate(4676.234375 0)"/>
    <use xlink:href="#DejaVuSans-13af" transform="translate(4708.015625 0)"/>
    <use xlink:href="#DejaVuSans-55" transform="translate(4771 0)"/>
    <use xlink:href="#DejaVuSans-48" transform="translate(4809.90625 0)"/>
    <use xlink:href="#DejaVuSans-3" transform="translate(4871.4375 0)"/>
    <use xlink:href="#DejaVuSans-56" transform="translate(4903.21875 0)"/>
    <use xlink:href="#DejaVuSans-57" transform="translate(4955.3125 0)"/>
    <use xlink:href="#DejaVuSans-55" transform="translate(4994.515625 0)"/>
    <use xlink:href="#DejaVuSans-44" transform="translate(5035.625 0)"/>
    <use xlink:href="#DejaVuSans-57" transform="translate(5096.90625 0)"/>
    <use xlink:href="#DejaVuSans-48" transform="translate(5136.109375 0)"/>
    <use xlink:href="#DejaVuSans-4a" transform="translate(5197.640625 0)"/>
    <use xlink:href="#DejaVuSans-5c" transform="translate(5261.125 0)"/>
   </g>
   <!-- and services require detailed design. -->
   <g style="fill: #637870" transform="translate(12.636 958.68321) scale(0.08 -0.08)">
    <defs>
     <path id="DejaVuSans-54" d="M 947 1747 
Q 947 1113 1208 752 
Q 1469 391 1925 391 
Q 2381 391 2643 752 
Q 2906 1113 2906 1747 
Q 2906 2381 2643 2742 
Q 2381 3103 1925 3103 
Q 1469 3103 1208 2742 
Q 947 2381 947 1747 
z
M 2906 525 
Q 2725 213 2448 61 
Q 2172 -91 1784 -91 
Q 1150 -91 751 415 
Q 353 922 353 1747 
Q 353 2572 751 3078 
Q 1150 3584 1784 3584 
Q 2172 3584 2448 3432 
Q 2725 3281 2906 2969 
L 2906 3500 
L 3481 3500 
L 3481 -1331 
L 2906 -1331 
L 2906 525 
z
" transform="scale(0.015625)"/>
    </defs>
    <use xlink:href="#DejaVuSans-44"/>
    <use xlink:href="#DejaVuSans-51" transform="translate(61.28125 0)"/>
    <use xlink:href="#DejaVuSans-47" transform="translate(124.65625 0)"/>
    <use xlink:href="#DejaVuSans-3" transform="translate(188.140625 0)"/>
    <use xlink:href="#DejaVuSans-56" transform="translate(219.921875 0)"/>
    <use xlink:href="#DejaVuSans-48" transform="translate(272.015625 0)"/>
    <use xlink:href="#DejaVuSans-55" transform="translate(333.546875 0)"/>
    <use xlink:href="#DejaVuSans-59" transform="translate(374.65625 0)"/>
    <use xlink:href="#DejaVuSans-4c" transform="translate(433.84375 0)"/>
    <use xlink:href="#DejaVuSans-46" transform="translate(461.625 0)"/>
    <use xlink:href="#DejaVuSans-48" transform="translate(516.609375 0)"/>
    <use xlink:href="#DejaVuSans-56" transform="translate(578.140625 0)"/>
    <use xlink:href="#DejaVuSans-3" transform="translate(630.234375 0)"/>
    <use xlink:href="#DejaVuSans-55" transform="translate(662.015625 0)"/>
    <use xlink:href="#DejaVuSans-48" transform="translate(700.921875 0)"/>
    <use xlink:href="#DejaVuSans-54" transform="translate(762.453125 0)"/>
    <use xlink:href="#DejaVuSans-58" transform="translate(825.9375 0)"/>
    <use xlink:href="#DejaVuSans-4c" transform="translate(889.3125 0)"/>
    <use xlink:href="#DejaVuSans-55" transform="translate(917.09375 0)"/>
    <use xlink:href="#DejaVuSans-48" transform="translate(956 0)"/>
    <use xlink:href="#DejaVuSans-3" transform="translate(1017.53125 0)"/>
    <use xlink:href="#DejaVuSans-47" transform="translate(1049.3125 0)"/>
    <use xlink:href="#DejaVuSans-48" transform="translate(1112.796875 0)"/>
    <use xlink:href="#DejaVuSans-57" transform="translate(1174.328125 0)"/>
    <use xlink:href="#DejaVuSans-44" transform="translate(1213.53125 0)"/>
    <use xlink:href="#DejaVuSans-4c" transform="translate(1274.8125 0)"/>
    <use xlink:href="#DejaVuSans-4f" transform="translate(1302.59375 0)"/>
    <use xlink:href="#DejaVuSans-48" transform="translate(1330.375 0)"/>
    <use xlink:href="#DejaVuSans-47" transform="translate(1391.90625 0)"/>
    <use xlink:href="#DejaVuSans-3" transform="translate(1455.390625 0)"/>
    <use xlink:href="#DejaVuSans-47" transform="translate(1487.171875 0)"/>
    <use xlink:href="#DejaVuSans-48" transform="translate(1550.65625 0)"/>
    <use xlink:href="#DejaVuSans-56" transform="translate(1612.1875 0)"/>
    <use xlink:href="#DejaVuSans-4c" transform="translate(1664.28125 0)"/>
    <use xlink:href="#DejaVuSans-4a" transform="translate(1692.0625 0)"/>
    <use xlink:href="#DejaVuSans-51" transform="translate(1755.546875 0)"/>
    <use xlink:href="#DejaVuSans-11" transform="translate(1818.921875 0)"/>
   </g>
  </g>
  <g id="text_15">
   <!-- Ashley Heights · 25 September 2026 · I3 · Cellar -->
   <g style="fill: #637870" transform="translate(12.636 1008.57921) scale(0.08 -0.08)">
    <defs>
     <path id="DejaVuSans-2b" d="M 628 4666 
L 1259 4666 
L 1259 2753 
L 3553 2753 
L 3553 4666 
L 4184 4666 
L 4184 0 
L 3553 0 
L 3553 2222 
L 1259 2222 
L 1259 0 
L 628 0 
L 628 4666 
z
" transform="scale(0.015625)"/>
    </defs>
    <use xlink:href="#DejaVuSans-24"/>
    <use xlink:href="#DejaVuSans-56" transform="translate(68.40625 0)"/>
    <use xlink:href="#DejaVuSans-4b" transform="translate(120.5 0)"/>
    <use xlink:href="#DejaVuSans-4f" transform="translate(183.875 0)"/>
    <use xlink:href="#DejaVuSans-48" transform="translate(211.65625 0)"/>
    <use xlink:href="#DejaVuSans-5c" transform="translate(273.1875 0)"/>
    <use xlink:href="#DejaVuSans-3" transform="translate(332.375 0)"/>
    <use xlink:href="#DejaVuSans-2b" transform="translate(364.15625 0)"/>
    <use xlink:href="#DejaVuSans-48" transform="translate(439.359375 0)"/>
    <use xlink:href="#DejaVuSans-4c" transform="translate(500.890625 0)"/>
    <use xlink:href="#DejaVuSans-4a" transform="translate(528.671875 0)"/>
    <use xlink:href="#DejaVuSans-4b" transform="translate(592.15625 0)"/>
    <use xlink:href="#DejaVuSans-57" transform="translate(655.53125 0)"/>
    <use xlink:href="#DejaVuSans-56" transform="translate(694.734375 0)"/>
    <use xlink:href="#DejaVuSans-3" transform="translate(746.828125 0)"/>
    <use xlink:href="#DejaVuSans-79" transform="translate(778.609375 0)"/>
    <use xlink:href="#DejaVuSans-3" transform="translate(810.390625 0)"/>
    <use xlink:href="#DejaVuSans-15" transform="translate(842.171875 0)"/>
    <use xlink:href="#DejaVuSans-18" transform="translate(905.796875 0)"/>
    <use xlink:href="#DejaVuSans-3" transform="translate(969.421875 0)"/>
    <use xlink:href="#DejaVuSans-36" transform="translate(1001.203125 0)"/>
    <use xlink:href="#DejaVuSans-48" transform="translate(1064.6875 0)"/>
    <use xlink:href="#DejaVuSans-53" transform="translate(1126.21875 0)"/>
    <use xlink:href="#DejaVuSans-57" transform="translate(1189.703125 0)"/>
    <use xlink:href="#DejaVuSans-48" transform="translate(1228.90625 0)"/>
    <use xlink:href="#DejaVuSans-50" transform="translate(1290.4375 0)"/>
    <use xlink:href="#DejaVuSans-45" transform="translate(1387.84375 0)"/>
    <use xlink:href="#DejaVuSans-48" transform="translate(1451.328125 0)"/>
    <use xlink:href="#DejaVuSans-55" transform="translate(1512.859375 0)"/>
    <use xlink:href="#DejaVuSans-3" transform="translate(1553.96875 0)"/>
    <use xlink:href="#DejaVuSans-15" transform="translate(1585.75 0)"/>
    <use xlink:href="#DejaVuSans-13" transform="translate(1649.375 0)"/>
    <use xlink:href="#DejaVuSans-15" transform="translate(1713 0)"/>
    <use xlink:href="#DejaVuSans-19" transform="translate(1776.625 0)"/>
    <use xlink:href="#DejaVuSans-3" transform="translate(1840.25 0)"/>
    <use xlink:href="#DejaVuSans-79" transform="translate(1872.03125 0)"/>
    <use xlink:href="#DejaVuSans-3" transform="translate(1903.8125 0)"/>
    <use xlink:href="#DejaVuSans-2c" transform="translate(1935.59375 0)"/>
    <use xlink:href="#DejaVuSans-16" transform="translate(1965.09375 0)"/>
    <use xlink:href="#DejaVuSans-3" transform="translate(2028.71875 0)"/>
    <use xlink:href="#DejaVuSans-79" transform="translate(2060.5 0)"/>
    <use xlink:href="#DejaVuSans-3" transform="translate(2092.28125 0)"/>
    <use xlink:href="#DejaVuSans-26" transform="translate(2124.0625 0)"/>
    <use xlink:href="#DejaVuSans-48" transform="translate(2193.890625 0)"/>
    <use xlink:href="#DejaVuSans-4f" transform="translate(2255.421875 0)"/>
    <use xlink:href="#DejaVuSans-4f" transform="translate(2283.203125 0)"/>
    <use xlink:href="#DejaVuSans-44" transform="translate(2310.984375 0)"/>
    <use xlink:href="#DejaVuSans-55" transform="translate(2372.265625 0)"/>
   </g>
  </g>
 </g>
 <defs>
  <clipPath id="p398668e2a3">
   <rect x="-0" y="0" width="619.164" height="823.218419"/>
  </clipPath>
 </defs>
</svg>
