<svg xmlns="http://www.w3.org/2000/svg" xmlns:xlink="http://www.w3.org/1999/xlink" version="1.1" style="enable-background:new 0 0 300 300;" xml:space="preserve" width="210" height="65"><rect id="backgroundrect" width="100%" height="100%" x="0" y="0" fill="none" stroke="none" class="" style=""/>
<style type="text/css">
	.st0{fill:#FFFFFF;}
	.st1{fill:#DADADA;}
	.st2{fill:#0068D2;}
	.st3{fill:#F9F9FD;}
	.st4{fill:#4D4D4D;}
	.st5{fill:#135FAB;}
	.st6{fill:#DBDBDB;}
	.st7{fill:#FFFFFF;}
	.st8{fill:url(#SVGID_1_);}
</style>

<g class="currentLayer" style=""><title>Layer 1</title><g id="svg_1" class="">
	<g id="svg_2">
		<g id="svg_3">
			<g id="svg_4">
				<path class="st1" d="M9.18465623855591,7.640580420494075 c1.1600000000000001,-0.9500000000000003 2.51,-1.3900000000000001 3.99,-1.5 c0.27,-0.02000000000000001 0.55,-0.010000000000000005 0.8200000000000003,-0.010000000000000005 c11.71,0 23.43,0 35.14,0 c0.49000000000000016,0 0.98,0 1.46,0.11000000000000004 c3.2800000000000002,0.7400000000000003 4.59,4.69 2.39,7.22 c-0.11000000000000004,0.12000000000000002 -0.22000000000000008,0.24000000000000007 -0.3400000000000003,0.36000000000000015 c-6.2,6.2 -12.39,12.39 -18.59,18.59 c-0.1,0.1 -0.21000000000000008,0.18000000000000008 -0.31000000000000016,0.26 c-0.4,0.08000000000000004 -0.5800000000000003,-0.24000000000000007 -0.8,-0.46 c-2.13,-2.11 -4.3100000000000005,-4.18 -6.35,-6.38 c-3.04,-3.2800000000000002 -6.28,-6.36 -9.42,-9.55 c-2.55,-2.58 -4.98,-5.27 -7.6,-7.79 C9.344656238555906,8.280580420494076 8.954656238555906,8.090580420494078 9.18465623855591,7.640580420494075 z" id="svg_5"/>
			</g>
			<g id="svg_6">
				<path class="st1" d="M60.83465623855591,61.07058042049408 c-1.11,0.92 -2.4,1.37 -3.8200000000000003,1.47 c-0.41000000000000014,0.03000000000000002 -0.8200000000000003,0.03000000000000002 -1.23,0.03000000000000002 c-11.55,0 -23.11,0 -34.66,0 c-0.6500000000000004,0 -1.31,0.02000000000000001 -1.9500000000000002,-0.1600000000000001 c-3.05,-0.8900000000000003 -4.22,-4.61 -2.2,-7.06 c0.17,-0.21000000000000008 0.37000000000000016,-0.41000000000000014 0.56,-0.6000000000000003 c6.1,-6.1 12.21,-12.21 18.31,-18.31 c0.11000000000000004,-0.11000000000000004 0.24000000000000007,-0.22000000000000008 0.37000000000000016,-0.3200000000000002 c0.52,-0.22000000000000008 0.7500000000000003,0.22000000000000008 1.01,0.49000000000000016 c1.8900000000000001,1.94 3.87,3.7800000000000002 5.68,5.79 c1.4,1.56 2.94,3.01 4.45,4.48 c4.42,4.3100000000000005 8.6,8.86 13,13.19 C60.61465623855591,60.32058042049408 61.06465623855591,60.55058042049407 60.83465623855591,61.07058042049408 z" id="svg_7"/>
			</g>
			<path class="st7" d="M60.83465623855591,61.07058042049408 c-0.010000000000000005,-0.38000000000000017 -0.31000000000000016,-0.56 -0.54,-0.79 c-1.81,-1.82 -3.67,-3.59 -5.42,-5.45 c-3.96,-4.21 -8.18,-8.16 -12.17,-12.35 c-1.8800000000000003,-1.97 -3.83,-3.87 -5.72,-5.83 c-0.22000000000000008,-0.23 -0.41000000000000014,-0.52 -0.79,-0.54 c0.22000000000000008,-0.24000000000000007 0.44000000000000017,-0.48000000000000015 0.6700000000000006,-0.7100000000000003 c3.7800000000000002,-3.79 7.58,-7.5600000000000005 11.35,-11.36 c1.3800000000000001,-1.3900000000000001 2.9699999999999998,-2.4 4.93,-2.74 c5.3,-0.92 10.1,2.85 10.48,7.85 c0.05000000000000003,0.6000000000000003 0.07,1.2 0.07,1.8 c0,8 0,16 0.010000000000000005,24.01 c0,1.99 -0.53,3.77 -1.9,5.26 C61.52465623855591,60.54058042049408 61.234656238555914,60.860580420494074 60.83465623855591,61.07058042049408 z" id="svg_8"/>
			<path class="st7" d="M9.18465623855591,7.640580420494075 c0.010000000000000005,0.35000000000000014 0.29000000000000015,0.51 0.5,0.7200000000000003 c1.21,1.22 2.46,2.41 3.64,3.66 c4.05,4.32 8.38,8.37 12.47,12.65 c2.39,2.51 4.88,4.92 7.29,7.41 c0.21000000000000008,0.21000000000000008 0.4,0.45 0.6700000000000006,0.6000000000000003 c-0.11000000000000004,0.12000000000000002 -0.2,0.25 -0.3200000000000002,0.37000000000000016 c-3.94,3.94 -7.87,7.87 -11.81,11.81 c-1.5,1.5 -3.27,2.4 -5.4,2.6500000000000004 c-3.9,0.46 -8.61,-2 -9.67,-6.9 c-0.12000000000000002,-0.56 -0.19000000000000009,-1.13 -0.19000000000000009,-1.7000000000000002 c0,-8.57 -0.010000000000000005,-17.14 0.010000000000000005,-25.71 C6.384656238555905,10.890580420494075 7.364656238555909,9.04058042049408 9.18465623855591,7.640580420494075 z" id="svg_9"/>
			<path class="st7" d="M93.23465623855591,23.52058042049407 c1.2,-1.6500000000000006 2.34,-3.21 3.48,-4.78 c1.85,-2.54 3.71,-5.07 5.54,-7.62 c0.28,-0.3900000000000002 0.5700000000000003,-0.5700000000000003 1.07,-0.56 c1.7200000000000002,0.03000000000000002 3.44,0.010000000000000005 5.16,0.010000000000000005 c0.6900000000000006,0 0.7000000000000003,0.010000000000000005 0.7000000000000003,0.7300000000000003 c0,6.47 0,12.95 0,19.42 c0,3.11 0,6.23 0,9.34 c0,0.6600000000000005 -0.010000000000000005,0.6700000000000006 -0.6700000000000006,0.6700000000000006 c-1.45,0 -2.9,0 -4.34,0 c-0.78,0 -0.7000000000000003,-0.03000000000000002 -0.7000000000000003,-0.7300000000000003 c0,-4.32 0,-8.63 0,-12.95 c0,-2.62 0,-5.24 0,-7.91 c-0.3200000000000002,0.04000000000000002 -0.4,0.30000000000000016 -0.52,0.47000000000000014 c-2.96,3.93 -5.91,7.86 -8.86,11.79 c-0.21000000000000008,0.28 -0.37000000000000016,0.5800000000000003 -0.8200000000000003,0.5900000000000003 c-0.51,0.010000000000000005 -0.8400000000000003,-0.12000000000000002 -1.1600000000000001,-0.56 c-2.84,-3.91 -5.7,-7.8100000000000005 -8.56,-11.71 c-0.15000000000000008,-0.21000000000000008 -0.27,-0.46 -0.6300000000000003,-0.6800000000000006 c0,0.37000000000000016 0,0.6500000000000004 0,0.9400000000000003 c0,6.61 0,13.22 0,19.83 c0,1.01 0.14,0.93 -0.91,0.93 c-1.42,0 -2.84,-0.010000000000000005 -4.26,0.010000000000000005 c-0.43000000000000016,0.010000000000000005 -0.56,-0.14 -0.55,-0.56 c0.03000000000000002,-0.9 0.010000000000000005,-1.8 0.010000000000000005,-2.7 c0,-8.6 0,-17.21 0,-25.81 c0,-0.22000000000000008 0.010000000000000005,-0.44000000000000017 0,-0.6600000000000005 c-0.02000000000000001,-0.31000000000000016 0.1,-0.44000000000000017 0.42000000000000015,-0.44000000000000017 c1.94,0.010000000000000005 3.88,0.010000000000000005 5.82,0 c0.38000000000000017,0 0.51,0.26 0.6800000000000006,0.5 c1.24,1.7000000000000002 2.48,3.4 3.72,5.1 c1.62,2.23 3.25,4.46 4.87,6.69 C92.8746562385559,23.06058042049409 93.0246562385559,23.250580420494092 93.23465623855591,23.52058042049407 z" id="svg_10"/>
			<path class="st7" d="M174.13465623855592,20.52058042049407 c-1.15,-3.84 -3.47,-6.77 -7.15,-8.51 c-2.17,-1.05 -4.5,-1.48 -6.9,-1.48 h-11.32 c-0.1600000000000001,0 -0.3300000000000002,0.010000000000000005 -0.49000000000000016,0 c-0.28,-0.010000000000000005 -0.38000000000000017,0.13 -0.37000000000000016,0.41000000000000014 c0.010000000000000005,0.19000000000000009 0,0.38000000000000017 0,0.5700000000000003 v28.36 c0,0.93 -0.15000000000000008,0.9 0.8600000000000003,0.9 h10.74 c1.3900000000000001,0 2.7800000000000002,-0.07 4.14,-0.37000000000000016 c4.51,-0.98 7.85,-3.5 9.77,-7.72 C175.2046562385559,28.74058042049407 175.3746562385559,24.650580420494066 174.13465623855592,20.52058042049407 zM168.5246562385559,29.660580420494085 c-1.24,3.23 -3.6500000000000004,5.02 -7.04,5.48 c-2.12,0.29000000000000015 -4.26,0.09000000000000007 -6.39,0.13 c-0.48000000000000015,0 -1.09,0.21000000000000008 -1.4,-0.13 c-0.28,-0.30000000000000016 -0.08000000000000004,-0.9 -0.08000000000000004,-1.35 c-0.010000000000000005,-2.74 -0.010000000000000005,-5.47 -0.010000000000000005,-8.2 c0,-3.01 0,-6.01 0.010000000000000005,-9.02 c0,-0.6400000000000003 0,-0.6500000000000004 0.6000000000000003,-0.6500000000000004 c2.05,0 4.1,-0.03000000000000002 6.16,0.010000000000000005 c4.5,0.08000000000000004 7.88,2.98 8.67,7.43 C169.3946562385559,25.52058042049407 169.3146562385559,27.630580420494084 168.5246562385559,29.660580420494085 z" id="svg_11"/>
			<path class="st7" d="M178.5646562385559,25.650580420494066 c0,-4.75 0,-9.51 0,-14.26 c0,-0.92 -0.13,-0.8900000000000003 0.8700000000000003,-0.8900000000000003 c6.97,0 13.94,0 20.9,0 c0.14,0 0.27,0.010000000000000005 0.41000000000000014,0 c0.30000000000000016,-0.02000000000000001 0.44000000000000017,0.07 0.44000000000000017,0.41000000000000014 c-0.010000000000000005,1.56 -0.010000000000000005,3.12 0,4.67 c0,0.37000000000000016 -0.15000000000000008,0.46 -0.49000000000000016,0.45 c-0.6600000000000005,-0.02000000000000001 -1.31,0 -1.97,0 c-4.43,0 -8.85,0 -13.28,0 c-0.14,0 -0.27,0 -0.41000000000000014,0 c-0.8800000000000003,0 -0.8,-0.03000000000000002 -0.8,0.8 c0,1.83 0,3.66 0,5.49 c0,0.6600000000000005 0.010000000000000005,0.6700000000000006 0.6700000000000006,0.6700000000000006 c4.86,0 9.73,0 14.59,0 c0.19000000000000009,0 0.38000000000000017,0.02000000000000001 0.5700000000000003,0 c0.45,-0.05000000000000003 0.55,0.17 0.54,0.5700000000000003 c-0.02000000000000001,1.34 0,2.68 -0.010000000000000005,4.02 c0,0.6900000000000006 -0.010000000000000005,0.7000000000000003 -0.7300000000000003,0.7000000000000003 c-4.5600000000000005,0 -9.13,0 -13.69,0 c-0.46,0 -0.93,0.03000000000000002 -1.3900000000000001,-0.010000000000000005 c-0.43000000000000016,-0.03000000000000002 -0.5700000000000003,0.12000000000000002 -0.56,0.55 c0.02000000000000001,1.28 0.010000000000000005,2.5700000000000003 0.010000000000000005,3.85 c0,0.6600000000000005 0.02000000000000001,1.31 -0.010000000000000005,1.97 c-0.02000000000000001,0.41000000000000014 0.15000000000000008,0.54 0.53,0.5 c0.19000000000000009,-0.02000000000000001 0.38000000000000017,0 0.5700000000000003,0 c4.95,0 9.89,0 14.84,0 c0.19000000000000009,0 0.38000000000000017,0.010000000000000005 0.5700000000000003,0 c0.31000000000000016,-0.02000000000000001 0.44000000000000017,0.09000000000000007 0.44000000000000017,0.42000000000000015 c-0.010000000000000005,1.61 -0.010000000000000005,3.22 0,4.84 c0,0.29000000000000015 -0.13,0.38000000000000017 -0.4,0.37000000000000016 c-0.1600000000000001,-0.010000000000000005 -0.3300000000000002,0 -0.49000000000000016,0 c-6.94,0 -13.88,0 -20.82,0 c-1.05,0 -0.91,0.07 -0.91,-0.93 C178.5646562385559,35.110580420494074 178.5646562385559,30.380580420494084 178.5646562385559,25.650580420494066 z" id="svg_12"/>
			<path class="st7" d="M144.4646562385559,39.890580420494075 c-0.8900000000000003,-1.99 -1.79,-3.99 -2.67,-5.97 c-3.39,-7.57 -6.79,-15.13 -10.15,-22.71 c-0.25,-0.54 -0.54,-0.7100000000000003 -1.1,-0.7000000000000003 c-1.56,0.04000000000000002 -3.12,0.05000000000000003 -4.67,0 c-0.6100000000000003,-0.010000000000000005 -0.9,0.17 -1.15,0.7400000000000003 c-4.28,9.59 -8.58,19.17 -12.870000000000001,28.76 c-0.09000000000000007,0.21000000000000008 -0.28,0.41000000000000014 -0.19000000000000009,0.7400000000000003 c1.81,0 3.64,-0.010000000000000005 5.47,0.010000000000000005 c0.45,0 0.6600000000000005,-0.1600000000000001 0.8500000000000003,-0.5700000000000003 c0.6400000000000003,-1.44 1.34,-2.8600000000000003 1.9500000000000002,-4.33 c0.25,-0.5800000000000003 0.56,-0.79 1.2,-0.78 c4.7,0.03000000000000002 9.4,0.03000000000000002 14.1,0 c0.6400000000000003,0 0.9500000000000003,0.1600000000000001 1.2,0.78 c0.6100000000000003,1.48 1.31,2.94 1.96,4.41 c0.13,0.29000000000000015 0.25,0.49000000000000016 0.6500000000000004,0.49000000000000016 c1.8800000000000003,-0.03000000000000002 3.7600000000000002,-0.010000000000000005 5.79,-0.010000000000000005 C144.66465623855592,40.390580420494075 144.5646562385559,40.140580420494075 144.4646562385559,39.890580420494075 zM122.60465623855592,29.73058042049408 c1.85,-4.29 3.67,-8.45 5.5600000000000005,-12.8 c1.92,4.33 3.73,8.54 5.59,12.8 H122.60465623855592 z" id="svg_13"/>
			<path class="st7" d="M184.7746562385559,51.22058042049409 c-2.13,-0.8200000000000003 -4.24,-0.99 -6.25,0.6800000000000006 c0,-0.6000000000000003 0.010000000000000005,-1.07 -0.010000000000000005,-1.55 c-0.04000000000000002,-1.11 0.53,-1.81 1.5,-2.22 c1.17,-0.5 2.34,-0.44000000000000017 3.5,0.07 c0.5,0.2 0.9,0.53 1.06,1.07 c0.07,0.25 0.2,0.3400000000000003 0.45,0.3400000000000003 c0.7000000000000003,-0.010000000000000005 1.42,-0.010000000000000005 2.21,-0.010000000000000005 c-0.05000000000000003,-1.51 -0.6600000000000005,-2.6100000000000003 -1.92,-3.2 c-2.41,-1.17 -4.86,-1.2 -7.24,0.05000000000000003 c-1.42,0.7400000000000003 -2.12,2.01 -2.12,3.63 c-0.010000000000000005,1.6800000000000006 -0.010000000000000005,3.38 0,5.07 c0,1.55 0.6700000000000006,2.73 1.9500000000000002,3.5700000000000003 c2.09,1.4 5.44,1.4 7.55,0 c1.3900000000000001,-0.93 2.04,-2.25 1.9100000000000001,-3.92 C187.2246562385559,53.10058042049408 186.3646562385559,51.84058042049409 184.7746562385559,51.22058042049409 zM183.6146562385559,57.00058042049409 c-0.6200000000000003,0.3200000000000002 -1.3,0.44000000000000017 -2.03,0.44000000000000017 c-0.6700000000000006,-0.010000000000000005 -1.3800000000000001,-0.13 -2,-0.5 c-1.4,-0.8200000000000003 -1.46,-2.67 -0.05000000000000003,-3.48 c1.34,-0.78 2.77,-0.78 4.14,-0.08000000000000004 c0.7400000000000003,0.38000000000000017 1.13,1.03 1.1,1.8800000000000003 C184.7546562385559,56.08058042049407 184.3146562385559,56.630580420494084 183.6146562385559,57.00058042049409 z" id="svg_14"/>
			<path class="st7" d="M99.63465623855592,54.10058042049408 c0,-0.3400000000000003 0,-0.6000000000000003 0,-0.8600000000000003 c0,-2.27 0,-4.53 0,-6.8 c0,-0.6300000000000003 0.010000000000000005,-0.6400000000000003 0.6100000000000003,-0.6500000000000004 c0.52,-0.010000000000000005 1.04,0.010000000000000005 1.56,0 c0.28,-0.010000000000000005 0.4,0.11000000000000004 0.3900000000000002,0.3900000000000002 c-0.010000000000000005,0.1600000000000001 0,0.3300000000000002 0,0.49000000000000016 c0,4.01 0,8.03 0,12.04 c0,0.14 -0.010000000000000005,0.27 0,0.41000000000000014 c0.02000000000000001,0.31000000000000016 -0.1,0.46 -0.43000000000000016,0.44000000000000017 c-0.1600000000000001,-0.010000000000000005 -0.3300000000000002,-0.02000000000000001 -0.49000000000000016,0 c-0.49000000000000016,0.07 -0.8,-0.13 -1.09,-0.52 c-1.6900000000000006,-2.21 -3.41,-4.4 -5.12,-6.6 c-0.5,-0.6400000000000003 -1,-1.28 -1.54,-1.97 c-0.1600000000000001,0.27 -0.11000000000000004,0.49000000000000016 -0.11000000000000004,0.6900000000000006 c0,2.54 0,5.08 0,7.62 c0,0.78 -0.010000000000000005,0.78 -0.8200000000000003,0.79 c-0.44000000000000017,0 -0.8700000000000003,-0.02000000000000001 -1.31,0.010000000000000005 c-0.36000000000000015,0.02000000000000001 -0.47000000000000014,-0.14 -0.47000000000000014,-0.48000000000000015 c0.010000000000000005,-1.06 0,-2.13 0,-3.19 c0,-3.14 0,-6.28 0,-9.42 c0,-0.6600000000000005 0.02000000000000001,-0.6000000000000003 0.6700000000000006,-0.6800000000000006 c1.02,-0.12000000000000002 1.6900000000000006,0.23 2.3200000000000003,1.08 c1.6700000000000006,2.26 3.46,4.43 5.2,6.6400000000000015 C99.1546562385559,53.690580420494086 99.2746562385559,53.940580420494086 99.63465623855592,54.10058042049408 z" id="svg_15"/>
			<path class="st7" d="M200.7846562385559,49.99058042049407 c-0.6100000000000003,-2.58 -2.67,-4.3 -5.49,-4.46 c-3.16,-0.17 -5.88,1.83 -6.29,5.07 c-0.15000000000000008,1.19 -0.15000000000000008,2.41 -0.05000000000000003,3.6 c0.19000000000000009,2.58 1.47,4.4 3.96,5.28 c0.9500000000000003,0.3300000000000002 1.9300000000000002,0.36000000000000015 2.91,0.25 c2.3,-0.24000000000000007 4.2,-1.84 4.87,-4.05 c0.29000000000000015,-0.99 0.30000000000000016,-2 0.28,-3.03 C200.9946562385559,51.77058042049407 200.9946562385559,50.87058042049409 200.7846562385559,49.99058042049407 zM198.3746562385559,52.73058042049408 c0,0.41000000000000014 0.010000000000000005,0.8200000000000003 0,1.23 c-0.11000000000000004,1.96 -1.5,3.42 -3.38,3.42 c-1.75,0 -3.24,-1.09 -3.47,-3.22 c-0.09000000000000007,-0.99 -0.11000000000000004,-2.03 0,-3.02 c0.25,-2.29 1.9300000000000002,-3.2 3.51,-3.16 c1.85,0.04000000000000002 3.23,1.46 3.34,3.36 C198.4046562385559,51.80058042049407 198.3746562385559,52.26058042049408 198.3746562385559,52.73058042049408 z" id="svg_16"/>
			<path class="st7" d="M118.0546562385559,58.860580420494074 c-0.6500000000000004,-1.47 -1.31,-2.93 -1.97,-4.4 c-1.2,-2.6900000000000004 -2.41,-5.38 -3.59,-8.08 c-0.21000000000000008,-0.48000000000000015 -0.48000000000000015,-0.6600000000000005 -0.98,-0.6100000000000003 c-0.46,0.04000000000000002 -0.93,0.04000000000000002 -1.3900000000000001,0 c-0.5700000000000003,-0.05000000000000003 -0.8600000000000003,0.15000000000000008 -1.1,0.6900000000000006 c-1.81,4.12 -3.67,8.22 -5.49,12.33 c-0.09000000000000007,0.21000000000000008 -0.28,0.41000000000000014 -0.19000000000000009,0.7500000000000003 c0.7100000000000003,0 1.44,-0.03000000000000002 2.17,0.010000000000000005 c0.41000000000000014,0.010000000000000005 0.5800000000000003,-0.1600000000000001 0.7300000000000003,-0.49000000000000016 c0.23,-0.56 0.52,-1.09 0.7300000000000003,-1.6400000000000001 c0.15000000000000008,-0.36000000000000015 0.36000000000000015,-0.49000000000000016 0.7400000000000003,-0.49000000000000016 c2.05,0.010000000000000005 4.09,0.03000000000000002 6.14,0 c0.4,0 0.5800000000000003,0.15000000000000008 0.7100000000000003,0.49000000000000016 c0.24000000000000007,0.5800000000000003 0.52,1.15 0.77,1.7200000000000002 c0.11000000000000004,0.25 0.24000000000000007,0.41000000000000014 0.54,0.4 c0.78,-0.010000000000000005 1.56,0 2.36,0 C118.26465623855592,59.24058042049407 118.14465623855591,59.06058042049409 118.0546562385559,58.860580420494074 zM108.42465623855591,54.51058042049408 c0.04000000000000002,-0.5800000000000003 1.24,-3.52 2.37,-5.75 c0.8300000000000003,1.92 1.6400000000000001,3.77 2.5,5.75 H108.42465623855591 z" id="svg_17"/>
			<path class="st7" d="M76.7746562385559,56.50058042049409 c0.6300000000000003,-0.3300000000000002 1.19,-0.6100000000000003 1.7400000000000002,-0.92 c0.25,-0.14 0.41000000000000014,-0.17 0.5900000000000003,0.13 c0.92,1.53 2.4,1.87 4.03,1.83 c0.6000000000000003,-0.010000000000000005 1.19,-0.12000000000000002 1.7400000000000002,-0.41000000000000014 c0.6600000000000005,-0.3400000000000003 1.06,-0.8300000000000003 1.07,-1.61 c0.010000000000000005,-0.8 -0.46,-1.25 -1.13,-1.55 c-0.6300000000000003,-0.29000000000000015 -1.3,-0.4 -1.98,-0.48000000000000015 c-1.11,-0.13 -2.22,-0.30000000000000016 -3.25,-0.77 c-1.83,-0.8200000000000003 -2.64,-2.62 -2.04,-4.54 c0.29000000000000015,-0.91 0.8700000000000003,-1.59 1.7000000000000002,-2.02 c2.3200000000000003,-1.18 4.67,-1.17 7.01,-0.07 c0.6800000000000006,0.3200000000000002 1.19,0.8600000000000003 1.61,1.48 c0.2,0.30000000000000016 0.25,0.52 -0.1600000000000001,0.6900000000000006 c-0.43000000000000016,0.18000000000000008 -0.8300000000000003,0.41000000000000014 -1.24,0.6400000000000003 c-0.28,0.1600000000000001 -0.45,0.11000000000000004 -0.6900000000000006,-0.12000000000000002 c-1.28,-1.24 -2.8200000000000003,-1.44 -4.49,-0.99 c-0.3400000000000003,0.09000000000000007 -0.6500000000000004,0.27 -0.91,0.53 c-0.6900000000000006,0.7100000000000003 -0.56,1.73 0.31000000000000016,2.21 c0.56,0.31000000000000016 1.18,0.42000000000000015 1.8,0.5 c0.8900000000000003,0.13 1.79,0.21000000000000008 2.66,0.47000000000000014 c0.24000000000000007,0.07 0.47000000000000014,0.13 0.7000000000000003,0.22000000000000008 c1.7200000000000002,0.6400000000000003 2.6100000000000003,1.79 2.68,3.45 c0.07,1.9300000000000002 -0.7400000000000003,3.3 -2.44,4.06 c-1.46,0.6500000000000004 -3.01,0.7500000000000003 -4.58,0.5800000000000003 c-0.7600000000000003,-0.08000000000000004 -1.51,-0.25 -2.21,-0.5800000000000003 C78.11465623855591,58.690580420494086 77.28465623855591,57.79058042049408 76.7746562385559,56.50058042049409 z" id="svg_18"/>
			<path class="st7" d="M144.01465623855592,49.440580420494086 c-0.48000000000000015,-2.14 -2.18,-3.5700000000000003 -4.38,-3.64 c-2.07,-0.07 -4.14,-0.010000000000000005 -6.22,-0.010000000000000005 c-0.8200000000000003,-0.010000000000000005 -0.77,-0.03000000000000002 -0.77,0.7400000000000003 v6.06 c0,2.12 0.010000000000000005,4.25 0,6.38 c0,0.4 0.09000000000000007,0.6100000000000003 0.54,0.5700000000000003 c0.52,-0.03000000000000002 1.03,-0.03000000000000002 1.55,0 c0.41000000000000014,0.03000000000000002 0.53,-0.13 0.52,-0.52 c-0.03000000000000002,-0.98 -0.010000000000000005,-1.97 0,-2.95 c0,-0.5700000000000003 0.010000000000000005,-0.5800000000000003 0.5800000000000003,-0.6000000000000003 c1.2,0 2.4,0.03000000000000002 3.6,0 C142.7146562385559,55.390580420494075 144.7246562385559,52.60058042049408 144.01465623855592,49.440580420494086 zM139.5346562385559,53.06058042049409 c-1.3,0.17 -2.6100000000000003,0.04000000000000002 -3.92,0.07 c-0.28,0.010000000000000005 -0.38000000000000017,-0.13 -0.38000000000000017,-0.4 c0.010000000000000005,-0.6800000000000006 0.010000000000000005,-1.36 0.010000000000000005,-2.04 c-0.010000000000000005,-0.6600000000000005 0,-1.31 -0.010000000000000005,-1.97 c0,-0.28 0.04000000000000002,-0.46 0.4,-0.46 c1.26,0.010000000000000005 2.52,-0.03000000000000002 3.7600000000000002,0.03000000000000002 c1.26,0.07 2.14,1.06 2.2,2.33 C141.6446562385559,51.85058042049408 140.8146562385559,52.890580420494075 139.5346562385559,53.06058042049409 z" id="svg_19"/>
			<path class="st7" d="M172.0846562385559,52.49058042049407 c0.18000000000000008,0.11000000000000004 0.26,0.17 0.35000000000000014,0.23 c2.55,1.47 1.8800000000000003,4.54 0.3200000000000002,5.74 c-0.8900000000000003,0.6900000000000006 -1.9100000000000001,1.03 -3.01,1.18 c-1.48,0.21000000000000008 -2.95,0.14 -4.35,-0.42000000000000015 c-1.19,-0.47000000000000014 -2.12,-1.23 -2.5,-2.52 c-0.08000000000000004,-0.26 -0.1,-0.53 -0.14,-0.8 c-0.05000000000000003,-0.28 0.07,-0.41000000000000014 0.36000000000000015,-0.4 c0.41000000000000014,0.010000000000000005 0.8200000000000003,0.02000000000000001 1.23,0 c0.56,-0.03000000000000002 1.07,-0.05000000000000003 1.21,0.7000000000000003 c0.07,0.35000000000000014 0.43000000000000016,0.56 0.7500000000000003,0.7200000000000003 c1.33,0.6600000000000005 2.68,0.6900000000000006 4.02,0.04000000000000002 c0.8,-0.3900000000000002 1.12,-0.98 1.04,-1.77 c-0.08000000000000004,-0.8400000000000003 -0.6400000000000003,-1.24 -1.36,-1.44 c-0.8800000000000003,-0.25 -1.78,-0.2 -2.6900000000000004,-0.21000000000000008 c-1.1,-0.010000000000000005 -0.9500000000000003,0.15000000000000008 -0.9600000000000003,-0.9500000000000003 c-0.010000000000000005,-1.1600000000000001 0,-1.15 1.18,-1.1600000000000001 c0.52,0 1.04,-0.02000000000000001 1.56,-0.04000000000000002 c0.5,-0.03000000000000002 0.97,-0.1600000000000001 1.4,-0.42000000000000015 c0.8,-0.5 0.93,-1.47 0.31000000000000016,-2.19 c-0.30000000000000016,-0.3400000000000003 -0.6900000000000006,-0.54 -1.12,-0.6500000000000004 c-0.92,-0.25 -1.84,-0.23 -2.75,0.05000000000000003 c-0.6100000000000003,0.19000000000000009 -1.17,0.48000000000000015 -1.36,1.18 c-0.05000000000000003,0.2 -0.17,0.26 -0.35000000000000014,0.27 c-0.6600000000000005,0 -1.31,0 -1.97,0 c-0.3300000000000002,0 -0.3300000000000002,-0.21000000000000008 -0.31000000000000016,-0.45 c0.1,-0.9400000000000003 0.52,-1.71 1.25,-2.31 c0.7600000000000003,-0.6200000000000003 1.6500000000000006,-0.9500000000000003 2.6,-1.12 c1.48,-0.25 2.93,-0.21000000000000008 4.35,0.36000000000000015 c0.49000000000000016,0.2 0.93,0.46 1.33,0.79 C174.1146562385559,48.21058042049407 174.4946562385559,51.140580420494075 172.0846562385559,52.49058042049407 z" id="svg_20"/>
			<path class="st7" d="M126.07465623855592,45.79058042049408 c-2.05,-0.04000000000000002 -4.1,-0.010000000000000005 -6.14,0 c-0.6100000000000003,0 -0.6200000000000003,0.010000000000000005 -0.6200000000000003,0.6400000000000003 v8.2 c0,1.42 -0.010000000000000005,2.83 0,4.26 c0,0.6500000000000004 0.010000000000000005,0.6500000000000004 0.6900000000000006,0.6600000000000005 c0.44000000000000017,0 0.8700000000000003,-0.03000000000000002 1.31,0 c0.44000000000000017,0.04000000000000002 0.5700000000000003,-0.13 0.56,-0.56 c-0.03000000000000002,-0.9500000000000003 -0.010000000000000005,-1.9100000000000001 0,-2.8600000000000003 c0,-0.6400000000000003 0.010000000000000005,-0.6400000000000003 0.6400000000000003,-0.6500000000000004 c1.19,0 2.4,0.04000000000000002 3.6,0 c1.85,-0.08000000000000004 3.31,-0.8700000000000003 4.17,-2.5700000000000003 C131.76465623855592,49.920580420494076 130.07465623855592,45.880580420494084 126.07465623855592,45.79058042049408 zM126.2446562385559,53.05058042049407 c-1.34,0.2 -2.67,0.05000000000000003 -4.01,0.08000000000000004 c-0.29000000000000015,0.010000000000000005 -0.37000000000000016,-0.1600000000000001 -0.37000000000000016,-0.41000000000000014 v-2.05 c0,-0.6500000000000004 0,-1.31 -0.010000000000000005,-1.96 c0,-0.30000000000000016 0.11000000000000004,-0.45 0.42000000000000015,-0.45 c1.26,0.010000000000000005 2.52,-0.04000000000000002 3.77,0.03000000000000002 c1.23,0.07 2.11,1.03 2.17,2.26 C128.2746562385559,51.85058042049408 127.51465623855592,52.860580420494074 126.2446562385559,53.05058042049407 z" id="svg_21"/>
			<path class="st7" d="M144.8346562385559,45.79058042049408 c1.04,0 1.94,0.010000000000000005 2.83,-0.010000000000000005 c0.35000000000000014,-0.010000000000000005 0.46,0.22000000000000008 0.6100000000000003,0.45 c0.9,1.46 1.8,2.93 2.7,4.39 c0.14,0.23 0.29000000000000015,0.45 0.43000000000000016,0.6800000000000006 c0.27,-0.07 0.3300000000000002,-0.30000000000000016 0.45,-0.48000000000000015 c0.9600000000000003,-1.49 1.94,-2.9699999999999998 2.87,-4.48 c0.26,-0.42000000000000015 0.56,-0.5900000000000003 1.05,-0.5700000000000003 c0.79,0.04000000000000002 1.57,0.010000000000000005 2.4,0.010000000000000005 c-0.010000000000000005,0.38000000000000017 -0.25,0.5800000000000003 -0.41000000000000014,0.8200000000000003 c-1.54,2.25 -3.08,4.5 -4.6400000000000015,6.74 c-0.25,0.35000000000000014 -0.35000000000000014,0.7100000000000003 -0.35000000000000014,1.1400000000000001 c0.02000000000000001,1.5 0,3 0.010000000000000005,4.5 c0.010000000000000005,0.41000000000000014 -0.11000000000000004,0.6000000000000003 -0.55,0.5700000000000003 c-0.52,-0.03000000000000002 -1.04,-0.03000000000000002 -1.55,0 c-0.41000000000000014,0.02000000000000001 -0.51,-0.1600000000000001 -0.5,-0.53 c0.010000000000000005,-1.47 -0.010000000000000005,-2.95 0.02000000000000001,-4.42 c0.010000000000000005,-0.52 -0.14,-0.9400000000000003 -0.42000000000000015,-1.36 c-1.48,-2.2 -2.93,-4.41 -4.39,-6.61 C145.2246562385559,46.400580420494066 145.0846562385559,46.170580420494076 144.8346562385559,45.79058042049408 z" id="svg_22"/>
		</g>
	</g>
	<g id="svg_23">
		<g id="svg_24">
			<g id="svg_25">
				<path class="st7" d="M203.0346562385559,6.360580420494074 l-0.7500000000000003,-1.07 c-0.03000000000000002,0 -0.08000000000000004,0.010000000000000005 -0.14,0.010000000000000005 h-0.8300000000000003 v1.07 h-0.6800000000000006 v-3.66 h1.51 c0.3200000000000002,0 0.5900000000000003,0.05000000000000003 0.8300000000000003,0.1600000000000001 c0.24000000000000007,0.1 0.42000000000000015,0.25 0.54,0.45 s0.19000000000000009,0.43000000000000016 0.19000000000000009,0.7000000000000003 c0,0.28 -0.07,0.51 -0.2,0.7100000000000003 c-0.13,0.2 -0.3300000000000002,0.35000000000000014 -0.5800000000000003,0.44000000000000017 l0.8400000000000003,1.2 H203.0346562385559 zM202.79465623855592,3.4605804204940824 c-0.15000000000000008,-0.13 -0.38000000000000017,-0.19000000000000009 -0.6700000000000006,-0.19000000000000009 h-0.8 v1.46 h0.8 c0.30000000000000016,0 0.52,-0.06000000000000003 0.6700000000000006,-0.19000000000000009 c0.15000000000000008,-0.13 0.23,-0.31000000000000016 0.23,-0.54 C203.0246562385559,3.7605804204940796 202.94465623855592,3.5805804204940728 202.79465623855592,3.4605804204940824 z" id="svg_26"/>
			</g>
		</g>
		<g id="svg_27">
			<path class="st7" d="M202.2046562385559,8.130580420494084 c-1.99,0 -3.6,-1.62 -3.6,-3.6 s1.62,-3.6 3.6,-3.6 s3.6,1.62 3.6,3.6 S204.19465623855592,8.130580420494084 202.2046562385559,8.130580420494084 zM202.2046562385559,1.360580420494074 c-1.75,0 -3.17,1.42 -3.17,3.17 c0,1.75 1.42,3.17 3.17,3.17 c1.75,0 3.17,-1.42 3.17,-3.17 C205.3746562385559,2.7805804204940756 203.9546562385559,1.360580420494074 202.2046562385559,1.360580420494074 z" id="svg_28"/>
		</g>
	</g>
</g></g></svg>