<?xml version="1.0" encoding="utf-8" standalone="no"?>
<!DOCTYPE svg PUBLIC "-//W3C//DTD SVG 1.1//EN"
  "http://www.w3.org/Graphics/SVG/1.1/DTD/svg11.dtd">
<svg xmlns:xlink="http://www.w3.org/1999/xlink" width="590.4pt" height="460.8pt" viewBox="0 0 590.4 460.8" xmlns="http://www.w3.org/2000/svg" version="1.1">
 <metadata>
  <rdf:RDF xmlns:dc="http://purl.org/dc/elements/1.1/" xmlns:cc="http://creativecommons.org/ns#" xmlns:rdf="http://www.w3.org/1999/02/22-rdf-syntax-ns#">
   <cc:Work>
    <dc:type rdf:resource="http://purl.org/dc/dcmitype/StillImage"/>
    <dc:date>2026-09-28T11:01:08.796361</dc:date>
    <dc:format>image/svg+xml</dc:format>
    <dc:creator>
     <cc:Agent>
      <dc:title>Matplotlib v3.11.2, https://matplotlib.org/</dc:title>
     </cc:Agent>
    </dc:creator>
   </cc:Work>
  </rdf:RDF>
 </metadata>
 <defs>
  <style type="text/css">*{stroke-linejoin: round; stroke-linecap: butt}</style>
 </defs>
 <g id="figure_1">
  <g id="patch_1">
   <path d="M 0 460.8 
L 590.4 460.8 
L 590.4 0 
L 0 0 
L 0 460.8 
z
" style="fill: none"/>
  </g>
  <g id="axes_1">
   <g id="patch_2">
    <path d="M 299.313995 418.56 
L 404.87105 418.56 
L 404.87105 42.24 
L 200.58175 42.24 
L 200.58175 297.988364 
L 299.313995 297.988364 
z
" clip-path="url(#p821de337a7)" style="fill: #f3efe5; stroke: #c6c4b9; stroke-width: 0.6; stroke-linejoin: miter"/>
   </g>
   <g id="patch_3">
    <path d="M 272.924732 285.703707 
L 272.924732 215.635662 
L 302.953894 215.635662 
L 302.953894 285.703707 
z
" clip-path="url(#p821de337a7)" style="fill: #d7c5a9; stroke: #a99b85; stroke-width: 0.55; stroke-linejoin: miter"/>
   </g>
   <g id="patch_4">
    <path d="M 384.169128 286.613682 
L 384.169128 253.854596 
L 404.188569 253.854596 
L 404.188569 286.613682 
z
" clip-path="url(#p821de337a7)" style="fill: #d7c5a9; stroke: #a99b85; stroke-width: 0.55; stroke-linejoin: miter"/>
   </g>
   <g id="patch_5">
    <path d="M 346.632675 348.719449 
L 346.632675 320.055248 
L 402.141126 320.055248 
L 402.141126 348.719449 
z
" clip-path="url(#p821de337a7)" style="fill: #d7c5a9; stroke: #a99b85; stroke-width: 0.55; stroke-linejoin: miter"/>
   </g>
   <g id="patch_6">
    <path d="M 201.946712 290.25358 
L 201.946712 252.125644 
L 230.838406 252.125644 
L 230.838406 290.25358 
z
" clip-path="url(#p821de337a7)" style="fill: #d7c5a9; stroke: #a99b85; stroke-width: 0.55; stroke-linejoin: miter"/>
   </g>
   <g id="patch_7">
    <path d="M 202.743976 123.742978 
L 202.159456 123.158459 
L 201.94671 122.363276 
L 201.94671 89.604178 
L 202.159456 88.808995 
L 202.743976 88.224475 
L 203.539159 88.011729 
L 280.432038 88.011729 
L 281.227221 88.224475 
L 281.81174 88.808995 
L 282.024486 89.604178 
L 282.024486 122.363276 
L 281.81174 123.158459 
L 281.227221 123.742978 
L 280.432038 123.955724 
L 203.539159 123.955724 
z
" clip-path="url(#p821de337a7)" style="fill: #d7c5a9; stroke: #a99b85; stroke-width: 0.55; stroke-linejoin: miter"/>
   </g>
   <g id="patch_8">
    <path d="M 212.570859 117.543342 
L 212.453964 117.426425 
L 212.411441 117.267418 
L 212.411441 94.700035 
L 212.453964 94.540985 
L 212.570859 94.424068 
L 212.729931 94.381545 
L 278.976054 94.381545 
L 279.135125 94.424068 
L 279.25202 94.540985 
L 279.294543 94.700035 
L 279.294543 117.267418 
L 279.25202 117.426425 
L 279.135125 117.543342 
L 278.976054 117.585908 
L 212.729931 117.585908 
z
" clip-path="url(#p821de337a7)" style="fill: #d7c5a9; stroke: #a99b85; stroke-width: 0.55; stroke-linejoin: miter"/>
   </g>
   <g id="patch_9">
    <path d="M 202.743976 171.516654 
L 202.159456 170.932134 
L 201.94671 170.13693 
L 201.94671 137.377832 
L 202.159456 136.582627 
L 202.743976 135.998107 
L 203.539159 135.785383 
L 280.432038 135.785383 
L 281.227221 135.998107 
L 281.81174 136.582627 
L 282.024486 137.377832 
L 282.024486 170.13693 
L 281.81174 170.932134 
L 281.227221 171.516654 
L 280.432038 171.729378 
L 203.539159 171.729378 
z
" clip-path="url(#p821de337a7)" style="fill: #d7c5a9; stroke: #a99b85; stroke-width: 0.55; stroke-linejoin: miter"/>
   </g>
   <g id="patch_10">
    <path d="M 212.570859 165.317017 
L 212.453964 165.2001 
L 212.411441 165.041072 
L 212.411441 142.473711 
L 212.453964 142.314704 
L 212.570859 142.197787 
L 212.729931 142.155221 
L 278.976054 142.155221 
L 279.135125 142.197787 
L 279.25202 142.314704 
L 279.294543 142.473711 
L 279.294543 165.041072 
L 279.25202 165.2001 
L 279.135125 165.317017 
L 278.976054 165.359562 
L 212.729931 165.359562 
z
" clip-path="url(#p821de337a7)" style="fill: #d7c5a9; stroke: #a99b85; stroke-width: 0.55; stroke-linejoin: miter"/>
   </g>
   <g id="line2d_1">
    <path d="M 200.58175 25.3056 
L 404.87105 25.3056 
" clip-path="url(#p821de337a7)" style="fill: none; stroke: #697169; stroke-width: 0.65; stroke-linecap: square"/>
   </g>
   <g id="line2d_2">
    <path d="M 200.58175 28.69248 
L 200.58175 21.91872 
" clip-path="url(#p821de337a7)" style="fill: none; stroke: #697169; stroke-width: 0.65; stroke-linecap: square"/>
   </g>
   <g id="line2d_3">
    <path d="M 404.87105 28.69248 
L 404.87105 21.91872 
" clip-path="url(#p821de337a7)" style="fill: none; stroke: #697169; stroke-width: 0.65; stroke-linecap: square"/>
   </g>
   <g id="line2d_4">
    <path d="M 182.51839 418.56 
L 182.51839 42.24 
" clip-path="url(#p821de337a7)" style="fill: none; stroke: #697169; stroke-width: 0.65; stroke-linecap: square"/>
   </g>
   <g id="line2d_5">
    <path d="M 179.13151 418.56 
L 185.90527 418.56 
" clip-path="url(#p821de337a7)" style="fill: none; stroke: #697169; stroke-width: 0.65; stroke-linecap: square"/>
   </g>
   <g id="line2d_6">
    <path d="M 179.13151 42.24 
L 185.90527 42.24 
" clip-path="url(#p821de337a7)" style="fill: none; stroke: #697169; stroke-width: 0.65; stroke-linecap: square"/>
   </g>
   <g id="line2d_7">
    <path d="M 200.58175 440.01024 
L 291.579211 440.01024 
" clip-path="url(#p821de337a7)" style="fill: none; stroke: #273c34; stroke-width: 1.4; stroke-linecap: square"/>
   </g>
   <g id="line2d_8">
    <path d="M 200.58175 441.89184 
L 200.58175 438.12864 
" clip-path="url(#p821de337a7)" style="fill: none; stroke: #273c34; stroke-width: 0.7; stroke-linecap: square"/>
   </g>
   <g id="line2d_9">
    <path d="M 246.080481 441.89184 
L 246.080481 438.12864 
" clip-path="url(#p821de337a7)" style="fill: none; stroke: #273c34; stroke-width: 0.7; stroke-linecap: square"/>
   </g>
   <g id="line2d_10">
    <path d="M 291.579211 441.89184 
L 291.579211 438.12864 
" clip-path="url(#p821de337a7)" style="fill: none; stroke: #273c34; stroke-width: 0.7; stroke-linecap: square"/>
   </g>
   <g id="text_1">
    <text style="font-size: 8px; font-family: 'DejaVu Sans'; text-anchor: middle; fill: #465449" x="302.7264" y="21.5424" transform="rotate(-0 302.7264 21.5424)">4.49 m overall span</text>
   </g>
   <g id="text_2">
    <text style="font-size: 8px; font-family: 'DejaVu Sans'; fill: #465449" transform="translate(178.575708 270.22) rotate(-90)">8.27 m overall span</text>
   </g>
   <g id="text_3">
    <text style="font-size: 7px; font-family: 'DejaVu Sans'; text-anchor: middle; fill: #273c34" x="200.58175" y="436.24704" transform="rotate(-0 200.58175 436.24704)">0</text>
   </g>
   <g id="text_4">
    <text style="font-size: 7px; font-family: 'DejaVu Sans'; text-anchor: middle; fill: #273c34" x="246.080481" y="436.24704" transform="rotate(-0 246.080481 436.24704)">1</text>
   </g>
   <g id="text_5">
    <text style="font-size: 7px; font-family: 'DejaVu Sans'; text-anchor: middle; fill: #273c34" x="291.579211" y="436.24704" transform="rotate(-0 291.579211 436.24704)">2 m</text>
   </g>
   <g id="patch_11">
    <path d="M 415.335758 436.759492 
L 404.87105 436.759492 
L 404.87105 391.260762 
L 415.335758 391.260762 
z
" clip-path="url(#p821de337a7)" style="fill: #525d52"/>
   </g>
   <g id="patch_12">
    <path d="M 410.649389 391.260762 
L 409.557419 391.260762 
L 409.557419 300.263301 
L 410.649389 300.263301 
z
" clip-path="url(#p821de337a7)" style="fill: #cbdedb"/>
   </g>
   <g id="patch_13">
    <path d="M 409.011434 392.352731 
L 409.011434 390.168747 
L 411.195374 390.168747 
L 411.195374 392.352731 
z
" clip-path="url(#p821de337a7)" style="fill: #525d52"/>
   </g>
   <g id="patch_14">
    <path d="M 409.011434 346.854001 
L 409.011434 344.670016 
L 411.195374 344.670016 
L 411.195374 346.854001 
z
" clip-path="url(#p821de337a7)" style="fill: #525d52"/>
   </g>
   <g id="patch_15">
    <path d="M 409.011434 301.35527 
L 409.011434 299.171286 
L 411.195374 299.171286 
L 411.195374 301.35527 
z
" clip-path="url(#p821de337a7)" style="fill: #525d52"/>
   </g>
   <g id="patch_16">
    <path d="M 415.335758 300.263301 
L 404.87105 300.263301 
L 404.87105 281.608821 
L 415.335758 281.608821 
z
" clip-path="url(#p821de337a7)" style="fill: #525d52"/>
   </g>
   <g id="patch_17">
    <path d="M 410.649389 281.608821 
L 409.557419 281.608821 
L 409.557419 190.61136 
L 410.649389 190.61136 
z
" clip-path="url(#p821de337a7)" style="fill: #cbdedb"/>
   </g>
   <g id="patch_18">
    <path d="M 409.011434 282.700791 
L 409.011434 280.516852 
L 411.195374 280.516852 
L 411.195374 282.700791 
z
" clip-path="url(#p821de337a7)" style="fill: #525d52"/>
   </g>
   <g id="patch_19">
    <path d="M 409.011434 237.20206 
L 409.011434 235.018121 
L 411.195374 235.018121 
L 411.195374 237.20206 
z
" clip-path="url(#p821de337a7)" style="fill: #525d52"/>
   </g>
   <g id="patch_20">
    <path d="M 409.011434 191.70333 
L 409.011434 189.519391 
L 411.195374 189.519391 
L 411.195374 191.70333 
z
" clip-path="url(#p821de337a7)" style="fill: #525d52"/>
   </g>
   <g id="patch_21">
    <path d="M 415.335758 190.61136 
L 404.87105 190.61136 
L 404.87105 42.24 
L 415.335758 42.24 
z
" clip-path="url(#p821de337a7)" style="fill: #525d52"/>
   </g>
   <g id="patch_22">
    <path d="M 195.121902 42.285499 
L 195.121902 31.820791 
L 220.601191 31.820791 
L 220.601191 42.285499 
z
" clip-path="url(#p821de337a7)" style="fill: #525d52"/>
   </g>
   <g id="patch_23">
    <path d="M 215.368837 37.053145 
L 225.833545 37.053145 
L 225.833545 42.24 
L 215.368837 42.24 
z
" clip-path="url(#p821de337a7)" style="fill: #525d52"/>
   </g>
   <g id="patch_24">
    <path d="M 220.601191 52.704708 
L 220.601191 42.24 
L 268.147365 42.24 
L 268.147365 52.704708 
z
" clip-path="url(#p821de337a7)" style="fill: #525d52"/>
   </g>
   <g id="patch_25">
    <path d="M 377.344318 52.704708 
L 377.344318 42.24 
L 415.335758 42.24 
L 415.335758 52.704708 
z
" clip-path="url(#p821de337a7)" style="fill: #525d52"/>
   </g>
   <g id="patch_26">
    <path d="M 268.147365 48.018339 
L 268.147365 46.926369 
L 322.745841 46.926369 
L 322.745841 48.018339 
z
" clip-path="url(#p821de337a7)" style="fill: #cbdedb"/>
   </g>
   <g id="patch_27">
    <path d="M 267.055395 48.564324 
L 267.055395 46.380384 
L 269.239334 46.380384 
L 269.239334 48.564324 
z
" clip-path="url(#p821de337a7)" style="fill: #525d52"/>
   </g>
   <g id="patch_28">
    <path d="M 321.653872 48.564324 
L 321.653872 46.380384 
L 323.837811 46.380384 
L 323.837811 48.564324 
z
" clip-path="url(#p821de337a7)" style="fill: #525d52"/>
   </g>
   <g id="patch_29">
    <path d="M 377.344318 46.926369 
L 377.344318 48.018339 
L 322.745841 48.018339 
L 322.745841 46.926369 
z
" clip-path="url(#p821de337a7)" style="fill: #cbdedb"/>
   </g>
   <g id="patch_30">
    <path d="M 376.252348 48.564324 
L 376.252348 46.380384 
L 378.436333 46.380384 
L 378.436333 48.564324 
z
" clip-path="url(#p821de337a7)" style="fill: #525d52"/>
   </g>
   <g id="patch_31">
    <path d="M 321.653872 48.564324 
L 321.653872 46.380384 
L 323.837811 46.380384 
L 323.837811 48.564324 
z
" clip-path="url(#p821de337a7)" style="fill: #525d52"/>
   </g>
   <g id="patch_32">
    <path d="M 182.382258 305.723148 
L 182.382258 295.25844 
L 294.081641 295.25844 
L 294.081641 305.723148 
z
" clip-path="url(#p821de337a7)" style="fill: #525d52"/>
   </g>
   <g id="patch_33">
    <path d="M 299.313995 436.759492 
L 288.849287 436.759492 
L 288.849287 300.490794 
L 299.313995 300.490794 
z
" clip-path="url(#p821de337a7)" style="fill: #525d52"/>
   </g>
   <g id="patch_34">
    <path d="M 299.313995 423.56486 
L 299.313995 418.105013 
L 326.613234 418.105013 
L 326.613234 423.56486 
z
" clip-path="url(#p821de337a7)" style="fill: #525d52"/>
   </g>
   <g id="patch_35">
    <path d="M 367.562091 423.56486 
L 367.562091 418.105013 
L 410.103404 418.105013 
L 410.103404 423.56486 
z
" clip-path="url(#p821de337a7)" style="fill: #525d52"/>
   </g>
   <g id="patch_36">
    <path d="M 225.833545 37.053145 
L 215.368837 37.053145 
L 215.368837 24.040508 
L 225.833545 24.040508 
z
" clip-path="url(#p821de337a7)" style="fill: #525d52"/>
   </g>
   <g id="patch_37">
    <path d="M 200.58175 300.490794 
L 195.121902 300.490794 
L 195.121902 291.391048 
L 200.58175 291.391048 
z
" clip-path="url(#p821de337a7)" style="fill: #525d52"/>
   </g>
   <g id="patch_38">
    <path d="M 198.397811 291.391048 
L 197.305841 291.391048 
L 197.305841 227.692826 
L 198.397811 227.692826 
z
" clip-path="url(#p821de337a7)" style="fill: #cbdedb"/>
   </g>
   <g id="patch_39">
    <path d="M 196.759857 292.483018 
L 196.759857 290.299079 
L 198.943796 290.299079 
L 198.943796 292.483018 
z
" clip-path="url(#p821de337a7)" style="fill: #525d52"/>
   </g>
   <g id="patch_40">
    <path d="M 196.759857 260.633906 
L 196.759857 258.449967 
L 198.943796 258.449967 
L 198.943796 260.633906 
z
" clip-path="url(#p821de337a7)" style="fill: #525d52"/>
   </g>
   <g id="patch_41">
    <path d="M 196.759857 228.784795 
L 196.759857 226.600856 
L 198.943796 226.600856 
L 198.943796 228.784795 
z
" clip-path="url(#p821de337a7)" style="fill: #525d52"/>
   </g>
   <g id="patch_42">
    <path d="M 200.58175 227.692826 
L 195.121902 227.692826 
L 195.121902 218.593079 
L 200.58175 218.593079 
z
" clip-path="url(#p821de337a7)" style="fill: #525d52"/>
   </g>
   <g id="patch_43">
    <path d="M 200.58175 173.094349 
L 195.121902 173.094349 
L 195.121902 141.245238 
L 200.58175 141.245238 
z
" clip-path="url(#p821de337a7)" style="fill: #525d52"/>
   </g>
   <g id="patch_44">
    <path d="M 198.397811 141.245238 
L 197.305841 141.245238 
L 197.305841 59.347523 
L 198.397811 59.347523 
z
" clip-path="url(#p821de337a7)" style="fill: #cbdedb"/>
   </g>
   <g id="patch_45">
    <path d="M 196.759857 142.337207 
L 196.759857 140.153268 
L 198.943796 140.153268 
L 198.943796 142.337207 
z
" clip-path="url(#p821de337a7)" style="fill: #525d52"/>
   </g>
   <g id="patch_46">
    <path d="M 196.759857 101.38835 
L 196.759857 99.204411 
L 198.943796 99.204411 
L 198.943796 101.38835 
z
" clip-path="url(#p821de337a7)" style="fill: #525d52"/>
   </g>
   <g id="patch_47">
    <path d="M 196.759857 60.439492 
L 196.759857 58.255553 
L 198.943796 58.255553 
L 198.943796 60.439492 
z
" clip-path="url(#p821de337a7)" style="fill: #525d52"/>
   </g>
   <g id="patch_48">
    <path d="M 200.58175 59.347523 
L 195.121902 59.347523 
L 195.121902 39.510076 
L 200.58175 39.510076 
z
" clip-path="url(#p821de337a7)" style="fill: #525d52"/>
   </g>
   <g id="patch_49">
    <path d="M 316.35327 50.589017 
L 316.35327 49.633544 
L 317.308743 49.633544 
L 317.308743 50.589017 
z
" clip-path="url(#p821de337a7)" style="fill: #525d52"/>
   </g>
   <g id="patch_50">
    <path d="M 316.35327 45.311164 
L 316.35327 44.355691 
L 317.308743 44.355691 
L 317.308743 45.311164 
z
" clip-path="url(#p821de337a7)" style="fill: #525d52"/>
   </g>
   <g id="patch_51">
    <path d="M 328.18294 45.311164 
L 328.18294 44.355691 
L 329.138413 44.355691 
L 329.138413 45.311164 
z
" clip-path="url(#p821de337a7)" style="fill: #525d52"/>
   </g>
   <g id="patch_52">
    <path d="M 328.18294 50.589017 
L 328.18294 49.633544 
L 329.138413 49.633544 
L 329.138413 50.589017 
z
" clip-path="url(#p821de337a7)" style="fill: #525d52"/>
   </g>
   <g id="LineCollection_1">
    <path d="M 415.335758 461.8 
L 415.335758 391.260762 
" clip-path="url(#p821de337a7)" style="fill: none; stroke: #3e493f; stroke-width: 0.6"/>
    <path d="M 404.87105 391.260762 
L 415.335758 391.260762 
" clip-path="url(#p821de337a7)" style="fill: none; stroke: #3e493f; stroke-width: 0.6"/>
    <path d="M 404.87105 461.8 
L 404.87105 391.260762 
" clip-path="url(#p821de337a7)" style="fill: none; stroke: #3e493f; stroke-width: 0.6"/>
    <path clip-path="url(#p821de337a7)" style="fill: none; stroke: #3e493f; stroke-width: 0.6"/>
    <path d="M 409.011434 392.352731 
L 411.195374 392.352731 
" clip-path="url(#p821de337a7)" style="fill: none; stroke: #3e493f; stroke-width: 0.6"/>
    <path d="M 411.195374 392.352731 
L 411.195374 390.168747 
" clip-path="url(#p821de337a7)" style="fill: none; stroke: #3e493f; stroke-width: 0.6"/>
    <path d="M 409.011434 390.168747 
L 411.195374 390.168747 
" clip-path="url(#p821de337a7)" style="fill: none; stroke: #3e493f; stroke-width: 0.6"/>
    <path d="M 409.011434 392.352731 
L 409.011434 390.168747 
" clip-path="url(#p821de337a7)" style="fill: none; stroke: #3e493f; stroke-width: 0.6"/>
    <path d="M 409.011434 346.854001 
L 411.195374 346.854001 
" clip-path="url(#p821de337a7)" style="fill: none; stroke: #3e493f; stroke-width: 0.6"/>
    <path d="M 411.195374 346.854001 
L 411.195374 344.670016 
" clip-path="url(#p821de337a7)" style="fill: none; stroke: #3e493f; stroke-width: 0.6"/>
    <path d="M 409.011434 344.670016 
L 411.195374 344.670016 
" clip-path="url(#p821de337a7)" style="fill: none; stroke: #3e493f; stroke-width: 0.6"/>
    <path d="M 409.011434 346.854001 
L 409.011434 344.670016 
" clip-path="url(#p821de337a7)" style="fill: none; stroke: #3e493f; stroke-width: 0.6"/>
    <path d="M 409.011434 301.35527 
L 411.195374 301.35527 
" clip-path="url(#p821de337a7)" style="fill: none; stroke: #3e493f; stroke-width: 0.6"/>
    <path d="M 411.195374 301.35527 
L 411.195374 299.171286 
" clip-path="url(#p821de337a7)" style="fill: none; stroke: #3e493f; stroke-width: 0.6"/>
    <path d="M 409.011434 299.171286 
L 411.195374 299.171286 
" clip-path="url(#p821de337a7)" style="fill: none; stroke: #3e493f; stroke-width: 0.6"/>
    <path d="M 409.011434 301.35527 
L 409.011434 299.171286 
" clip-path="url(#p821de337a7)" style="fill: none; stroke: #3e493f; stroke-width: 0.6"/>
    <path d="M 415.335758 300.263301 
L 415.335758 281.608821 
" clip-path="url(#p821de337a7)" style="fill: none; stroke: #3e493f; stroke-width: 0.6"/>
    <path d="M 404.87105 281.608821 
L 415.335758 281.608821 
" clip-path="url(#p821de337a7)" style="fill: none; stroke: #3e493f; stroke-width: 0.6"/>
    <path d="M 404.87105 300.263301 
L 404.87105 281.608821 
" clip-path="url(#p821de337a7)" style="fill: none; stroke: #3e493f; stroke-width: 0.6"/>
    <path d="M 404.87105 300.263301 
L 415.335758 300.263301 
" clip-path="url(#p821de337a7)" style="fill: none; stroke: #3e493f; stroke-width: 0.6"/>
    <path d="M 409.011434 282.700791 
L 411.195374 282.700791 
" clip-path="url(#p821de337a7)" style="fill: none; stroke: #3e493f; stroke-width: 0.6"/>
    <path d="M 411.195374 282.700791 
L 411.195374 280.516852 
" clip-path="url(#p821de337a7)" style="fill: none; stroke: #3e493f; stroke-width: 0.6"/>
    <path d="M 409.011434 280.516852 
L 411.195374 280.516852 
" clip-path="url(#p821de337a7)" style="fill: none; stroke: #3e493f; stroke-width: 0.6"/>
    <path d="M 409.011434 282.700791 
L 409.011434 280.516852 
" clip-path="url(#p821de337a7)" style="fill: none; stroke: #3e493f; stroke-width: 0.6"/>
    <path d="M 409.011434 237.20206 
L 411.195374 237.20206 
" clip-path="url(#p821de337a7)" style="fill: none; stroke: #3e493f; stroke-width: 0.6"/>
    <path d="M 411.195374 237.20206 
L 411.195374 235.018121 
" clip-path="url(#p821de337a7)" style="fill: none; stroke: #3e493f; stroke-width: 0.6"/>
    <path d="M 409.011434 235.018121 
L 411.195374 235.018121 
" clip-path="url(#p821de337a7)" style="fill: none; stroke: #3e493f; stroke-width: 0.6"/>
    <path d="M 409.011434 237.20206 
L 409.011434 235.018121 
" clip-path="url(#p821de337a7)" style="fill: none; stroke: #3e493f; stroke-width: 0.6"/>
    <path d="M 409.011434 191.70333 
L 411.195374 191.70333 
" clip-path="url(#p821de337a7)" style="fill: none; stroke: #3e493f; stroke-width: 0.6"/>
    <path d="M 411.195374 191.70333 
L 411.195374 189.519391 
" clip-path="url(#p821de337a7)" style="fill: none; stroke: #3e493f; stroke-width: 0.6"/>
    <path d="M 409.011434 189.519391 
L 411.195374 189.519391 
" clip-path="url(#p821de337a7)" style="fill: none; stroke: #3e493f; stroke-width: 0.6"/>
    <path d="M 409.011434 191.70333 
L 409.011434 189.519391 
" clip-path="url(#p821de337a7)" style="fill: none; stroke: #3e493f; stroke-width: 0.6"/>
    <path d="M 415.335758 190.61136 
L 415.335758 42.24 
" clip-path="url(#p821de337a7)" style="fill: none; stroke: #3e493f; stroke-width: 0.6"/>
    <path d="M 404.87105 42.24 
L 415.335758 42.24 
" clip-path="url(#p821de337a7)" style="fill: none; stroke: #3e493f; stroke-width: 0.6"/>
    <path d="M 404.87105 190.61136 
L 404.87105 42.24 
" clip-path="url(#p821de337a7)" style="fill: none; stroke: #3e493f; stroke-width: 0.6"/>
    <path d="M 404.87105 190.61136 
L 415.335758 190.61136 
" clip-path="url(#p821de337a7)" style="fill: none; stroke: #3e493f; stroke-width: 0.6"/>
    <path d="M 195.121902 42.285499 
L 220.601191 42.285499 
" clip-path="url(#p821de337a7)" style="fill: none; stroke: #3e493f; stroke-width: 0.6"/>
    <path d="M 220.601191 42.285499 
L 220.601191 31.820791 
" clip-path="url(#p821de337a7)" style="fill: none; stroke: #3e493f; stroke-width: 0.6"/>
    <path d="M 195.121902 31.820791 
L 220.601191 31.820791 
" clip-path="url(#p821de337a7)" style="fill: none; stroke: #3e493f; stroke-width: 0.6"/>
    <path d="M 195.121902 42.285499 
L 195.121902 31.820791 
" clip-path="url(#p821de337a7)" style="fill: none; stroke: #3e493f; stroke-width: 0.6"/>
    <path d="M 215.368837 42.24 
L 215.368837 37.053145 
" clip-path="url(#p821de337a7)" style="fill: none; stroke: #3e493f; stroke-width: 0.6"/>
    <path d="M 215.368837 42.24 
L 225.833545 42.24 
" clip-path="url(#p821de337a7)" style="fill: none; stroke: #3e493f; stroke-width: 0.6"/>
    <path d="M 225.833545 42.24 
L 225.833545 37.053145 
" clip-path="url(#p821de337a7)" style="fill: none; stroke: #3e493f; stroke-width: 0.6"/>
    <path d="M 215.368837 37.053145 
L 225.833545 37.053145 
" clip-path="url(#p821de337a7)" style="fill: none; stroke: #3e493f; stroke-width: 0.6"/>
    <path d="M 220.601191 52.704708 
L 268.147365 52.704708 
" clip-path="url(#p821de337a7)" style="fill: none; stroke: #3e493f; stroke-width: 0.6"/>
    <path d="M 268.147365 52.704708 
L 268.147365 42.24 
" clip-path="url(#p821de337a7)" style="fill: none; stroke: #3e493f; stroke-width: 0.6"/>
    <path d="M 220.601191 42.24 
L 268.147365 42.24 
" clip-path="url(#p821de337a7)" style="fill: none; stroke: #3e493f; stroke-width: 0.6"/>
    <path d="M 220.601191 52.704708 
L 220.601191 42.24 
" clip-path="url(#p821de337a7)" style="fill: none; stroke: #3e493f; stroke-width: 0.6"/>
    <path d="M 377.344318 52.704708 
L 415.335758 52.704708 
" clip-path="url(#p821de337a7)" style="fill: none; stroke: #3e493f; stroke-width: 0.6"/>
    <path d="M 415.335758 52.704708 
L 415.335758 42.24 
" clip-path="url(#p821de337a7)" style="fill: none; stroke: #3e493f; stroke-width: 0.6"/>
    <path d="M 377.344318 42.24 
L 415.335758 42.24 
" clip-path="url(#p821de337a7)" style="fill: none; stroke: #3e493f; stroke-width: 0.6"/>
    <path d="M 377.344318 52.704708 
L 377.344318 42.24 
" clip-path="url(#p821de337a7)" style="fill: none; stroke: #3e493f; stroke-width: 0.6"/>
    <path d="M 267.055395 48.564324 
L 269.239334 48.564324 
" clip-path="url(#p821de337a7)" style="fill: none; stroke: #3e493f; stroke-width: 0.6"/>
    <path d="M 269.239334 48.564324 
L 269.239334 46.380384 
" clip-path="url(#p821de337a7)" style="fill: none; stroke: #3e493f; stroke-width: 0.6"/>
    <path d="M 267.055395 46.380384 
L 269.239334 46.380384 
" clip-path="url(#p821de337a7)" style="fill: none; stroke: #3e493f; stroke-width: 0.6"/>
    <path d="M 267.055395 48.564324 
L 267.055395 46.380384 
" clip-path="url(#p821de337a7)" style="fill: none; stroke: #3e493f; stroke-width: 0.6"/>
    <path d="M 321.653872 48.564324 
L 323.837811 48.564324 
" clip-path="url(#p821de337a7)" style="fill: none; stroke: #3e493f; stroke-width: 0.6"/>
    <path d="M 323.837811 48.564324 
L 323.837811 46.380384 
" clip-path="url(#p821de337a7)" style="fill: none; stroke: #3e493f; stroke-width: 0.6"/>
    <path d="M 321.653872 46.380384 
L 323.837811 46.380384 
" clip-path="url(#p821de337a7)" style="fill: none; stroke: #3e493f; stroke-width: 0.6"/>
    <path d="M 321.653872 48.564324 
L 321.653872 46.380384 
" clip-path="url(#p821de337a7)" style="fill: none; stroke: #3e493f; stroke-width: 0.6"/>
    <path d="M 376.252348 48.564324 
L 378.436333 48.564324 
" clip-path="url(#p821de337a7)" style="fill: none; stroke: #3e493f; stroke-width: 0.6"/>
    <path d="M 378.436333 48.564324 
L 378.436333 46.380384 
" clip-path="url(#p821de337a7)" style="fill: none; stroke: #3e493f; stroke-width: 0.6"/>
    <path d="M 376.252348 46.380384 
L 378.436333 46.380384 
" clip-path="url(#p821de337a7)" style="fill: none; stroke: #3e493f; stroke-width: 0.6"/>
    <path d="M 376.252348 48.564324 
L 376.252348 46.380384 
" clip-path="url(#p821de337a7)" style="fill: none; stroke: #3e493f; stroke-width: 0.6"/>
    <path d="M 321.653872 48.564324 
L 323.837811 48.564324 
" clip-path="url(#p821de337a7)" style="fill: none; stroke: #3e493f; stroke-width: 0.6"/>
    <path d="M 323.837811 48.564324 
L 323.837811 46.380384 
" clip-path="url(#p821de337a7)" style="fill: none; stroke: #3e493f; stroke-width: 0.6"/>
    <path d="M 321.653872 46.380384 
L 323.837811 46.380384 
" clip-path="url(#p821de337a7)" style="fill: none; stroke: #3e493f; stroke-width: 0.6"/>
    <path d="M 321.653872 48.564324 
L 321.653872 46.380384 
" clip-path="url(#p821de337a7)" style="fill: none; stroke: #3e493f; stroke-width: 0.6"/>
    <path d="M 59.080698 305.723148 
L 294.081641 305.723148 
" clip-path="url(#p821de337a7)" style="fill: none; stroke: #3e493f; stroke-width: 0.6"/>
    <path d="M 294.081641 305.723148 
L 294.081641 295.25844 
" clip-path="url(#p821de337a7)" style="fill: none; stroke: #3e493f; stroke-width: 0.6"/>
    <path d="M 59.080698 295.25844 
L 294.081641 295.25844 
" clip-path="url(#p821de337a7)" style="fill: none; stroke: #3e493f; stroke-width: 0.6"/>
    <path d="M 59.080698 305.723148 
L 59.080698 295.25844 
" clip-path="url(#p821de337a7)" style="fill: none; stroke: #3e493f; stroke-width: 0.6"/>
    <path d="M 299.313995 439.034429 
L 299.313995 300.490794 
" clip-path="url(#p821de337a7)" style="fill: none; stroke: #3e493f; stroke-width: 0.6"/>
    <path d="M 288.849287 300.490794 
L 299.313995 300.490794 
" clip-path="url(#p821de337a7)" style="fill: none; stroke: #3e493f; stroke-width: 0.6"/>
    <path d="M 288.849287 439.034429 
L 288.849287 300.490794 
" clip-path="url(#p821de337a7)" style="fill: none; stroke: #3e493f; stroke-width: 0.6"/>
    <path d="M 288.849287 439.034429 
L 299.313995 439.034429 
" clip-path="url(#p821de337a7)" style="fill: none; stroke: #3e493f; stroke-width: 0.6"/>
    <path d="M 299.313995 423.56486 
L 326.613234 423.56486 
" clip-path="url(#p821de337a7)" style="fill: none; stroke: #3e493f; stroke-width: 0.6"/>
    <path d="M 326.613234 423.56486 
L 326.613234 418.105013 
" clip-path="url(#p821de337a7)" style="fill: none; stroke: #3e493f; stroke-width: 0.6"/>
    <path d="M 299.313995 418.105013 
L 326.613234 418.105013 
" clip-path="url(#p821de337a7)" style="fill: none; stroke: #3e493f; stroke-width: 0.6"/>
    <path d="M 299.313995 423.56486 
L 299.313995 418.105013 
" clip-path="url(#p821de337a7)" style="fill: none; stroke: #3e493f; stroke-width: 0.6"/>
    <path d="M 367.562091 423.56486 
L 410.103404 423.56486 
" clip-path="url(#p821de337a7)" style="fill: none; stroke: #3e493f; stroke-width: 0.6"/>
    <path d="M 410.103404 423.56486 
L 410.103404 418.105013 
" clip-path="url(#p821de337a7)" style="fill: none; stroke: #3e493f; stroke-width: 0.6"/>
    <path d="M 367.562091 418.105013 
L 410.103404 418.105013 
" clip-path="url(#p821de337a7)" style="fill: none; stroke: #3e493f; stroke-width: 0.6"/>
    <path d="M 367.562091 423.56486 
L 367.562091 418.105013 
" clip-path="url(#p821de337a7)" style="fill: none; stroke: #3e493f; stroke-width: 0.6"/>
    <path d="M 225.833545 37.053145 
L 225.833545 8.616438 
" clip-path="url(#p821de337a7)" style="fill: none; stroke: #3e493f; stroke-width: 0.6"/>
    <path d="M 215.368837 8.616438 
L 225.833545 8.616438 
" clip-path="url(#p821de337a7)" style="fill: none; stroke: #3e493f; stroke-width: 0.6"/>
    <path d="M 215.368837 37.053145 
L 215.368837 8.616438 
" clip-path="url(#p821de337a7)" style="fill: none; stroke: #3e493f; stroke-width: 0.6"/>
    <path d="M 215.368837 37.053145 
L 225.833545 37.053145 
" clip-path="url(#p821de337a7)" style="fill: none; stroke: #3e493f; stroke-width: 0.6"/>
    <path d="M 200.58175 300.490794 
L 200.58175 291.391048 
" clip-path="url(#p821de337a7)" style="fill: none; stroke: #3e493f; stroke-width: 0.6"/>
    <path d="M 195.121902 291.391048 
L 200.58175 291.391048 
" clip-path="url(#p821de337a7)" style="fill: none; stroke: #3e493f; stroke-width: 0.6"/>
    <path d="M 195.121902 300.490794 
L 195.121902 291.391048 
" clip-path="url(#p821de337a7)" style="fill: none; stroke: #3e493f; stroke-width: 0.6"/>
    <path d="M 195.121902 300.490794 
L 200.58175 300.490794 
" clip-path="url(#p821de337a7)" style="fill: none; stroke: #3e493f; stroke-width: 0.6"/>
    <path d="M 196.759857 292.483018 
L 198.943796 292.483018 
" clip-path="url(#p821de337a7)" style="fill: none; stroke: #3e493f; stroke-width: 0.6"/>
    <path d="M 198.943796 292.483018 
L 198.943796 290.299079 
" clip-path="url(#p821de337a7)" style="fill: none; stroke: #3e493f; stroke-width: 0.6"/>
    <path d="M 196.759857 290.299079 
L 198.943796 290.299079 
" clip-path="url(#p821de337a7)" style="fill: none; stroke: #3e493f; stroke-width: 0.6"/>
    <path d="M 196.759857 292.483018 
L 196.759857 290.299079 
" clip-path="url(#p821de337a7)" style="fill: none; stroke: #3e493f; stroke-width: 0.6"/>
    <path d="M 196.759857 260.633906 
L 198.943796 260.633906 
" clip-path="url(#p821de337a7)" style="fill: none; stroke: #3e493f; stroke-width: 0.6"/>
    <path d="M 198.943796 260.633906 
L 198.943796 258.449967 
" clip-path="url(#p821de337a7)" style="fill: none; stroke: #3e493f; stroke-width: 0.6"/>
    <path d="M 196.759857 258.449967 
L 198.943796 258.449967 
" clip-path="url(#p821de337a7)" style="fill: none; stroke: #3e493f; stroke-width: 0.6"/>
    <path d="M 196.759857 260.633906 
L 196.759857 258.449967 
" clip-path="url(#p821de337a7)" style="fill: none; stroke: #3e493f; stroke-width: 0.6"/>
    <path d="M 196.759857 228.784795 
L 198.943796 228.784795 
" clip-path="url(#p821de337a7)" style="fill: none; stroke: #3e493f; stroke-width: 0.6"/>
    <path d="M 198.943796 228.784795 
L 198.943796 226.600856 
" clip-path="url(#p821de337a7)" style="fill: none; stroke: #3e493f; stroke-width: 0.6"/>
    <path d="M 196.759857 226.600856 
L 198.943796 226.600856 
" clip-path="url(#p821de337a7)" style="fill: none; stroke: #3e493f; stroke-width: 0.6"/>
    <path d="M 196.759857 228.784795 
L 196.759857 226.600856 
" clip-path="url(#p821de337a7)" style="fill: none; stroke: #3e493f; stroke-width: 0.6"/>
    <path d="M 200.58175 227.692826 
L 200.58175 218.593079 
" clip-path="url(#p821de337a7)" style="fill: none; stroke: #3e493f; stroke-width: 0.6"/>
    <path d="M 195.121902 218.593079 
L 200.58175 218.593079 
" clip-path="url(#p821de337a7)" style="fill: none; stroke: #3e493f; stroke-width: 0.6"/>
    <path d="M 195.121902 227.692826 
L 195.121902 218.593079 
" clip-path="url(#p821de337a7)" style="fill: none; stroke: #3e493f; stroke-width: 0.6"/>
    <path d="M 195.121902 227.692826 
L 200.58175 227.692826 
" clip-path="url(#p821de337a7)" style="fill: none; stroke: #3e493f; stroke-width: 0.6"/>
    <path d="M 200.58175 173.094349 
L 200.58175 141.245238 
" clip-path="url(#p821de337a7)" style="fill: none; stroke: #3e493f; stroke-width: 0.6"/>
    <path d="M 195.121902 141.245238 
L 200.58175 141.245238 
" clip-path="url(#p821de337a7)" style="fill: none; stroke: #3e493f; stroke-width: 0.6"/>
    <path d="M 195.121902 173.094349 
L 195.121902 141.245238 
" clip-path="url(#p821de337a7)" style="fill: none; stroke: #3e493f; stroke-width: 0.6"/>
    <path d="M 195.121902 173.094349 
L 200.58175 173.094349 
" clip-path="url(#p821de337a7)" style="fill: none; stroke: #3e493f; stroke-width: 0.6"/>
    <path d="M 196.759857 142.337207 
L 198.943796 142.337207 
" clip-path="url(#p821de337a7)" style="fill: none; stroke: #3e493f; stroke-width: 0.6"/>
    <path d="M 198.943796 142.337207 
L 198.943796 140.153268 
" clip-path="url(#p821de337a7)" style="fill: none; stroke: #3e493f; stroke-width: 0.6"/>
    <path d="M 196.759857 140.153268 
L 198.943796 140.153268 
" clip-path="url(#p821de337a7)" style="fill: none; stroke: #3e493f; stroke-width: 0.6"/>
    <path d="M 196.759857 142.337207 
L 196.759857 140.153268 
" clip-path="url(#p821de337a7)" style="fill: none; stroke: #3e493f; stroke-width: 0.6"/>
    <path d="M 196.759857 101.38835 
L 198.943796 101.38835 
" clip-path="url(#p821de337a7)" style="fill: none; stroke: #3e493f; stroke-width: 0.6"/>
    <path d="M 198.943796 101.38835 
L 198.943796 99.204411 
" clip-path="url(#p821de337a7)" style="fill: none; stroke: #3e493f; stroke-width: 0.6"/>
    <path d="M 196.759857 99.204411 
L 198.943796 99.204411 
" clip-path="url(#p821de337a7)" style="fill: none; stroke: #3e493f; stroke-width: 0.6"/>
    <path d="M 196.759857 101.38835 
L 196.759857 99.204411 
" clip-path="url(#p821de337a7)" style="fill: none; stroke: #3e493f; stroke-width: 0.6"/>
    <path d="M 196.759857 60.439492 
L 198.943796 60.439492 
" clip-path="url(#p821de337a7)" style="fill: none; stroke: #3e493f; stroke-width: 0.6"/>
    <path d="M 198.943796 60.439492 
L 198.943796 58.255553 
" clip-path="url(#p821de337a7)" style="fill: none; stroke: #3e493f; stroke-width: 0.6"/>
    <path d="M 196.759857 58.255553 
L 198.943796 58.255553 
" clip-path="url(#p821de337a7)" style="fill: none; stroke: #3e493f; stroke-width: 0.6"/>
    <path d="M 196.759857 60.439492 
L 196.759857 58.255553 
" clip-path="url(#p821de337a7)" style="fill: none; stroke: #3e493f; stroke-width: 0.6"/>
    <path d="M 200.58175 59.347523 
L 200.58175 39.510076 
" clip-path="url(#p821de337a7)" style="fill: none; stroke: #3e493f; stroke-width: 0.6"/>
    <path d="M 195.121902 39.510076 
L 200.58175 39.510076 
" clip-path="url(#p821de337a7)" style="fill: none; stroke: #3e493f; stroke-width: 0.6"/>
    <path d="M 195.121902 59.347523 
L 195.121902 39.510076 
" clip-path="url(#p821de337a7)" style="fill: none; stroke: #3e493f; stroke-width: 0.6"/>
    <path d="M 195.121902 59.347523 
L 200.58175 59.347523 
" clip-path="url(#p821de337a7)" style="fill: none; stroke: #3e493f; stroke-width: 0.6"/>
    <path d="M 316.35327 50.589017 
L 317.308743 50.589017 
" clip-path="url(#p821de337a7)" style="fill: none; stroke: #3e493f; stroke-width: 0.6"/>
    <path d="M 317.308743 50.589017 
L 317.308743 49.633544 
" clip-path="url(#p821de337a7)" style="fill: none; stroke: #3e493f; stroke-width: 0.6"/>
    <path d="M 316.35327 49.633544 
L 317.308743 49.633544 
" clip-path="url(#p821de337a7)" style="fill: none; stroke: #3e493f; stroke-width: 0.6"/>
    <path d="M 316.35327 50.589017 
L 316.35327 49.633544 
" clip-path="url(#p821de337a7)" style="fill: none; stroke: #3e493f; stroke-width: 0.6"/>
    <path d="M 316.35327 45.311164 
L 317.308743 45.311164 
" clip-path="url(#p821de337a7)" style="fill: none; stroke: #3e493f; stroke-width: 0.6"/>
    <path d="M 317.308743 45.311164 
L 317.308743 44.355691 
" clip-path="url(#p821de337a7)" style="fill: none; stroke: #3e493f; stroke-width: 0.6"/>
    <path d="M 316.35327 44.355691 
L 317.308743 44.355691 
" clip-path="url(#p821de337a7)" style="fill: none; stroke: #3e493f; stroke-width: 0.6"/>
    <path d="M 316.35327 45.311164 
L 316.35327 44.355691 
" clip-path="url(#p821de337a7)" style="fill: none; stroke: #3e493f; stroke-width: 0.6"/>
    <path d="M 328.18294 45.311164 
L 329.138413 45.311164 
" clip-path="url(#p821de337a7)" style="fill: none; stroke: #3e493f; stroke-width: 0.6"/>
    <path d="M 329.138413 45.311164 
L 329.138413 44.355691 
" clip-path="url(#p821de337a7)" style="fill: none; stroke: #3e493f; stroke-width: 0.6"/>
    <path d="M 328.18294 44.355691 
L 329.138413 44.355691 
" clip-path="url(#p821de337a7)" style="fill: none; stroke: #3e493f; stroke-width: 0.6"/>
    <path d="M 328.18294 45.311164 
L 328.18294 44.355691 
" clip-path="url(#p821de337a7)" style="fill: none; stroke: #3e493f; stroke-width: 0.6"/>
    <path d="M 328.18294 50.589017 
L 329.138413 50.589017 
" clip-path="url(#p821de337a7)" style="fill: none; stroke: #3e493f; stroke-width: 0.6"/>
    <path d="M 329.138413 50.589017 
L 329.138413 49.633544 
" clip-path="url(#p821de337a7)" style="fill: none; stroke: #3e493f; stroke-width: 0.6"/>
    <path d="M 328.18294 49.633544 
L 329.138413 49.633544 
" clip-path="url(#p821de337a7)" style="fill: none; stroke: #3e493f; stroke-width: 0.6"/>
    <path d="M 328.18294 50.589017 
L 328.18294 49.633544 
" clip-path="url(#p821de337a7)" style="fill: none; stroke: #3e493f; stroke-width: 0.6"/>
   </g>
   <g id="LineCollection_2">
    <path d="M 410.649389 391.260762 
L 410.649389 300.263301 
" clip-path="url(#p821de337a7)" style="fill: none; stroke: #79a09e"/>
    <path d="M 409.557419 300.263301 
L 410.649389 300.263301 
" clip-path="url(#p821de337a7)" style="fill: none; stroke: #79a09e"/>
    <path d="M 409.557419 391.260762 
L 409.557419 300.263301 
" clip-path="url(#p821de337a7)" style="fill: none; stroke: #79a09e"/>
    <path d="M 409.557419 391.260762 
L 410.649389 391.260762 
" clip-path="url(#p821de337a7)" style="fill: none; stroke: #79a09e"/>
    <path d="M 410.649389 281.608821 
L 410.649389 190.61136 
" clip-path="url(#p821de337a7)" style="fill: none; stroke: #79a09e"/>
    <path d="M 409.557419 190.61136 
L 410.649389 190.61136 
" clip-path="url(#p821de337a7)" style="fill: none; stroke: #79a09e"/>
    <path d="M 409.557419 281.608821 
L 409.557419 190.61136 
" clip-path="url(#p821de337a7)" style="fill: none; stroke: #79a09e"/>
    <path d="M 409.557419 281.608821 
L 410.649389 281.608821 
" clip-path="url(#p821de337a7)" style="fill: none; stroke: #79a09e"/>
    <path d="M 268.147365 48.018339 
L 322.745841 48.018339 
" clip-path="url(#p821de337a7)" style="fill: none; stroke: #79a09e"/>
    <path d="M 322.745841 48.018339 
L 322.745841 46.926369 
" clip-path="url(#p821de337a7)" style="fill: none; stroke: #79a09e"/>
    <path d="M 268.147365 46.926369 
L 322.745841 46.926369 
" clip-path="url(#p821de337a7)" style="fill: none; stroke: #79a09e"/>
    <path d="M 268.147365 48.018339 
L 268.147365 46.926369 
" clip-path="url(#p821de337a7)" style="fill: none; stroke: #79a09e"/>
    <path d="M 322.745841 46.926369 
L 377.344318 46.926369 
" clip-path="url(#p821de337a7)" style="fill: none; stroke: #79a09e"/>
    <path d="M 322.745841 48.018339 
L 322.745841 46.926369 
" clip-path="url(#p821de337a7)" style="fill: none; stroke: #79a09e"/>
    <path d="M 322.745841 48.018339 
L 377.344318 48.018339 
" clip-path="url(#p821de337a7)" style="fill: none; stroke: #79a09e"/>
    <path d="M 377.344318 48.018339 
L 377.344318 46.926369 
" clip-path="url(#p821de337a7)" style="fill: none; stroke: #79a09e"/>
    <path d="M 198.397811 291.391048 
L 198.397811 227.692826 
" clip-path="url(#p821de337a7)" style="fill: none; stroke: #79a09e"/>
    <path d="M 197.305841 227.692826 
L 198.397811 227.692826 
" clip-path="url(#p821de337a7)" style="fill: none; stroke: #79a09e"/>
    <path d="M 197.305841 291.391048 
L 197.305841 227.692826 
" clip-path="url(#p821de337a7)" style="fill: none; stroke: #79a09e"/>
    <path d="M 197.305841 291.391048 
L 198.397811 291.391048 
" clip-path="url(#p821de337a7)" style="fill: none; stroke: #79a09e"/>
    <path d="M 198.397811 141.245238 
L 198.397811 59.347523 
" clip-path="url(#p821de337a7)" style="fill: none; stroke: #79a09e"/>
    <path d="M 197.305841 59.347523 
L 198.397811 59.347523 
" clip-path="url(#p821de337a7)" style="fill: none; stroke: #79a09e"/>
    <path d="M 197.305841 141.245238 
L 197.305841 59.347523 
" clip-path="url(#p821de337a7)" style="fill: none; stroke: #79a09e"/>
    <path d="M 197.305841 141.245238 
L 198.397811 141.245238 
" clip-path="url(#p821de337a7)" style="fill: none; stroke: #79a09e"/>
   </g>
   <g id="line2d_11">
    <path d="M 268.147365 47.472354 
L 268.147365 -1 
" clip-path="url(#p821de337a7)" style="fill: none; stroke: #987345; stroke-width: 0.9; stroke-linecap: square"/>
   </g>
   <g id="patch_53">
    <path d="M 322.745841 47.472354 
C 322.745841 32.997491 316.989591 19.100675 306.754318 8.865401 
C 296.519044 -1.369873 282.622228 -7.126123 268.147365 -7.126123 
" clip-path="url(#p821de337a7)" style="fill: none; stroke: #a78d6b; stroke-width: 0.6; stroke-linejoin: miter"/>
   </g>
   <g id="line2d_12">
    <path d="M 377.344318 47.472354 
L 377.344318 -1 
" clip-path="url(#p821de337a7)" style="fill: none; stroke: #987345; stroke-width: 0.9; stroke-linecap: square"/>
   </g>
   <g id="patch_54">
    <path d="M 377.344318 -7.126123 
C 362.869455 -7.126123 348.972639 -1.369873 338.737365 8.865401 
C 328.502091 19.100675 322.745841 32.997491 322.745841 47.472354 
" clip-path="url(#p821de337a7)" style="fill: none; stroke: #a78d6b; stroke-width: 0.6; stroke-linejoin: miter"/>
   </g>
   <g id="line2d_13">
    <path d="M 294.081641 439.034429 
L 335.030499 439.034429 
" clip-path="url(#p821de337a7)" style="fill: none; stroke: #987345; stroke-width: 0.9; stroke-linecap: square"/>
   </g>
   <g id="patch_55">
    <path d="M 294.081641 479.983286 
C 304.937788 479.983286 315.360401 475.666099 323.036856 467.989644 
C 330.713311 460.313188 335.030499 449.890576 335.030499 439.034429 
" clip-path="url(#p821de337a7)" style="fill: none; stroke: #a78d6b; stroke-width: 0.6; stroke-linejoin: miter"/>
   </g>
   <g id="line2d_14">
    <path d="M 367.562091 420.834937 
L 367.562091 379.886079 
" clip-path="url(#p821de337a7)" style="fill: none; stroke: #987345; stroke-width: 0.9; stroke-linecap: square"/>
   </g>
   <g id="patch_56">
    <path d="M 367.562091 379.886079 
C 356.705944 379.886079 346.283331 384.203267 338.606876 391.879722 
C 330.930421 399.556177 326.613234 409.978789 326.613234 420.834937 
" clip-path="url(#p821de337a7)" style="fill: none; stroke: #a78d6b; stroke-width: 0.6; stroke-linejoin: miter"/>
   </g>
   <g id="line2d_15">
    <path d="M 197.851826 218.593079 
L 243.350557 218.593079 
" clip-path="url(#p821de337a7)" style="fill: none; stroke: #987345; stroke-width: 0.9; stroke-linecap: square"/>
   </g>
   <g id="patch_57">
    <path d="M 243.350557 218.593079 
C 243.350557 206.530694 238.553682 194.950013 230.024287 186.420619 
C 221.494892 177.891224 209.914212 173.094349 197.851826 173.094349 
" clip-path="url(#p821de337a7)" style="fill: none; stroke: #a78d6b; stroke-width: 0.6; stroke-linejoin: miter"/>
   </g>
   <g id="text_6">
    <g id="patch_58">
     <path d="M 245.852992 114.183727 
C 248.027657 114.183727 250.113547 113.319723 251.651268 111.782002 
C 253.188988 110.244282 254.052992 108.158392 254.052992 105.983727 
C 254.052992 103.809061 253.188988 101.723172 251.651268 100.185451 
C 250.113547 98.64773 248.027657 97.783727 245.852992 97.783727 
C 243.678327 97.783727 241.592437 98.64773 240.054716 100.185451 
C 238.516996 101.723172 237.652992 103.809061 237.652992 105.983727 
C 237.652992 108.158392 238.516996 110.244282 240.054716 111.782002 
C 241.592437 113.319723 243.678327 114.183727 245.852992 114.183727 
z
" style="fill: #273c34; stroke: #ffffff; stroke-linejoin: miter"/>
    </g>
    <text style="font-weight: 700; font-size: 10px; font-family: 'DejaVu Sans'; text-anchor: middle; fill: #ffffff" x="245.852992" y="108.581383" transform="rotate(-0 245.852992 108.581383)">1</text>
   </g>
   <g id="text_7">
    <g id="patch_59">
     <path d="M 382.804311 342.587505 
C 384.978977 342.587505 387.064866 341.723501 388.602587 340.18578 
C 390.140308 338.64806 391.004311 336.56217 391.004311 334.387505 
C 391.004311 332.212839 390.140308 330.12695 388.602587 328.589229 
C 387.064866 327.051509 384.978977 326.187505 382.804311 326.187505 
C 380.629646 326.187505 378.543757 327.051509 377.006036 328.589229 
C 375.468315 330.12695 374.604311 332.212839 374.604311 334.387505 
C 374.604311 336.56217 375.468315 338.64806 377.006036 340.18578 
C 378.543757 341.723501 380.629646 342.587505 382.804311 342.587505 
z
" style="fill: #273c34; stroke: #ffffff; stroke-linejoin: miter"/>
    </g>
    <text style="font-weight: 700; font-size: 10px; font-family: 'DejaVu Sans'; text-anchor: middle; fill: #ffffff" x="382.804311" y="336.985161" transform="rotate(-0 382.804311 336.985161)">2</text>
   </g>
   <g id="text_8">
    <g id="patch_60">
     <path d="M 394.178972 293.903747 
C 396.353638 293.903747 398.439527 293.039743 399.977248 291.502022 
C 401.514969 289.964302 402.378972 287.878412 402.378972 285.703747 
C 402.378972 283.529081 401.514969 281.443192 399.977248 279.905471 
C 398.439527 278.367751 396.353638 277.503747 394.178972 277.503747 
C 392.004307 277.503747 389.918417 278.367751 388.380697 279.905471 
C 386.842976 281.443192 385.978972 283.529081 385.978972 285.703747 
C 385.978972 287.878412 386.842976 289.964302 388.380697 291.502022 
C 389.918417 293.039743 392.004307 293.903747 394.178972 293.903747 
z
" style="fill: #273c34; stroke: #ffffff; stroke-linejoin: miter"/>
    </g>
    <text style="font-weight: 700; font-size: 10px; font-family: 'DejaVu Sans'; text-anchor: middle; fill: #ffffff" x="394.178972" y="288.301403" transform="rotate(-0 394.178972 288.301403)">3</text>
   </g>
  </g>
 </g>
 <defs>
  <clipPath id="p821de337a7">
   <rect x="162.94975" y="4.608" width="264.5005" height="451.584"/>
  </clipPath>
 </defs>
</svg>
